
<svg width="16" height="15" viewBox="0 0 16 15" fill="none" xmlns="http://www.w3.org/2000/svg">
<path d="M8.00002 4.5V6.6M8.00002 6.6V8.7M8.00002 6.6H10.1M8.00002 6.6H5.90002" stroke="#4B164C" stroke-width="1.5" stroke-linecap="round"/>
<path d="M9.4 12.2C12.0398 12.2 13.3598 12.2 14.1799 11.3799C15 10.5598 15 9.23984 15 6.6C15 3.96013 15 2.6402 14.1799 1.8201C13.3598 1 12.0398 1 9.4 1H6.6C3.96013 1 2.6402 1 1.8201 1.8201C1 2.6402 1 3.96013 1 6.6C1 9.23984 1 10.5598 1.8201 11.3799C2.27733 11.8371 2.88992 12.0394 3.8 12.129" stroke="#4B164C" stroke-width="1.5" stroke-linecap="round" stroke-linejoin="round"/>
<path d="M9.4007 12.1999C8.53515 12.1999 7.58224 12.5493 6.71172 13.0014C5.31353 13.7274 4.61444 14.0904 4.26994 13.8591C3.92544 13.6278 3.99064 12.9105 4.12106 11.4759L4.1507 11.1499" stroke="#4B164C" stroke-width="1.5" stroke-linecap="round"/>
</svg>
