<svg width="16" height="16" viewBox="0 0 16 16" fill="none" xmlns="http://www.w3.org/2000/svg">
<path d="M7.35244 9.60089C8.68352 10.1127 9.48519 10.9232 10.4935 12.1676M7.35244 9.60089C5.73246 8.97806 4.51423 8.81564 3.41016 8.83431M7.35244 9.60089C8.61452 8.21281 9.44419 7.21173 12.5769 6.75098" stroke="#4B164C" stroke-width="1.3" stroke-linecap="round" stroke-linejoin="round"/>
<path d="M6.33203 6.33398H6.33303" stroke="#4B164C" stroke-width="1.3" stroke-linecap="round" stroke-linejoin="round"/>
<path d="M8 13C10.7614 13 13 10.7614 13 8C13 5.23858 10.7614 3 8 3C5.23858 3 3 5.23858 3 8C3 10.7614 5.23858 13 8 13Z" stroke="#4B164C" stroke-width="1.3" stroke-linecap="round" stroke-linejoin="round"/>
<path d="M15 8C15 8.99554 14.7922 9.94257 14.4175 10.8M8 15C8.99554 15 9.94257 14.7922 10.8 14.4175C11.6074 14.0648 12.3354 13.5641 12.9498 12.9498M1 8C1 7.00446 1.20783 6.05744 1.58246 5.2C1.93523 4.39259 2.43591 3.66459 3.05025 3.05025M8 1C7.00446 1 6.05744 1.20783 5.2 1.58246M5.2 14.4175C4.39259 14.0648 3.66459 13.5641 3.05025 12.9498C2.43591 12.3354 1.93523 11.6074 1.58246 10.8M10.6825 1.7C11.4898 2.05277 12.2178 2.55345 12.8322 3.16779C13.4466 3.78213 13.9472 4.51013 14.3 5.31754" stroke="#4B164C" stroke-width="1.3" stroke-linecap="round" stroke-linejoin="round"/>
</svg>
