<svg width="24" height="31" viewBox="0 0 24 31" fill="none" xmlns="http://www.w3.org/2000/svg">
<path d="M23.1787 21.2624L13.9799 30.0494C13.4718 30.5751 12.7797 30.8379 12.0175 30.8379C11.2553 30.8379 10.572 30.5751 10.0551 30.0494L0.821318 21.2624C-0.273773 20.2199 -0.273773 18.5203 0.821318 17.4778C1.91641 16.4353 3.68607 16.4353 4.78116 17.4778L9.19657 21.6917L9.19657 2.68093C9.19657 1.20037 10.4494 0.000148773 12 0.000148773C13.5506 0.000148773 14.8034 1.20037 14.8034 2.68093L14.8034 21.6917L19.2188 17.469C20.3139 16.4265 22.0836 16.4265 23.1787 17.469C24.2738 18.5203 24.2738 20.2111 23.1787 21.2624Z" fill="#4C0B84"/>
</svg>
