<svg width="24" height="31" viewBox="0 0 24 31" fill="none" xmlns="http://www.w3.org/2000/svg">
<path d="M0.821318 9.57547L10.0201 0.788465C10.5282 0.262822 11.2203 0 11.9825 0C12.7447 0 13.428 0.262822 13.9449 0.788465L23.1787 9.57547C24.2738 10.618 24.2738 12.3176 23.1787 13.3601C22.0836 14.4026 20.3139 14.4026 19.2188 13.3601L14.8034 9.14619V28.157C14.8034 29.6375 13.5506 30.8377 12 30.8377C10.4494 30.8377 9.19657 29.6375 9.19657 28.157V9.14619L4.78117 13.3689C3.68608 14.4114 1.91641 14.4114 0.821318 13.3689C-0.273773 12.3176 -0.273773 10.6268 0.821318 9.57547Z" fill="#4C0B84"/>
</svg>
