<svg width="42" height="42" viewBox="0 0 42 42" fill="none" xmlns="http://www.w3.org/2000/svg">
<path d="M14.3798 1.85638C18.7148 0.839556 23.2265 0.839525 27.5615 1.85638C33.8219 3.32488 38.7102 8.21318 40.1787 14.4736C41.1955 18.8086 41.1955 23.3202 40.1787 27.6552C38.7102 33.9156 33.8218 38.8039 27.5615 40.2724C23.2264 41.2893 18.7149 41.2892 14.3798 40.2724C8.11941 38.8039 3.23113 33.9156 1.76264 27.6552C0.745798 23.3202 0.745778 18.8086 1.76264 14.4736C3.23115 8.21319 8.11944 3.32487 14.3798 1.85638Z" fill="white"/>
<path d="M14.3798 1.85638L14.2908 1.47664L14.2907 1.47664L14.3798 1.85638ZM27.5615 1.85638L27.6505 1.47664V1.47664L27.5615 1.85638ZM40.1787 14.4736L40.5584 14.3845V14.3845L40.1787 14.4736ZM40.1787 27.6552L40.5584 27.7443V27.7443L40.1787 27.6552ZM27.5615 40.2724L27.6505 40.6521H27.6505L27.5615 40.2724ZM14.3798 40.2724L14.2907 40.6521H14.2908L14.3798 40.2724ZM1.76264 27.6552L1.38289 27.7443L1.38289 27.7443L1.76264 27.6552ZM1.76264 14.4736L1.38289 14.3845L1.38289 14.3845L1.76264 14.4736ZM14.3798 1.85638L14.4689 2.23612C18.7453 1.23304 23.196 1.23301 27.4724 2.23612L27.5615 1.85638L27.6505 1.47664C23.2569 0.446038 18.6844 0.44607 14.2908 1.47664L14.3798 1.85638ZM27.5615 1.85638L27.4724 2.23612C33.5886 3.67079 38.3642 8.44648 39.7989 14.5626L40.1787 14.4736L40.5584 14.3845C39.0561 7.97988 34.0552 2.97897 27.6505 1.47664L27.5615 1.85638ZM40.1787 14.4736L39.7989 14.5626C40.802 18.8391 40.802 23.2897 39.7989 27.5661L40.1787 27.6552L40.5584 27.7443C41.589 23.3507 41.589 18.7781 40.5584 14.3845L40.1787 14.4736ZM40.1787 27.6552L39.7989 27.5661C38.3643 33.6823 33.5885 38.458 27.4724 39.8927L27.5615 40.2724L27.6505 40.6521C34.0551 39.1498 39.0561 34.1489 40.5584 27.7443L40.1787 27.6552ZM27.5615 40.2724L27.4724 39.8927C23.1959 40.8958 18.7453 40.8957 14.4689 39.8927L14.3798 40.2724L14.2908 40.6521C18.6844 41.6827 23.2569 41.6827 27.6505 40.6521L27.5615 40.2724ZM14.3798 40.2724L14.4689 39.8927C8.35272 38.458 3.57704 33.6823 2.14238 27.5661L1.76264 27.6552L1.38289 27.7443C2.88522 34.1489 7.88611 39.1498 14.2907 40.6521L14.3798 40.2724ZM1.76264 27.6552L2.14238 27.5661C1.13928 23.2897 1.13926 18.8391 2.14238 14.5626L1.76264 14.4736L1.38289 14.3845C0.352291 18.7781 0.352312 23.3507 1.38289 27.7443L1.76264 27.6552ZM1.76264 14.4736L2.14238 14.5626C3.57706 8.44649 8.35274 3.67078 14.4689 2.23612L14.3798 1.85638L14.2907 1.47664C7.88614 2.97895 2.88524 7.97989 1.38289 14.3845L1.76264 14.4736Z" fill="#DBD0DB"/>
<path d="M13.8295 25.376H14.9707L17.1579 27.0878C18.0138 27.7535 18.9648 28.229 19.9158 28.6094C20.2962 28.7045 20.6766 28.7996 21.057 28.7996C21.7226 28.7996 22.3883 28.6094 22.9589 28.229C23.8148 27.6584 24.2903 26.7074 24.2903 25.6613V16.7221C24.2903 15.676 23.8148 14.8202 22.9589 14.1545C22.103 13.5839 20.9619 13.3937 20.0109 13.7741C18.9648 14.1545 18.0138 14.63 17.253 15.2956L14.9707 17.0074H13.8295C12.2128 17.0074 10.9766 18.2437 10.9766 19.8604V22.6182C10.9766 24.1398 12.2128 25.376 13.8295 25.376ZM16.207 18.4339L18.2991 16.8172C18.9648 16.2466 19.7256 15.8662 20.5815 15.5809C20.9619 15.3907 21.4373 15.4858 21.8177 15.7711C22.103 15.9613 22.2932 16.3417 22.2932 16.7221V25.6613C22.2932 26.0417 22.103 26.4221 21.7226 26.6123C21.3423 26.8976 20.8668 26.8976 20.4864 26.8025C19.6305 26.5172 18.8697 26.0417 18.204 25.5662L16.1119 23.9496V18.4339H16.207ZM12.8785 19.8604C12.8785 19.2898 13.2589 18.9094 13.8295 18.9094H14.305V23.5692H13.8295C13.2589 23.5692 12.8785 23.1888 12.8785 22.6182V19.8604Z" fill="#4C0B84"/>
<path d="M26.8667 23.7604C27.5324 23.0947 27.8176 22.2389 27.8176 21.1928C27.8176 20.1467 27.4373 19.2908 26.8667 18.6251C26.4863 18.2447 25.9157 18.2447 25.5353 18.6251C25.1549 19.0055 25.1549 19.5761 25.5353 19.9565C25.8206 20.2418 26.0108 20.7173 26.0108 21.1928C26.0108 21.6683 25.8206 22.1438 25.5353 22.4291C25.1549 22.8095 25.1549 23.38 25.5353 23.7604C25.7255 23.9506 25.9157 24.0457 26.201 24.0457C26.4863 24.0457 26.6765 23.9506 26.8667 23.7604Z" fill="#4C0B84"/>
<path d="M27.5376 15.5807C27.0621 15.3905 26.4915 15.5807 26.3013 16.0562C26.1111 16.5317 26.3013 17.1023 26.7768 17.2925C28.1082 17.863 29.0592 19.3846 29.0592 21.1915C29.0592 22.9983 28.1082 24.5199 26.7768 25.0905C26.3013 25.2807 26.016 25.8513 26.3013 26.3268C26.4915 26.7072 26.7768 26.8974 27.1572 26.8974C27.2523 26.8974 27.4425 26.8974 27.5376 26.8023C29.5347 25.9464 30.9611 23.7591 30.9611 21.1915C30.9611 18.6238 29.5347 16.4366 27.5376 15.5807Z" fill="#4C0B84"/>
</svg>
