<svg width="35" height="41" viewBox="0 0 35 41" fill="none" xmlns="http://www.w3.org/2000/svg">
<path d="M18.6973 30.6463C18.6973 32.9041 17.8004 35.0694 16.2039 36.6658C14.6074 38.2623 12.4421 39.1592 10.1844 39.1592C7.9266 39.1592 5.76131 38.2623 4.16484 36.6658C2.56836 35.0694 1.67147 32.9041 1.67147 30.6463C1.66493 29.1511 2.05881 27.6814 2.81219 26.3899C3.55939 25.0958 4.63402 24.0213 5.9281 23.2742C7.22218 22.5271 8.69011 22.1338 10.1844 22.1338C11.6786 22.1338 13.1465 22.5271 14.4406 23.2742C15.7347 24.0213 16.8093 25.0958 17.5565 26.3899C18.3099 27.6814 18.7038 29.1511 18.6973 30.6463Z" fill="#8D6DE8"/>
<path d="M10.192 30.6467C14.2635 30.6467 17.5642 28.741 17.5642 26.3902C17.5642 24.0395 14.2635 22.1338 10.192 22.1338C6.12045 22.1338 2.81982 24.0395 2.81982 26.3902C2.81982 28.741 6.12045 30.6467 10.192 30.6467Z" fill="#A78EEF"/>
<path d="M20.4037 6.4948C21.9353 8.13888 23.7766 9.46425 25.8219 10.3948C27.8671 11.3254 30.076 11.8429 32.3217 11.9175C32.7733 11.9175 33.2064 11.7381 33.5257 11.4188C33.8449 11.0995 34.0243 10.6665 34.0243 10.2149C34.0243 9.76338 33.8449 9.33032 33.5257 9.01103C33.2064 8.69173 32.7733 8.51235 32.3217 8.51235C24.9002 8.51235 20.2062 0.900126 20.1602 0.825212C19.9684 0.506272 19.6774 0.258953 19.3318 0.121104C18.9861 -0.0167454 18.6047 -0.0375324 18.2461 0.0619243C17.8875 0.161381 17.5713 0.375603 17.346 0.671807C17.1207 0.968011 16.9987 1.32988 16.9985 1.70204V23.0524C15.2563 21.4959 13.0326 20.5846 10.6991 20.4707C8.36564 20.3569 6.06378 21.0473 4.17825 22.4267C2.29271 23.8062 0.937744 25.7909 0.339804 28.0494C-0.258136 30.3078 -0.062819 32.703 0.893111 34.8348C1.84904 36.9665 3.50766 38.7055 5.59177 39.7613C7.67588 40.817 10.0592 41.1254 12.3434 40.635C14.6276 40.1446 16.6742 38.885 18.1413 37.0669C19.6084 35.2487 20.407 32.9821 20.4037 30.6459V6.4948ZM10.1882 37.4562C8.84127 37.4562 7.52457 37.0568 6.40462 36.3084C5.28467 35.5601 4.41177 34.4965 3.89632 33.2521C3.38086 32.0076 3.24599 30.6383 3.50877 29.3172C3.77155 27.9962 4.42017 26.7827 5.37261 25.8303C6.32505 24.8778 7.53853 24.2292 8.8596 23.9664C10.1807 23.7036 11.55 23.8385 12.7944 24.354C14.0388 24.8694 15.1025 25.7423 15.8508 26.8623C16.5991 27.9822 16.9985 29.2989 16.9985 30.6459C16.9985 32.4521 16.281 34.1843 15.0038 35.4615C13.7267 36.7387 11.9944 37.4562 10.1882 37.4562Z" fill="#4C0B84"/>
</svg>
