<svg width="23" height="17" viewBox="0 0 23 17" fill="none" xmlns="http://www.w3.org/2000/svg">
<path d="M3.18589 13.1769H4.46024L6.90275 15.0885C7.85852 15.8318 8.92048 16.3628 9.98244 16.7876C10.4072 16.8938 10.832 17 11.2568 17C12.0002 17 12.7435 16.7876 13.3807 16.3628C14.3365 15.7256 14.8675 14.6637 14.8675 13.4955V3.51308C14.8675 2.34492 14.3365 1.38916 13.3807 0.645783C12.425 0.00860585 11.1506 -0.203787 10.0886 0.220998C8.92048 0.645783 7.85852 1.17676 7.00895 1.92014L4.46024 3.83167H3.18589C1.38055 3.83167 0 5.21222 0 7.01756V10.0972C0 11.7964 1.38055 13.1769 3.18589 13.1769ZM5.84079 5.42461L8.17711 3.61928C8.92048 2.9821 9.77005 2.55732 10.7258 2.23873C11.1506 2.02633 11.6816 2.13253 12.1064 2.45112C12.425 2.66351 12.6373 3.0883 12.6373 3.51308V13.4955C12.6373 13.9203 12.425 14.3451 12.0002 14.5575C11.5754 14.8761 11.0444 14.8761 10.6196 14.7699C9.66385 14.4513 8.81429 13.9203 8.07091 13.3893L5.73459 11.584V5.42461H5.84079ZM2.12392 7.01756C2.12392 6.38038 2.54871 5.95559 3.18589 5.95559H3.71687V11.1592H3.18589C2.54871 11.1592 2.12392 10.7344 2.12392 10.0972V7.01756Z" fill="white"/>
<path d="M17.735 11.3706C18.4784 10.6272 18.797 9.67143 18.797 8.50327C18.797 7.33511 18.3722 6.37935 17.735 5.63597C17.3102 5.21119 16.6731 5.21119 16.2483 5.63597C15.8235 6.06076 15.8235 6.69793 16.2483 7.12272C16.5669 7.44131 16.7793 7.97229 16.7793 8.50327C16.7793 9.03425 16.5669 9.56523 16.2483 9.88382C15.8235 10.3086 15.8235 10.9458 16.2483 11.3706C16.4607 11.583 16.6731 11.6892 16.9917 11.6892C17.3102 11.6892 17.5226 11.583 17.735 11.3706Z" fill="white"/>
<path d="M18.4784 2.23862C17.9474 2.02622 17.3102 2.23862 17.0978 2.7696C16.8854 3.30058 17.0978 3.93776 17.6288 4.15015C19.1155 4.78733 20.1775 6.48646 20.1775 8.50419C20.1775 10.5219 19.1155 12.2211 17.6288 12.8582C17.0978 13.0706 16.7792 13.7078 17.0978 14.2388C17.3102 14.6636 17.6288 14.876 18.0536 14.876C18.1598 14.876 18.3722 14.876 18.4784 14.7698C20.7085 13.814 22.3014 11.3715 22.3014 8.50419C22.3014 5.63689 20.7085 3.19438 18.4784 2.23862Z" fill="white"/>
</svg>
