<svg width="41" height="41" viewBox="0 0 41 41" fill="none" xmlns="http://www.w3.org/2000/svg">
<path fill-rule="evenodd" clip-rule="evenodd" d="M1.26377 13.8994C0.245408 18.2409 0.245409 22.7591 1.26378 27.1006C2.73443 33.3702 7.6298 38.2656 13.8994 39.7362C18.2409 40.7546 22.7591 40.7546 27.1006 39.7362C33.3702 38.2656 38.2656 33.3702 39.7362 27.1006C40.7546 22.7591 40.7546 18.2409 39.7362 13.8994C38.2656 7.62981 33.3702 2.73443 27.1006 1.26377C22.7591 0.245407 18.2409 0.245411 13.8994 1.26377C7.62981 2.73443 2.73443 7.62981 1.26377 13.8994Z" fill="white"/>
<path d="M1.26378 27.1006L0.776989 27.2147V27.2147L1.26378 27.1006ZM1.26377 13.8994L1.75056 14.0136V14.0136L1.26377 13.8994ZM13.8994 39.7362L14.0136 39.2494H14.0136L13.8994 39.7362ZM27.1006 39.7362L26.9864 39.2494H26.9864L27.1006 39.7362ZM39.7362 27.1006L39.2494 26.9864V26.9864L39.7362 27.1006ZM39.7362 13.8994L40.223 13.7853V13.7853L39.7362 13.8994ZM27.1006 1.26377L26.9864 1.75056V1.75056L27.1006 1.26377ZM13.8994 1.26377L13.7853 0.776985L13.7853 0.776986L13.8994 1.26377ZM1.75056 26.9864C0.749813 22.72 0.749812 18.28 1.75056 14.0136L0.776987 13.7853C-0.258996 18.2018 -0.258995 22.7982 0.776989 27.2147L1.75056 26.9864ZM14.0136 39.2494C7.92887 37.8221 3.17785 33.0711 1.75056 26.9864L0.776989 27.2147C2.29101 33.6693 7.33074 38.709 13.7852 40.223L14.0136 39.2494ZM26.9864 39.2494C22.72 40.2502 18.28 40.2502 14.0136 39.2494L13.7852 40.223C18.2018 41.259 22.7982 41.259 27.2148 40.223L26.9864 39.2494ZM39.2494 26.9864C37.8222 33.0711 33.0711 37.8221 26.9864 39.2494L27.2148 40.223C33.6693 38.709 38.709 33.6692 40.223 27.2147L39.2494 26.9864ZM39.2494 14.0136C40.2502 18.28 40.2502 22.72 39.2494 26.9864L40.223 27.2147C41.259 22.7982 41.259 18.2018 40.223 13.7853L39.2494 14.0136ZM26.9864 1.75056C33.0711 3.17785 37.8222 7.92887 39.2494 14.0136L40.223 13.7853C38.709 7.33074 33.6693 2.29101 27.2147 0.776985L26.9864 1.75056ZM14.0136 1.75056C18.28 0.749815 22.72 0.749811 26.9864 1.75056L27.2147 0.776985C22.7982 -0.258997 18.2018 -0.258993 13.7853 0.776985L14.0136 1.75056ZM1.75056 14.0136C3.17785 7.92887 7.92888 3.17785 14.0136 1.75056L13.7853 0.776986C7.33075 2.29101 2.29101 7.33074 0.776987 13.7853L1.75056 14.0136Z" fill="#DBD0DB"/>
<path fill-rule="evenodd" clip-rule="evenodd" d="M20.3456 27.1104C19.9839 27.5701 19.3543 27.6179 18.9393 27.2171L12.8417 21.327C12.6246 21.1173 12.5 20.8137 12.5 20.4945C12.5 20.1754 12.6246 19.8718 12.8417 19.6621L18.9393 13.7719C19.3543 13.3711 19.9839 13.4189 20.3456 13.8787C20.7073 14.3384 20.6642 15.0361 20.2493 15.4369L16.1568 19.3901L28.1153 19.3901C28.6658 19.3901 29.112 19.8846 29.112 20.4945C29.112 21.1045 28.6658 21.5989 28.1153 21.5989L16.1568 21.5989L20.2493 25.5522C20.6642 25.953 20.7073 26.6506 20.3456 27.1104Z" fill="#4C0B84"/>
</svg>
