<svg width="17" height="17" viewBox="0 0 17 17" fill="none" xmlns="http://www.w3.org/2000/svg">
<path d="M15.6453 7.08333H9.91667V1.35469C9.91667 0.60651 9.28359 0 8.5 0C7.71641 0 7.08333 0.60651 7.08333 1.35469V7.08333H1.35469C0.60651 7.08333 0 7.71641 0 8.5C0 9.28359 0.60651 9.91667 1.35469 9.91667H7.08333V15.6453C7.08333 16.3935 7.71641 17 8.5 17C9.28359 17 9.91667 16.3935 9.91667 15.6453V9.91667H15.6453C16.3935 9.91667 17 9.28359 17 8.5C17 7.71641 16.3935 7.08333 15.6453 7.08333Z" fill="white"/>
</svg>
