<svg width="20" height="21" viewBox="0 0 20 21" fill="none" xmlns="http://www.w3.org/2000/svg">
<path opacity="0.6" d="M15.581 7.79048H10.7119V4.86905H8.76429V7.79048H3.89524C2.86216 7.79048 1.87139 8.20087 1.14089 8.93137C0.41039 9.66186 0 10.6526 0 11.6857V20.45H19.4762V11.6857C19.4762 10.6526 19.0658 9.66186 18.3353 8.93137C17.6048 8.20087 16.614 7.79048 15.581 7.79048ZM17.5286 18.5024H1.94762V15.581C2.45069 15.5616 2.94445 15.4393 3.39837 15.2216C3.85229 15.0038 4.25671 14.6953 4.58664 14.315C4.7229 14.106 4.90914 13.9343 5.1285 13.8155C5.34785 13.6967 5.59338 13.6344 5.84286 13.6344C6.09233 13.6344 6.33786 13.6967 6.55722 13.8155C6.77657 13.9343 6.96281 14.106 7.09907 14.315C7.41772 14.7077 7.81998 15.0243 8.27653 15.2418C8.73307 15.4592 9.2324 15.5721 9.7381 15.5721C10.2438 15.5721 10.7431 15.4592 11.1997 15.2418C11.6562 15.0243 12.0585 14.7077 12.3771 14.315C12.5134 14.106 12.6996 13.9343 12.919 13.8155C13.1383 13.6967 13.3839 13.6344 13.6333 13.6344C13.8828 13.6344 14.1283 13.6967 14.3477 13.8155C14.567 13.9343 14.7533 14.106 14.8895 14.315C15.2195 14.6953 15.6239 15.0038 16.0778 15.2216C16.5317 15.4393 17.0255 15.5616 17.5286 15.581V18.5024ZM17.5286 13.6333C17.0386 13.5735 16.5896 13.3299 16.2724 12.9517C15.9537 12.559 15.5515 12.2424 15.0949 12.0249C14.6384 11.8074 14.139 11.6946 13.6333 11.6946C13.1276 11.6946 12.6283 11.8074 12.1718 12.0249C11.7152 12.2424 11.313 12.559 10.9943 12.9517C10.858 13.1606 10.6718 13.3323 10.4525 13.4512C10.2331 13.57 9.98757 13.6322 9.7381 13.6322C9.48862 13.6322 9.24309 13.57 9.02374 13.4512C8.80438 13.3323 8.61814 13.1606 8.48188 12.9517C8.16323 12.559 7.76097 12.2424 7.30443 12.0249C6.84788 11.8074 6.34856 11.6946 5.84286 11.6946C5.33716 11.6946 4.83783 11.8074 4.38129 12.0249C3.92474 12.2424 3.52248 12.559 3.20383 12.9517C2.88661 13.3299 2.43761 13.5735 1.94762 13.6333V11.6857C1.94762 11.1692 2.15281 10.6738 2.51806 10.3085C2.88331 9.94329 3.3787 9.7381 3.89524 9.7381H15.581C16.0975 9.7381 16.5929 9.94329 16.9581 10.3085C17.3234 10.6738 17.5286 11.1692 17.5286 11.6857V13.6333ZM9.7381 4.08026C10.1384 4.08026 10.5223 3.92124 10.8054 3.63817C11.0885 3.3551 11.2475 2.97118 11.2475 2.57086C11.2475 1.36333 9.7381 0 9.7381 0C9.7381 0 8.22869 1.36333 8.22869 2.57086C8.22869 2.97118 8.38772 3.3551 8.67078 3.63817C8.95385 3.92124 9.33778 4.08026 9.7381 4.08026Z" fill="#4B164C"/>
</svg>
