<svg width="68" height="70" viewBox="0 0 68 70" fill="none" xmlns="http://www.w3.org/2000/svg">
<path d="M43.4789 35.7754C44.4508 35.7754 45.2567 36.5813 45.2567 37.5531C45.2567 38.525 44.4508 39.3309 43.4789 39.3309C42.5071 39.3309 41.7012 38.525 41.7012 37.5531C41.7012 36.5813 42.5071 35.7754 43.4789 35.7754Z" fill="#4B164C"/>
<path d="M17.4067 35.7754C18.3785 35.7754 19.1844 36.5813 19.1844 37.5531C19.1844 38.525 18.3785 39.3309 17.4067 39.3309C16.4348 39.3309 15.6289 38.525 15.6289 37.5531C15.6289 36.5813 16.4348 35.7754 17.4067 35.7754Z" fill="#4B164C"/>
<path d="M48.2215 13.8517C46.2565 13.8517 44.666 12.2612 44.666 10.2962V5.55551C44.666 3.5905 46.2565 2 48.2215 2C50.1865 2 51.777 3.5905 51.777 5.55551V9.11103" stroke="#4B164C" stroke-width="3" stroke-miterlimit="10" stroke-linecap="round" stroke-linejoin="round"/>
<path d="M15.036 13.8517C13.071 13.8517 11.4805 12.2612 11.4805 10.2962V5.55551C11.4805 3.5905 13.071 2 15.036 2C17.001 2 18.5915 3.5905 18.5915 5.55551V9.11103" stroke="#4B164C" stroke-width="3" stroke-miterlimit="10" stroke-linecap="round" stroke-linejoin="round"/>
<path d="M65.9978 65.9996V11.4817C65.9978 10.1732 64.9359 9.11133 63.6275 9.11133H52.9609" stroke="#4B164C" stroke-width="3" stroke-miterlimit="10" stroke-linecap="round" stroke-linejoin="round"/>
<path d="M16.2227 9.11133H44.6668" stroke="#4B164C" stroke-width="3" stroke-miterlimit="10" stroke-linecap="round" stroke-linejoin="round"/>
<path d="M2 19.7779V65.9996C2 67.308 3.06191 68.3699 4.37034 68.3699H58.8882C60.1967 68.3699 61.2586 67.308 61.2586 65.9996V11.4817C61.2586 10.1732 60.1967 9.11133 58.8882 9.11133H49.4069" stroke="#4B164C" stroke-width="3" stroke-miterlimit="10" stroke-linecap="round" stroke-linejoin="round"/>
<path d="M11.4814 9.11133H4.37034C3.06191 9.11133 2 10.1732 2 11.4817V20.963H56.5179" stroke="#4B164C" stroke-width="3" stroke-miterlimit="10" stroke-linecap="round" stroke-linejoin="round"/>
<path d="M26.8867 44.6649C26.8867 42.6975 28.4748 41.1094 30.4422 41.1094C32.4096 41.1094 33.9977 42.6975 33.9977 44.6649" stroke="#4B164C" stroke-width="3" stroke-miterlimit="10" stroke-linecap="round" stroke-linejoin="round"/>
<path d="M41.7012 37.5531C41.7012 38.525 42.5071 39.3309 43.4789 39.3309C44.4508 39.3309 45.2567 38.525 45.2567 37.5531C45.2567 36.5813 44.4508 35.7754 43.4789 35.7754C42.5071 35.7754 41.7012 36.5813 41.7012 37.5531Z" stroke="#4B164C" stroke-width="3" stroke-miterlimit="10" stroke-linecap="round" stroke-linejoin="round"/>
<path d="M19.1844 37.5531C19.1844 38.525 18.3785 39.3309 17.4067 39.3309C16.4348 39.3309 15.6289 38.525 15.6289 37.5531C15.6289 36.5813 16.4348 35.7754 17.4067 35.7754C18.3785 35.7754 19.1844 36.5813 19.1844 37.5531Z" stroke="#4B164C" stroke-width="3" stroke-miterlimit="10" stroke-linecap="round" stroke-linejoin="round"/>
</svg>
