<svg width="34" height="36" viewBox="0 0 34 36" fill="none" xmlns="http://www.w3.org/2000/svg">
<path d="M19.389 17.1992H14.4316V21.7714H19.389V17.1992Z" fill="#4B164C"/>
<path d="M27.1566 17.1992H22.1992V21.7714H27.1566V17.1992Z" fill="#4B164C"/>
<path d="M11.6253 24.1484H6.66797V28.7206H11.6253V24.1484Z" fill="#4B164C"/>
<path d="M19.389 24.1484H14.4316V28.7206H19.389V24.1484Z" fill="#4B164C"/>
<path d="M27.1566 24.1484H22.1992V28.7206H27.1566V24.1484Z" fill="#4B164C"/>
<path d="M9.26626 8.70118C8.04598 8.70118 7.04688 7.77971 7.04688 6.65426V2.04692C7.04688 0.921467 8.04598 0 9.26626 0C10.4865 0 11.4856 0.921467 11.4856 2.04692V6.66129C11.4856 7.77971 10.4865 8.70118 9.26626 8.70118Z" fill="#4B164C"/>
<path d="M30.2324 4.34668H27.7156V7.13922C27.7156 8.86257 26.2131 10.2694 24.3751 10.2694H23.4904C21.6523 10.2694 20.1498 8.86257 20.1498 7.13922V4.34668H13.2553V7.13922C13.2553 8.86257 11.7528 10.2694 9.91476 10.2694H9.03006C7.19201 10.2694 5.68955 8.86257 5.68955 7.13922V4.34668H3.75998C1.69314 4.34668 0 5.92935 0 7.86373V32.4831C0 34.4174 1.69314 36.0001 3.75998 36.0001H30.24C32.3069 36.0001 34 34.4174 34 32.4831V7.86373C33.9924 5.92935 32.2992 4.34668 30.2324 4.34668ZM29.5917 29.163C29.5917 30.3658 28.5393 31.3506 27.258 31.3506H6.74204C5.46074 31.3506 4.40825 30.3658 4.40825 29.163V16.7548C4.40825 15.552 5.46074 14.4828 6.74204 14.4828H27.258C28.5393 14.4828 29.5917 15.552 29.5917 16.7548V29.163Z" fill="#4B164C"/>
<path d="M23.9479 8.70118C22.7276 8.70118 21.7285 7.77971 21.7285 6.65426V2.04692C21.7285 0.921467 22.7276 0 23.9479 0C25.1682 0 26.1673 0.921467 26.1673 2.04692V6.66129C26.1673 7.77971 25.1682 8.70118 23.9479 8.70118Z" fill="#4B164C"/>
</svg>
