<svg width="18" height="18" viewBox="0 0 18 18" fill="none" xmlns="http://www.w3.org/2000/svg">
<path d="M5 3V2.33333C5 1.97971 5.14048 1.64057 5.39052 1.39052C5.64057 1.14048 5.97971 1 6.33333 1H7C7.17681 1 7.34638 1.07024 7.4714 1.19526C7.59643 1.32029 7.66667 1.48986 7.66667 1.66667C7.66667 1.84348 7.59643 2.01305 7.4714 2.13807C7.34638 2.2631 7.17681 2.33333 7 2.33333H6.33333V3C6.33333 3.17681 6.2631 3.34638 6.13807 3.4714C6.01305 3.59643 5.84348 3.66667 5.66667 3.66667C5.48986 3.66667 5.32029 3.59643 5.19526 3.4714C5.07024 3.34638 5 3.17681 5 3ZM10.3333 2.33333H11.6667C11.8435 2.33333 12.013 2.2631 12.1381 2.13807C12.2631 2.01305 12.3333 1.84348 12.3333 1.66667C12.3333 1.48986 12.2631 1.32029 12.1381 1.19526C12.013 1.07024 11.8435 1 11.6667 1H10.3333C10.1565 1 9.98695 1.07024 9.86193 1.19526C9.7369 1.32029 9.66667 1.48986 9.66667 1.66667C9.66667 1.84348 9.7369 2.01305 9.86193 2.13807C9.98695 2.2631 10.1565 2.33333 10.3333 2.33333ZM15.6667 1H15C14.8232 1 14.6536 1.07024 14.5286 1.19526C14.4036 1.32029 14.3333 1.48986 14.3333 1.66667C14.3333 1.84348 14.4036 2.01305 14.5286 2.13807C14.6536 2.2631 14.8232 2.33333 15 2.33333H15.6667V3C15.6667 3.17681 15.7369 3.34638 15.8619 3.4714C15.987 3.59643 16.1565 3.66667 16.3333 3.66667C16.5101 3.66667 16.6797 3.59643 16.8047 3.4714C16.9298 3.34638 17 3.17681 17 3V2.33333C17 1.97971 16.8595 1.64057 16.6095 1.39052C16.3594 1.14048 16.0203 1 15.6667 1ZM16.3333 5.66667C16.1565 5.66667 15.987 5.7369 15.8619 5.86193C15.7369 5.98695 15.6667 6.15652 15.6667 6.33333V7.66667C15.6667 7.84348 15.7369 8.01305 15.8619 8.13807C15.987 8.2631 16.1565 8.33333 16.3333 8.33333C16.5101 8.33333 16.6797 8.2631 16.8047 8.13807C16.9298 8.01305 17 7.84348 17 7.66667V6.33333C17 6.15652 16.9298 5.98695 16.8047 5.86193C16.6797 5.7369 16.5101 5.66667 16.3333 5.66667ZM13 6.33333V15.6667C13 16.0203 12.8595 16.3594 12.6095 16.6095C12.3594 16.8595 12.0203 17 11.6667 17H2.33333C1.97971 17 1.64057 16.8595 1.39052 16.6095C1.14048 16.3594 1 16.0203 1 15.6667V6.33333C1 5.97971 1.14048 5.64057 1.39052 5.39052C1.64057 5.14048 1.97971 5 2.33333 5H11.6667C12.0203 5 12.3594 5.14048 12.6095 5.39052C12.8595 5.64057 13 5.97971 13 6.33333ZM11.6667 6.33333H2.33333V15.6667H11.6667V6.33333ZM16.3333 10.3333C16.1565 10.3333 15.987 10.4036 15.8619 10.5286C15.7369 10.6536 15.6667 10.8232 15.6667 11V11.6667H15C14.8232 11.6667 14.6536 11.7369 14.5286 11.8619C14.4036 11.987 14.3333 12.1565 14.3333 12.3333C14.3333 12.5101 14.4036 12.6797 14.5286 12.8047C14.6536 12.9298 14.8232 13 15 13H15.6667C16.0203 13 16.3594 12.8595 16.6095 12.6095C16.8595 12.3594 17 12.0203 17 11.6667V11C17 10.8232 16.9298 10.6536 16.8047 10.5286C16.6797 10.4036 16.5101 10.3333 16.3333 10.3333Z" fill="#4C0B84" stroke="#4C0B84" stroke-width="0.3"/>
</svg>
