<svg width="16" height="16" viewBox="0 0 16 16" fill="none" xmlns="http://www.w3.org/2000/svg">
<path d="M14.9999 8.37062V4.68566C14.9999 3.8716 14.34 3.21167 13.5259 3.21167H4.68199C3.86793 3.21167 3.20801 3.8716 3.20801 4.68566V11.3186M14.9999 8.37062V10.5816V13.5296C14.9999 14.3437 14.34 15.0036 13.5259 15.0036H12.0519M14.9999 8.37062C10.252 8.37062 8.2893 9.8337 6.85247 11.4975M3.20801 11.3186V14.2666C3.20801 14.6736 3.53797 15.0036 3.945 15.0036H5.41899H12.0519M3.20801 11.3186C4.24196 11.1463 5.15136 11.1029 6.85247 11.4975M12.0519 15.0036C10.7965 12.9633 8.789 11.9467 6.85247 11.4975M6.52448 5.42265C6.15598 5.42265 5.41899 5.64375 5.41899 6.52814C5.41899 7.41253 6.15598 7.63363 6.52448 7.63363C6.89297 7.63363 7.62997 7.41253 7.62997 6.52814C7.62997 5.64375 6.89297 5.42265 6.52448 5.42265Z" stroke="#4B164C" stroke-width="1.47399" stroke-linecap="round" stroke-linejoin="round"/>
<path d="M1.00009 12.792V7.63304V5.42206V3.94807C1.00009 2.31998 2.31998 1.00009 3.94807 1.00009H12.055H12.792" stroke="#4B164C" stroke-width="1.47399" stroke-linecap="round" stroke-linejoin="round"/>
</svg>
