<svg width="36" height="35" viewBox="0 0 36 35" fill="none" xmlns="http://www.w3.org/2000/svg">
<path d="M2.57143 34.1871C3.25231 34.1843 3.90426 33.9115 4.38429 33.4286L6.95572 30.8571H27C29.3869 30.8571 31.6761 29.9089 33.364 28.2211C35.0518 26.5333 36 24.2441 36 21.8571V9C36 6.61305 35.0518 4.32387 33.364 2.63604C31.6761 0.948211 29.3869 0 27 0H9C6.61305 0 4.32387 0.948211 2.63604 2.63604C0.948212 4.32387 0 6.61305 0 9V31.6157C0.00147629 32.1219 0.152328 32.6164 0.433647 33.0373C0.71497 33.4581 1.11424 33.7865 1.58143 33.9814C1.89347 34.1183 2.23069 34.1884 2.57143 34.1871ZM27 2.57143C28.705 2.57143 30.3401 3.24872 31.5457 4.45431C32.7513 5.6599 33.4286 7.29504 33.4286 9V21.8571C33.4286 22.7014 33.2623 23.5373 32.9392 24.3173C32.6162 25.0972 32.1426 25.8059 31.5457 26.4028C30.3401 27.6084 28.705 28.2857 27 28.2857H6.42857C6.25936 28.2847 6.09163 28.3172 5.93498 28.3812C5.77833 28.4451 5.63585 28.5394 5.51572 28.6586L2.57143 31.6157V9C2.57143 7.29504 3.24872 5.6599 4.45431 4.45431C5.6599 3.24872 7.29504 2.57143 9 2.57143H27Z" fill="#4B164C"/>
<path d="M33.4289 14.67L34.0461 22.1657C34.0461 26.4214 34.2132 29.5714 27.0003 29.5714H6.42892L3.48463 32.5157C3.30557 32.6962 3.07699 32.8196 2.8278 32.8703C2.57861 32.9209 2.32 32.8965 2.08468 32.8002C1.84935 32.7039 1.64787 32.5399 1.50572 32.3291C1.36357 32.1182 1.28712 31.87 1.28606 31.6157L2.57177 19.6971C2.57177 25.3157 9.00035 23.94 14.6961 23.94C29.0832 23.94 33.4289 18 33.4289 14.67Z" fill="#4B164C"/>
<path d="M10.3687 11.872H14.4808C15.3032 11.872 15.8515 11.2976 15.8515 10.436C15.8515 9.57439 15.3032 9 14.4808 9H10.3687C9.54632 9 8.99805 9.57439 8.99805 10.436C8.99805 11.2976 9.54632 11.872 10.3687 11.872Z" fill="#4B164C"/>
<path d="M18.5928 14.7439H10.3687C9.54632 14.7439 8.99805 15.3183 8.99805 16.1799C8.99805 17.0415 9.54632 17.6159 10.3687 17.6159H18.5928C19.4153 17.6159 19.9635 17.0415 19.9635 16.1799C19.9635 15.3183 19.4153 14.7439 18.5928 14.7439Z" fill="#4B164C"/>
</svg>
