<svg width="19" height="17" viewBox="0 0 19 17" fill="none" xmlns="http://www.w3.org/2000/svg">
<path fill-rule="evenodd" clip-rule="evenodd" d="M6.68212 3.06182C7.09144 1.47149 8.53509 0.296387 10.2532 0.296387C12.2896 0.296387 13.9404 1.94722 13.9404 3.98363C13.9404 6.02004 12.2896 7.67087 10.2532 7.67087C8.53509 7.67087 7.09144 6.49577 6.68212 4.90544H0.113281V3.06182H6.68212ZM2.07307 12.2799C2.48239 10.6896 3.92604 9.51449 5.64415 9.51449C7.68055 9.51449 9.33139 11.1653 9.33139 13.2017C9.33139 15.2381 7.68055 16.889 5.64415 16.889C3.92604 16.889 2.48239 15.7139 2.07307 14.1235H0.113281V12.2799H2.07307ZM11.175 14.1235V12.2799H18.5495V14.1235H11.175ZM5.64415 15.0454C6.66235 15.0454 7.48777 14.2199 7.48777 13.2017C7.48777 12.1835 6.66235 11.3581 5.64415 11.3581C4.62594 11.3581 3.80052 12.1835 3.80052 13.2017C3.80052 14.2199 4.62594 15.0454 5.64415 15.0454ZM15.7841 4.90544V3.06182H18.5495V4.90544H15.7841ZM10.2532 5.82725C11.2714 5.82725 12.0968 5.00183 12.0968 3.98363C12.0968 2.96543 11.2714 2.14001 10.2532 2.14001C9.235 2.14001 8.40958 2.96543 8.40958 3.98363C8.40958 5.00183 9.235 5.82725 10.2532 5.82725Z" fill="#4C0B84"/>
</svg>
