<svg width="13" height="13" viewBox="0 0 13 13" fill="none" xmlns="http://www.w3.org/2000/svg">
<path d="M3.12283 12.9999C2.95719 12.9999 2.79834 12.9341 2.68121 12.817C2.56409 12.6999 2.49828 12.541 2.49826 12.3754V10.5017H1.8737C1.37693 10.5011 0.90066 10.3036 0.54939 9.95229C0.198121 9.60102 0.000540596 9.12475 0 8.62798V3.63145C0.000540596 3.13468 0.198121 2.65841 0.54939 2.30714C0.90066 1.95587 1.37693 1.75829 1.8737 1.75775H3.12283C3.28848 1.75775 3.44734 1.82355 3.56446 1.94068C3.68159 2.05781 3.7474 2.21667 3.7474 2.38232C3.7474 2.54796 3.68159 2.70682 3.56446 2.82395C3.44734 2.94108 3.28848 3.00688 3.12283 3.00688H1.8737C1.7081 3.00705 1.54934 3.0729 1.43225 3.19C1.31515 3.30709 1.2493 3.46586 1.24913 3.63145V8.62798C1.24929 8.79358 1.31514 8.95235 1.43223 9.06944C1.54933 9.18654 1.7081 9.25239 1.8737 9.25254H3.12283C3.20485 9.25253 3.28608 9.26867 3.36186 9.30005C3.43765 9.33143 3.5065 9.37744 3.5645 9.43544C3.6225 9.49344 3.66851 9.56229 3.69989 9.63808C3.73127 9.71386 3.74741 9.79509 3.7474 9.87711V10.8676L5.17953 9.43554C5.23749 9.37752 5.30633 9.33149 5.3821 9.30009C5.45786 9.26869 5.53908 9.25254 5.62109 9.25254H8.74392C8.90952 9.25238 9.06828 9.18652 9.18538 9.06943C9.30247 8.95234 9.36833 8.79357 9.36849 8.62798V8.00341C9.36849 7.83777 9.43429 7.67891 9.55142 7.56178C9.66855 7.44465 9.82741 7.37885 9.99306 7.37885C10.1587 7.37885 10.3176 7.44465 10.4347 7.56178C10.5518 7.67891 10.6176 7.83777 10.6176 8.00341V8.62798C10.6171 9.12475 10.4195 9.60101 10.0682 9.95228C9.71696 10.3036 9.24069 10.5011 8.74392 10.5017H5.87973L3.5644 12.8169C3.50642 12.875 3.43758 12.921 3.36182 12.9524C3.28605 12.9838 3.20484 12.9999 3.12283 12.9999Z" fill="#4B164C"/>
<path d="M8.74368 6.75429C8.01725 6.75429 6.63883 5.80339 5.85138 4.75922C5.48491 4.32738 5.22705 3.81415 5.09931 3.26236C4.97157 2.71058 4.97766 2.13624 5.11707 1.58729C5.24377 1.14751 5.50479 0.758343 5.86362 0.474265C6.22245 0.190186 6.66113 0.0254122 7.11825 0.00300421C7.41836 -0.0129369 7.71844 0.0350105 7.99864 0.143676C8.27884 0.252342 8.53279 0.419251 8.74368 0.633366C8.95455 0.419216 9.20849 0.252285 9.48869 0.143617C9.7689 0.0349486 10.069 -0.0129793 10.3691 0.00300421C10.8263 0.0254181 11.265 0.190231 11.6238 0.474371C11.9827 0.75851 12.2437 1.14775 12.3703 1.5876C12.5097 2.1365 12.5158 2.71079 12.388 3.26252C12.2603 3.81425 12.0024 4.32743 11.636 4.75922C10.8485 5.80339 9.47011 6.75429 8.74368 6.75429ZM7.22986 1.24937C7.21399 1.24937 7.19813 1.24967 7.18164 1.25059C6.98492 1.25995 6.79604 1.33048 6.64133 1.45234C6.48662 1.5742 6.3738 1.7413 6.31861 1.93035C6.24052 2.24448 6.23254 2.57195 6.29526 2.8895C6.35797 3.20705 6.48984 3.50691 6.68149 3.76776C7.18521 4.54519 7.913 5.15146 8.76866 5.50641C9.59883 5.13173 10.3054 4.52875 10.8059 3.76778C10.9975 3.50698 11.1294 3.20718 11.1921 2.88968C11.2548 2.57218 11.2468 2.24476 11.1687 1.93068C11.1136 1.74164 11.0007 1.57422 10.846 1.45237C10.6913 1.33051 10.5024 1.25998 10.3057 1.25062C10.0833 1.24823 9.8663 1.31955 9.68866 1.45344C9.51101 1.58734 9.38269 1.77627 9.32371 1.99077C9.27736 2.10671 9.19732 2.2061 9.09393 2.27612C8.99054 2.34613 8.86854 2.38355 8.74367 2.38355C8.61881 2.38355 8.49681 2.34613 8.39342 2.27612C8.29002 2.2061 8.20999 2.10671 8.16364 1.99077C8.10452 1.78537 7.98277 1.60355 7.81539 1.47065C7.648 1.33774 7.44331 1.26039 7.22986 1.24937Z" fill="#4B164C"/>
<path d="M8.20155 2.65787C8.5087 2.66617 8.80191 2.76077 9.11271 2.72843C9.27253 2.7118 9.46396 2.67641 9.58669 2.56277C9.60206 2.54853 9.682 2.44484 9.63424 2.42164C9.47872 2.3461 9.13754 2.48306 8.99766 2.52902C8.71516 2.62184 8.45364 2.75457 8.19235 2.89409C7.94533 3.026 7.93955 2.85677 7.87022 2.62566C7.8303 2.49258 7.81838 1.98493 7.65087 1.94306C7.57464 1.924 7.5924 2.05677 7.59411 2.09645C7.60572 2.36563 7.7409 2.58753 7.94845 2.75604C8.09663 2.87634 8.44611 3.09203 8.64946 2.96466C8.84586 2.84163 8.61251 2.38165 8.54515 2.26058C8.37832 1.96074 8.13199 1.71896 7.81807 1.57798C7.68358 1.51758 7.5198 1.45848 7.3947 1.56571C7.25822 1.68269 7.04678 2.07095 7.27506 2.20382C7.50827 2.33958 7.58709 2.03647 7.52048 1.86329C7.42215 1.60763 6.83151 1.59689 6.67989 1.79273C6.59886 1.89739 6.58894 2.06063 6.60473 2.18695C6.6336 2.4179 6.91191 2.4218 7.09405 2.38023C7.29822 2.33362 7.45425 2.17914 7.47753 1.9676C7.4866 1.88529 7.47338 1.74286 7.38857 1.69763C7.20797 1.60131 7.14772 2.23635 7.14314 2.30046C7.12737 2.52119 7.13355 2.80941 7.28119 2.99227C7.45732 3.21041 7.89794 3.16563 7.96532 2.86802C8.01281 2.65829 7.81565 2.31786 7.5665 2.40324C7.32891 2.48465 7.11387 2.84806 7.16154 3.09351C7.21936 3.39115 7.31272 3.05411 7.31034 2.94318C7.30393 2.64516 7.17511 2.42517 6.90078 2.29586C6.75394 2.22665 6.37411 2.07321 6.23812 2.24217C6.1318 2.37426 6.14329 2.65541 6.2013 2.80206C6.34795 3.17276 6.79584 3.23833 7.14314 3.25304C7.48 3.26729 7.93992 3.27172 8.22916 3.06283C8.27767 3.02779 8.3645 2.88979 8.26291 2.85728C8.11303 2.80932 7.89987 2.90208 7.79199 2.9984C7.52089 3.24046 7.35827 3.86915 7.56497 4.1918C7.63438 4.30015 7.87948 4.43911 7.97146 4.27157C8.09118 4.05351 7.98694 3.64772 7.86255 3.45858C7.74218 3.27556 7.45059 3.04076 7.21063 3.06283C7.06916 3.07584 7.10019 3.38192 7.10019 3.46472C7.10019 3.72283 7.12949 4.00574 7.33641 4.18873C7.46951 4.30644 7.87711 4.43104 7.88556 4.13965C7.89145 3.93659 7.79119 3.71632 7.64013 3.58283C7.57119 3.52191 7.47652 3.48723 7.43458 3.59357C7.25357 4.05257 7.49692 4.62627 7.95305 4.79617C8.14471 4.86756 8.74189 5.0107 8.86881 4.74709C8.92205 4.63651 8.8668 4.40207 8.78751 4.31145C8.71112 4.22414 8.53097 4.287 8.46079 4.3498C8.34752 4.45114 8.35376 4.67594 8.37335 4.81305C8.42835 5.19807 9.31833 5.34505 9.352 4.88207C9.3913 4.34176 8.93419 4.70217 8.74456 4.90662C8.64132 5.01792 8.53132 5.16101 8.50834 5.31617C8.48801 5.45336 8.73002 5.3031 8.7599 5.28703C9.15394 5.07514 9.54032 4.75875 9.77383 4.37281C9.81942 4.29746 9.99645 3.94954 9.89041 3.84974C9.77323 3.73944 9.44491 3.9266 9.35507 3.99239C9.32298 4.01589 8.9872 4.44088 9.16486 4.39428C9.56534 4.28924 9.99234 3.89828 10.257 3.59664C10.2871 3.56241 10.3191 3.52723 10.3353 3.48466C10.3412 3.46905 10.3025 3.49577 10.2908 3.50767C10.1211 3.68008 9.9747 3.8908 9.87661 4.11204C9.83622 4.20312 9.78291 4.41566 9.94103 4.27463C10.1563 4.0826 10.3329 3.82405 10.3843 3.53681C10.4018 3.4394 10.4358 3.1729 10.2877 3.13952C10.1158 3.10078 9.96001 3.36463 9.89808 3.48619C9.86976 3.54179 9.79677 3.69132 9.83826 3.7577C9.91261 3.87666 10.1884 3.60235 10.2233 3.55675C10.3598 3.3782 10.3904 3.11893 10.2586 2.92938C10.0548 2.63648 9.54757 2.72645 9.25996 2.79592C8.91396 2.8795 8.56895 3.05127 8.39176 3.37268C8.36785 3.41605 8.22905 3.67183 8.30279 3.72855C8.48373 3.86774 9.02435 3.69644 9.19707 3.65032C9.44455 3.58425 10.104 3.41891 10.1266 3.06743C10.1367 2.91157 9.76301 3.08559 9.73242 3.09964C9.41143 3.24709 9.10386 3.46317 8.87955 3.73776C8.80343 3.83094 8.62685 4.05516 8.88568 3.86047C9.38685 3.48351 9.89068 2.97973 10.1082 2.37869C10.1825 2.17341 10.2038 1.86278 9.89808 1.92158C9.63843 1.97151 9.36052 2.14749 9.20014 2.35722C9.1562 2.41468 9.12035 2.58499 9.22622 2.45232C9.40673 2.22611 9.54955 1.93058 9.62504 1.65161C9.65746 1.53182 9.63731 1.66735 9.63731 1.71603C9.63731 1.84737 9.61977 2.0321 9.72014 2.13633C9.80541 2.22488 9.90472 2.12172 9.95023 2.0489C9.96728 2.02162 10.0183 1.85329 10.0239 1.9584C10.0469 2.3962 10.5845 2.18514 10.7172 1.91238C10.762 1.82027 10.815 1.51456 10.7939 1.61479C10.7255 1.93982 10.6752 2.26997 10.6497 2.60111C10.6473 2.63204 10.6689 3.06437 10.6252 3.09351C10.6169 3.09899 10.5619 2.65129 10.5607 2.63946C10.5411 2.43027 10.5326 2.18958 10.4503 1.99214C10.3676 1.79369 10.4023 2.4221 10.4196 2.63639C10.4279 2.7393 10.4459 2.94598 10.4948 3.05516C10.5606 3.20224 10.566 2.73554 10.5515 2.57504C10.525 2.28023 10.4588 1.81764 10.4043 1.52276C10.3873 1.43092 10.3684 1.33913 10.3414 1.24972C10.3047 1.12828 10.295 1.23607 10.2877 1.27273C10.2454 1.48404 10.2377 1.71053 10.257 1.92465C10.2614 1.97257 10.3639 2.25067 10.2877 2.11486C10.2577 2.06148 10.1394 1.92949 10.1941 1.95686C10.2614 1.99052 10.3695 1.98513 10.4411 1.98907C10.6053 1.99814 10.7766 1.97725 10.9396 1.99828C11.0348 2.01056 11.0534 2.15438 11.0731 2.22837C11.1172 2.39434 11.2379 2.98832 11.0516 3.11498C10.9732 3.16826 11.0179 2.92749 11.0179 2.83274C11.0179 2.58986 11.0179 2.34699 11.0179 2.10412C11.0179 1.73063 10.9739 2.85148 10.9089 3.21929C10.898 3.28158 10.8702 3.43781 10.8583 3.27758C10.834 2.94948 10.8695 2.61883 10.8292 2.29126C10.8091 2.12826 10.6276 1.5527 10.3414 1.70683C10.2996 1.72932 10.1529 1.91469 10.1343 1.90624C10.0635 1.87405 9.76894 1.49683 9.75389 1.50435C9.72306 1.51977 9.76819 1.55042 9.7815 1.5519C9.8929 1.56428 9.98863 1.50858 10.0469 1.41538C10.1892 1.18769 10.0053 1.26792 9.89501 1.39851C9.74495 1.57613 9.52687 1.85662 9.52687 2.10565" stroke="#4B164C" stroke-linecap="round"/>
</svg>
