<svg width="17" height="18" viewBox="0 0 17 18" fill="none" xmlns="http://www.w3.org/2000/svg">
<path d="M14.5714 9.46302V7.28587C14.5708 6.33596 14.3446 5.39978 13.9115 4.55434L17 1.46586L16.1414 0.6073L0 16.7487L0.858561 17.6073L4.50142 13.9644H5.46429V14.5716C5.46429 15.3767 5.78412 16.1489 6.35343 16.7182C6.92273 17.2875 7.69488 17.6073 8.5 17.6073C9.30512 17.6073 10.0773 17.2875 10.6466 16.7182C11.2159 16.1489 11.5357 15.3767 11.5357 14.5716V13.9644H15.7857C15.9467 13.9644 16.1012 13.9005 16.215 13.7866C16.3289 13.6728 16.3929 13.5183 16.3929 13.3573V11.5359C16.3929 11.4561 16.3772 11.3772 16.3466 11.3035C16.3161 11.2299 16.2714 11.163 16.215 11.1066L14.5714 9.46302ZM10.3214 14.5716C10.3214 15.0547 10.1295 15.5179 9.78794 15.8595C9.44636 16.2011 8.98307 16.393 8.5 16.393C8.01693 16.393 7.55364 16.2011 7.21206 15.8595C6.87047 15.5179 6.67857 15.0547 6.67857 14.5716V13.9644H10.3214V14.5716Z" fill="#4B164C"/>
<path d="M11.9077 2.26968C11.0752 1.69919 10.1128 1.3469 9.10876 1.24513V0H7.89448V1.24513C6.39767 1.39742 5.0105 2.0993 4.0012 3.21506C2.99189 4.33082 2.43214 5.78118 2.43019 7.28571V9.46287L0.786657 11.1065C0.730256 11.1628 0.685515 11.2297 0.654991 11.3034C0.624466 11.377 0.608759 11.456 0.608765 11.5357V13.3571C0.611568 13.4173 0.623545 13.4767 0.644283 13.5332L11.9077 2.26968Z" fill="#4B164C"/>
</svg>
