<svg width="30" height="30" viewBox="0 0 30 30" fill="none" xmlns="http://www.w3.org/2000/svg">
<path d="M10.3793 1.53457C13.418 0.821828 16.5808 0.821793 19.6195 1.53457C24.0078 2.56402 27.4339 5.99103 28.4633 10.3793C29.176 13.418 29.1761 16.5808 28.4633 19.6195C27.4338 24.0076 24.0076 27.4338 19.6195 28.4633C16.5808 29.1761 13.418 29.1761 10.3793 28.4633C5.99103 27.4339 2.56402 24.0078 1.53457 19.6195C0.821793 16.5809 0.821827 13.418 1.53457 10.3793C2.56394 5.99094 5.99094 2.56394 10.3793 1.53457Z" fill="white"/>
<path d="M10.3793 1.53457L10.2609 1.0298L10.2609 1.0298L10.3793 1.53457ZM19.6195 1.53457L19.7379 1.0298L19.7379 1.0298L19.6195 1.53457ZM28.4633 10.3793L28.9681 10.2609V10.2609L28.4633 10.3793ZM28.4633 19.6195L28.9681 19.738L28.9681 19.7379L28.4633 19.6195ZM19.6195 28.4633L19.7379 28.9681L19.738 28.9681L19.6195 28.4633ZM10.3793 28.4633L10.2609 28.9681H10.2609L10.3793 28.4633ZM1.53457 19.6195L1.0298 19.7379L1.0298 19.7379L1.53457 19.6195ZM1.53457 10.3793L1.0298 10.2609L1.0298 10.2609L1.53457 10.3793ZM10.3793 1.53457L10.4977 2.03934C13.4585 1.34487 16.5403 1.34483 19.5011 2.03934L19.6195 1.53457L19.7379 1.0298C16.6214 0.298751 13.3775 0.298789 10.2609 1.0298L10.3793 1.53457ZM19.6195 1.53457L19.5011 2.03934C23.6976 3.0238 26.9741 6.30109 27.9585 10.4977L28.4633 10.3793L28.9681 10.2609C27.8937 5.68097 24.3179 2.10423 19.7379 1.0298L19.6195 1.53457ZM28.4633 10.3793L27.9585 10.4977C28.653 13.4585 28.653 16.5403 27.9585 19.5011L28.4633 19.6195L28.9681 19.7379C29.6991 16.6213 29.6991 13.3775 28.9681 10.2609L28.4633 10.3793ZM28.4633 19.6195L27.9585 19.5011C26.974 23.6975 23.6975 26.974 19.5011 27.9585L19.6195 28.4633L19.738 28.9681C24.3177 27.8936 27.8936 24.3177 28.9681 19.738L28.4633 19.6195ZM19.6195 28.4633L19.5011 27.9585C16.5403 28.653 13.4585 28.653 10.4977 27.9585L10.3793 28.4633L10.2609 28.9681C13.3775 29.6991 16.6213 29.6991 19.7379 28.9681L19.6195 28.4633ZM10.3793 28.4633L10.4977 27.9585C6.30109 26.9741 3.0238 23.6976 2.03934 19.5011L1.53457 19.6195L1.0298 19.7379C2.10423 24.3179 5.68097 27.8937 10.2609 28.9681L10.3793 28.4633ZM1.53457 19.6195L2.03934 19.5011C1.34483 16.5403 1.34487 13.4585 2.03934 10.4977L1.53457 10.3793L1.0298 10.2609C0.298788 13.3775 0.298751 16.6214 1.0298 19.7379L1.53457 19.6195ZM1.53457 10.3793L2.03934 10.4977C3.02374 6.30105 6.30105 3.02374 10.4977 2.03934L10.3793 1.53457L10.2609 1.0298C5.68082 2.10414 2.10414 5.68082 1.0298 10.2609L1.53457 10.3793Z" fill="#DBD0DB"/>
<path d="M22 10L11.2308 20.78L8 17.5492" stroke="#4C0B84" stroke-width="2.3" stroke-linecap="round" stroke-linejoin="round"/>
</svg>
