<svg width="70" height="70" viewBox="0 0 512 512" fill="none" xmlns="http://www.w3.org/2000/svg">
  <!-- Megaphone -->
  <g transform="translate(10, 60) scale(0.75)" fill="#4B164C">
    <path d="M445.217,101.854V50.087C445.217,22.469,422.748,0,395.13,0c-23.343,0-43.006,16.052-48.533,37.698
      c-53.008,40.331-118.524,62.476-185.206,62.476h-61.217C44.938,100.174,0,145.112,0,200.348c0,47.587,33.356,87.528,77.913,97.677
      v163.888C77.913,489.531,100.382,512,128,512c27.618,0,50.087-22.469,50.087-50.087V301
      c60.854,3.368,119.936,25.039,168.51,61.998c5.527,21.645,25.19,37.698,48.533,37.698c27.618,0,50.087-22.469,50.087-50.087
      v-85.158C483.275,257.695,512,223.965,512,183.652C512,143.339,483.275,109.61,445.217,101.854z M144.696,461.913
      c0,9.206-7.49,16.696-16.696,16.696s-16.696-7.49-16.696-16.696V300.522h33.391V461.913z M144.696,267.13h-44.522
      c-36.824,0-66.783-29.959-66.783-66.783s29.959-66.783,66.783-66.783h44.522V267.13z M345.043,321.183
      c-49.835-32.035-107.673-50.678-166.956-53.636V133.148c59.284-2.958,117.121-21.602,166.956-53.636V321.183z M411.826,350.609
      c0,9.206-7.49,16.696-16.696,16.696s-16.696-7.49-16.696-16.696V50.087c0-9.206,7.49-16.696,16.696-16.696
      s16.696,7.49,16.696,16.696V350.609z M445.217,230.867v-94.431c19.433,6.892,33.391,25.45,33.391,47.215
      S464.65,223.976,445.217,230.867z"/>
  </g>
  <!-- Bubbles & Stars scattered strictly right -->
  <circle cx="420" cy="140" r="12" fill="#4B164C"/>
  <circle cx="455" cy="205" r="9" fill="#4B164C"/>
  <circle cx="415" cy="275" r="10" fill="#4B164C"/>
  <path d="M 455,115 Q 455,123 447,123 Q 455,123 455,131 Q 455,123 463,123 Q 455,123 455,115" fill="#4B164C"/>
  <path d="M 460,290 Q 460,298 452,298 Q 460,298 460,306 Q 460,298 468,298 Q 460,298 460,290" fill="#4B164C"/>
</svg>
