<svg width="12" height="17" viewBox="0 0 12 17" fill="none" xmlns="http://www.w3.org/2000/svg">
<path d="M11.5607 3.15441L8.93934 0.533094C8.65804 0.251789 8.27651 0.0937521 7.87869 0.09375H1.5C0.671562 0.09375 0 0.765312 0 1.59375V14.5938C0 15.4222 0.671562 16.0938 1.5 16.0938H10.5C11.3284 16.0938 12 15.4222 12 14.5938V4.21506C12 3.81724 11.842 3.43571 11.5607 3.15441ZM10.3787 4.09375H8V1.71506L10.3787 4.09375ZM1.5 14.5938V1.59375H6.5V4.84375C6.5 5.25797 6.83578 5.59375 7.25 5.59375H10.5V14.5938H1.5ZM6 12.218C6 12.5521 5.59606 12.7194 5.35984 12.4832L4.25 11.3589H3.375C3.16791 11.3589 3 11.191 3 10.9839V9.23394C3 9.02684 3.16791 8.85894 3.375 8.85894H4.25L5.35984 7.70434C5.59609 7.46809 6 7.63541 6 7.9695V12.218ZM7.28753 10.7452C7.57037 10.4547 7.57066 9.99103 7.28756 9.70022C6.59541 8.98922 7.66991 7.94253 8.36241 8.65394C9.21234 9.52706 9.21278 10.9178 8.36244 11.7915C7.68141 12.491 6.58284 11.4691 7.28753 10.7452Z" fill="#4B164C"/>
</svg>
