<svg width="8" height="8" viewBox="0 0 8 8" fill="none" xmlns="http://www.w3.org/2000/svg">
<path d="M5.76852 0.464466L4.00076 2.23223L2.23299 0.464466C1.99857 0.230046 1.68063 0.0983497 1.3491 0.0983496C1.01758 0.0983498 0.699642 0.230046 0.465221 0.464466C0.230801 0.698887 0.099105 1.01683 0.0991048 1.34835C0.0991049 1.67987 0.230801 1.99781 0.465221 2.23223L2.26437 3.96862L0.465221 5.76777C0.230801 6.00219 0.0991049 6.32013 0.0991048 6.65165C0.099105 6.98317 0.230801 7.30111 0.465221 7.53553C0.699642 7.76995 1.01758 7.90165 1.3491 7.90165C1.68063 7.90165 1.99857 7.76995 2.23299 7.53553L4.00076 5.70501L5.76852 7.53553C6.00294 7.76995 6.32088 7.90165 6.65241 7.90165C6.98393 7.90165 7.30187 7.76995 7.53629 7.53553C7.77071 7.30111 7.9024 6.98317 7.90241 6.65165C7.90241 6.32013 7.77071 6.00219 7.53629 5.76777L5.73714 3.96862L7.53629 2.23223C7.77071 1.99781 7.90241 1.67987 7.90241 1.34835C7.9024 1.01683 7.77071 0.698887 7.53629 0.464466C7.30187 0.230046 6.98393 0.0983503 6.65241 0.0983496C6.32088 0.09835 6.00294 0.230045 5.76852 0.464466Z" fill="white"/>
</svg>
