<svg width="16" height="16" viewBox="0 0 16 16" fill="none" xmlns="http://www.w3.org/2000/svg">
<path d="M15.1374 13.3023C15.6576 13.8231 15.6576 14.6331 15.1374 15.1539C14.8772 15.4143 14.5593 15.53 14.2125 15.53C13.8656 15.53 13.5477 15.4143 13.2876 15.1539L7.99816 9.85946L2.70876 15.1539C2.44863 15.4143 2.1307 15.53 1.78386 15.53C1.43701 15.53 1.11908 15.4143 0.858951 15.1539C0.338683 14.6331 0.338683 13.8231 0.858951 13.3023L6.14832 8.00784L0.858951 2.71339C0.338683 2.19262 0.338683 1.38253 0.858951 0.861766C1.37922 0.341 2.1885 0.341 2.70876 0.861766L7.99816 6.15622L13.2876 0.861766C13.8078 0.341 14.6171 0.341 15.1374 0.861766C15.6576 1.38253 15.6576 2.19262 15.1374 2.71339L9.84797 8.00784L15.1374 13.3023Z" fill="#4C0B84"/>
</svg>
