<svg width="61" height="61" viewBox="0 0 61 61" fill="none" xmlns="http://www.w3.org/2000/svg">
<path d="M17.6535 28.3533C16.8238 27.5235 15.4755 27.5235 14.6457 28.3533C13.816 29.183 13.816 30.5313 14.6457 31.3611L24.447 41.1623C24.8619 41.5772 25.3805 41.7846 25.9509 41.7846C26.0028 41.7846 26.0028 41.7846 26.0546 41.7846C26.6251 41.7328 27.1955 41.4735 27.6104 41.0068L52.1395 11.6029C52.8655 10.7213 52.7618 9.37302 51.8802 8.59514C50.9986 7.86912 49.6503 7.97284 48.8724 8.85444L25.7953 36.4951L17.6535 28.3533Z" fill="#4C0B84"/>
<path d="M45.9726 4.60202C34.0452 -2.86562 18.7469 -1.10243 8.79003 8.85442C-2.93001 20.5745 -2.93001 39.7103 8.79003 51.4303C14.65 57.2903 22.377 60.2463 30.052 60.2463C37.7271 60.2463 45.454 57.2903 51.3141 51.4303C61.3228 41.4216 63.0341 26.0715 55.5146 14.144C54.8923 13.1587 53.5958 12.8475 52.6105 13.4698C51.6252 14.0921 51.3141 15.3886 51.9364 16.3739C58.4187 26.6419 56.9148 39.814 48.3063 48.4225C38.2457 58.4831 21.8065 58.4831 11.746 48.4225C1.6854 38.362 1.6854 21.9228 11.746 11.8622C20.3545 3.30555 33.4747 1.80166 43.7427 8.18026C44.728 8.80256 46.0245 8.49141 46.6468 7.5061C47.2691 6.52079 46.9579 5.22432 45.9726 4.60202Z" fill="#4C0B84"/>
</svg>
