<svg width="16" height="14" viewBox="0 0 16 14" fill="none" xmlns="http://www.w3.org/2000/svg">
<path fill-rule="evenodd" clip-rule="evenodd" d="M5.54246 2.33333C5.88783 0.99149 7.1059 0 8.55556 0C10.2738 0 11.6667 1.39289 11.6667 3.11111C11.6667 4.82933 10.2738 6.22222 8.55556 6.22222C7.1059 6.22222 5.88783 5.23073 5.54246 3.88889H0V2.33333H5.54246ZM1.65357 10.1111C1.99894 8.76927 3.21701 7.77778 4.66667 7.77778C6.38489 7.77778 7.77778 9.17067 7.77778 10.8889C7.77778 12.6071 6.38489 14 4.66667 14C3.21701 14 1.99894 13.0085 1.65357 11.6667H0V10.1111H1.65357ZM9.33333 11.6667V10.1111H15.5556V11.6667H9.33333ZM4.66667 12.4444C5.52578 12.4444 6.22222 11.748 6.22222 10.8889C6.22222 10.0298 5.52578 9.33333 4.66667 9.33333C3.80756 9.33333 3.11111 10.0298 3.11111 10.8889C3.11111 11.748 3.80756 12.4444 4.66667 12.4444ZM13.2222 3.88889V2.33333H15.5556V3.88889H13.2222ZM8.55556 4.66667C9.41467 4.66667 10.1111 3.97022 10.1111 3.11111C10.1111 2.252 9.41467 1.55556 8.55556 1.55556C7.69645 1.55556 7 2.252 7 3.11111C7 3.97022 7.69645 4.66667 8.55556 4.66667Z" fill="#4C0B84"/>
</svg>
