<svg width="18" height="18" viewBox="0 0 18 18" fill="none" xmlns="http://www.w3.org/2000/svg">
<path d="M16.0558 6.76L14.5358 4.29244C14.3549 4.00298 14.0991 3.76076 13.7919 3.5881C13.4847 3.41543 13.136 3.31788 12.7779 3.30442C12.4199 3.29096 12.0639 3.36203 11.7429 3.51108C11.4219 3.66014 11.1462 3.88238 10.9411 4.15733L9.62629 2.024C9.34331 1.56651 8.87813 1.23256 8.33259 1.09529C7.78705 0.958009 7.20561 1.02858 6.71556 1.29156C6.41047 1.46008 6.15258 1.69407 5.96317 1.97422C5.71324 1.76461 5.4137 1.6135 5.08919 1.53333C4.82024 1.46253 4.53871 1.44367 4.26173 1.4779C3.98475 1.51213 3.71811 1.59874 3.47802 1.73244C3.23544 1.8622 3.02265 2.03553 2.8519 2.24249C2.68114 2.44945 2.55579 2.68595 2.48305 2.93839C2.4103 3.19083 2.3916 3.45423 2.42802 3.71345C2.46443 3.97268 2.55525 4.22261 2.69524 4.44889L2.95364 4.86133C2.63773 4.88657 2.3316 4.97638 2.05686 5.12444C1.57126 5.39037 1.21744 5.82487 1.07229 6.33352C0.927141 6.84216 1.00238 7.38386 1.28167 7.84089L4.4736 13.0178C4.90584 13.7417 5.48753 14.3781 6.18489 14.8898C6.88225 15.4016 7.68136 15.7785 8.53577 15.9988C9.39019 16.2191 10.2829 16.2782 11.1619 16.1729C12.041 16.0675 12.8889 15.7997 13.6564 15.385C14.4239 14.9703 15.0957 14.4171 15.6326 13.7574C16.1696 13.0977 16.5611 12.3447 16.7843 11.5421C17.0076 10.7396 17.0581 9.9036 16.9331 9.08264C16.808 8.26168 16.5098 7.47218 16.0558 6.76ZM15.5466 11.2116C15.3639 11.8617 15.0448 12.4714 14.6076 13.0049C14.1705 13.5385 13.6242 13.9852 13.0006 14.3191C11.7435 14.9975 10.2502 15.1816 8.84818 14.831C7.4462 14.4804 6.25013 13.6237 5.52238 12.4489L2.33045 7.272C2.20951 7.07586 2.1768 6.8428 2.23951 6.62409C2.30222 6.40538 2.45522 6.21894 2.66484 6.10578C2.87447 5.99262 3.12354 5.96201 3.35728 6.02069C3.59102 6.07937 3.79028 6.22252 3.91122 6.41867L5.58318 9.128C5.6231 9.1929 5.67629 9.24981 5.73972 9.29548C5.80314 9.34115 5.87556 9.37468 5.95284 9.39416C6.03011 9.41364 6.11073 9.41868 6.19009 9.40901C6.26945 9.39934 6.346 9.37513 6.41536 9.33778C6.48472 9.30042 6.54554 9.25065 6.59435 9.19131C6.64316 9.13196 6.67899 9.0642 6.69981 8.99189C6.72063 8.91959 6.72602 8.84415 6.71568 8.76989C6.70535 8.69564 6.67948 8.62401 6.63956 8.55911L4.96759 5.84978L3.75162 3.88C3.63077 3.68413 3.59797 3.45138 3.66042 3.23289C3.69059 3.1241 3.74381 3.0221 3.81692 2.93292C3.89003 2.84375 3.98153 2.76923 4.08601 2.71378C4.29535 2.6007 4.54409 2.57001 4.7776 2.62844C5.00991 2.69036 5.20829 2.83276 5.33238 3.02667L5.93277 4.01511H5.94037L7.91633 7.21511C7.96765 7.3028 8.04366 7.37567 8.1361 7.42581C8.22854 7.47595 8.33389 7.50146 8.44072 7.49956C8.548 7.50154 8.6536 7.47437 8.74471 7.42133C8.88341 7.34557 8.98444 7.22153 9.02573 7.0763C9.06703 6.93108 9.04523 6.77646 8.96511 6.64622L6.98915 3.44622C6.86821 3.25008 6.8355 3.01702 6.89821 2.79831C6.96092 2.5796 7.11392 2.39316 7.32354 2.28C7.53316 2.16684 7.78224 2.13623 8.01598 2.19491C8.24972 2.25359 8.44898 2.39675 8.56991 2.59289L10.8499 6.28356L11.3287 7.06578C10.6664 7.5815 10.22 8.29956 10.0685 9.09322C9.91692 9.88688 10.0698 10.7051 10.5003 11.4036C10.5871 11.5215 10.7183 11.6044 10.8676 11.6357C11.0169 11.6671 11.1734 11.6447 11.3058 11.5729C11.4382 11.501 11.5368 11.3852 11.5819 11.2483C11.6269 11.1115 11.6152 10.9638 11.5491 10.8347C11.2268 10.3122 11.1394 9.69138 11.3062 9.10866C11.4729 8.52594 11.8801 8.02902 12.4382 7.72711C12.5085 7.68962 12.5701 7.63956 12.6197 7.57977C12.6692 7.51998 12.7057 7.45165 12.727 7.37867C12.7641 7.23432 12.7425 7.08221 12.6662 6.952L11.9062 5.71467C11.8182 5.56862 11.7782 5.40155 11.791 5.23432C11.8039 5.0671 11.8691 4.90712 11.9786 4.77437C12.088 4.64162 12.2368 4.54198 12.4064 4.48789C12.576 4.4338 12.7589 4.42765 12.9322 4.47022C13.0465 4.49847 13.1536 4.54756 13.2475 4.61468C13.3414 4.6818 13.4202 4.76562 13.4794 4.86133L14.9994 7.32889C15.3627 7.9092 15.5984 8.55167 15.6923 9.21848C15.7863 9.88529 15.7367 10.5629 15.5466 11.2116ZM5.98597 16.7582C5.92858 16.8326 5.85325 16.8933 5.76609 16.9353C5.67894 16.9773 5.58242 16.9995 5.48438 17C5.3601 16.9986 5.23883 16.9641 5.13479 16.9004C4.02941 16.1858 3.10994 15.2477 2.44445 14.1556C2.39686 14.091 2.36407 14.0179 2.34813 13.9408C2.33219 13.8638 2.33345 13.7846 2.35183 13.708C2.3702 13.6315 2.4053 13.5593 2.45491 13.4961C2.50452 13.4328 2.56757 13.3799 2.64011 13.3405C2.71264 13.3012 2.79309 13.2763 2.8764 13.2674C2.9597 13.2586 3.04406 13.2659 3.12418 13.2891C3.2043 13.3122 3.27845 13.3505 3.34196 13.4018C3.40546 13.453 3.45697 13.5159 3.49322 13.5867C4.07398 14.5321 4.87384 15.3437 5.83397 15.9618C5.9661 16.0492 6.05612 16.1818 6.08457 16.3308C6.11302 16.4799 6.07759 16.6334 5.98597 16.7582ZM12.0886 1.56889C12.0886 1.41801 12.1527 1.27331 12.2667 1.16662C12.3807 1.05994 12.5354 1 12.6966 1C13.4972 1.00096 14.2836 1.19848 14.9771 1.57284C15.6705 1.9472 16.2469 2.48528 16.6485 3.13333C16.6889 3.19801 16.7151 3.26959 16.7255 3.34386C16.7359 3.41813 16.7303 3.4936 16.709 3.56582C16.6878 3.63804 16.6513 3.70556 16.6018 3.7644C16.5522 3.82324 16.4906 3.87221 16.4205 3.90844C16.3298 3.96225 16.2239 3.98949 16.1166 3.98667C16.0102 3.98632 15.9058 3.95986 15.8138 3.90995C15.7218 3.86004 15.6453 3.78841 15.5922 3.70222C15.2987 3.22662 14.8766 2.83167 14.3684 2.55706C13.8601 2.28245 13.2835 2.13784 12.6966 2.13778C12.5354 2.13778 12.3807 2.07784 12.2667 1.97115C12.1527 1.86447 12.0886 1.71977 12.0886 1.56889Z" fill="#4C0B84" stroke="#4C0B84" stroke-width="0.4"/>
</svg>
