<svg width="30" height="30" viewBox="0 0 30 30" fill="none" xmlns="http://www.w3.org/2000/svg">
<path d="M10.3803 1.53456C13.4191 0.821814 16.5817 0.821814 19.6205 1.53456C24.0093 2.56403 27.4367 5.99147 28.4662 10.3803C29.1789 13.4191 29.1789 16.5817 28.4662 19.6205C27.4367 24.0093 24.0093 27.4367 19.6205 28.4662C16.5817 29.1789 13.4191 29.1789 10.3803 28.4662C5.99148 27.4367 2.56403 24.0093 1.53456 19.6205C0.821815 16.5817 0.821813 13.4191 1.53456 10.3803C2.56403 5.99147 5.99148 2.56403 10.3803 1.53456Z" fill="white"/>
<path d="M10.3803 1.53456L10.2619 1.02973L10.2618 1.02974L10.3803 1.53456ZM19.6205 1.53456L19.7389 1.02974L19.7389 1.02973L19.6205 1.53456ZM28.4662 10.3803L28.971 10.2619L28.971 10.2618L28.4662 10.3803ZM28.4662 19.6205L28.971 19.7389L28.971 19.7389L28.4662 19.6205ZM19.6205 28.4662L19.7389 28.971L19.7389 28.971L19.6205 28.4662ZM10.3803 28.4662L10.2618 28.971L10.2619 28.971L10.3803 28.4662ZM1.53456 19.6205L1.02973 19.7389L1.02974 19.7389L1.53456 19.6205ZM1.53456 10.3803L1.02974 10.2618L1.02973 10.2619L1.53456 10.3803ZM10.3803 1.53456L10.4987 2.03938C13.4596 1.3449 16.5412 1.3449 19.5021 2.03938L19.6205 1.53456L19.7389 1.02973C16.6222 0.298723 13.3785 0.298724 10.2619 1.02973L10.3803 1.53456ZM19.6205 1.53456L19.5021 2.03938C23.6991 3.02388 26.9769 6.30161 27.9614 10.4987L28.4662 10.3803L28.971 10.2618C27.8966 5.68133 24.3194 2.10418 19.7389 1.02974L19.6205 1.53456ZM28.4662 10.3803L27.9614 10.4987C28.6559 13.4596 28.6559 16.5412 27.9614 19.5021L28.4662 19.6205L28.971 19.7389C29.702 16.6222 29.702 13.3785 28.971 10.2619L28.4662 10.3803ZM28.4662 19.6205L27.9614 19.5021C26.9769 23.6991 23.6991 26.9769 19.5021 27.9614L19.6205 28.4662L19.7389 28.971C24.3194 27.8966 27.8966 24.3194 28.971 19.7389L28.4662 19.6205ZM19.6205 28.4662L19.5021 27.9614C16.5412 28.6559 13.4596 28.6559 10.4987 27.9614L10.3803 28.4662L10.2619 28.971C13.3785 29.702 16.6222 29.702 19.7389 28.971L19.6205 28.4662ZM10.3803 28.4662L10.4987 27.9614C6.30162 26.9769 3.02388 23.6991 2.03938 19.5021L1.53456 19.6205L1.02974 19.7389C2.10418 24.3194 5.68133 27.8966 10.2618 28.971L10.3803 28.4662ZM1.53456 19.6205L2.03938 19.5021C1.34491 16.5412 1.3449 13.4596 2.03938 10.4987L1.53456 10.3803L1.02973 10.2619C0.298722 13.3785 0.298724 16.6222 1.02973 19.7389L1.53456 19.6205ZM1.53456 10.3803L2.03938 10.4987C3.02388 6.30162 6.30162 3.02388 10.4987 2.03938L10.3803 1.53456L10.2618 1.02974C5.68133 2.10418 2.10418 5.68133 1.02974 10.2618L1.53456 10.3803Z" fill="#DBD0DB"/>
<path d="M21.2492 19.6394C21.7045 20.0951 21.7045 20.8039 21.2492 21.2596C21.0216 21.4875 20.7434 21.5887 20.4399 21.5887C20.1364 21.5887 19.8583 21.4875 19.6306 21.2596L15.0024 16.6269L10.3741 21.2596C10.1465 21.4875 9.86829 21.5887 9.56479 21.5887C9.2613 21.5887 8.98311 21.4875 8.75549 21.2596C8.30025 20.8039 8.30025 20.0951 8.75549 19.6394L13.3837 15.0067L8.75549 10.3741C8.30025 9.91838 8.30025 9.20954 8.75549 8.75387C9.21073 8.29819 9.91886 8.29819 10.3741 8.75387L15.0024 13.3866L19.6306 8.75387C20.0859 8.29819 20.794 8.29819 21.2492 8.75387C21.7045 9.20954 21.7045 9.91838 21.2492 10.3741L16.621 15.0067L21.2492 19.6394Z" fill="#4C0B84"/>
</svg>
