<svg width="14" height="13" viewBox="0 0 14 13" fill="none" xmlns="http://www.w3.org/2000/svg">
<path d="M13.125 7C13.0101 6.99993 12.8963 7.02252 12.7901 7.06647C12.6839 7.11042 12.5874 7.17487 12.5061 7.25614C12.4249 7.3374 12.3604 7.43389 12.3165 7.54007C12.2725 7.64626 12.2499 7.76008 12.25 7.875V10.5H1.75V7.875C1.75 7.64294 1.65781 7.42038 1.49372 7.25628C1.32962 7.09219 1.10706 7 0.875 7C0.642936 7 0.420376 7.09219 0.256282 7.25628C0.0921874 7.42038 1.40658e-07 7.64294 1.40658e-07 7.875V11.375C-6.50389e-05 11.4899 0.022523 11.6037 0.0664728 11.7099C0.110423 11.8161 0.174872 11.9126 0.256136 11.9939C0.337401 12.0751 0.433886 12.1396 0.540075 12.1835C0.646264 12.2275 0.760075 12.2501 0.875 12.25H13.125C13.2399 12.2501 13.3537 12.2275 13.4599 12.1835C13.5661 12.1396 13.6626 12.0751 13.7439 11.9939C13.8251 11.9126 13.8896 11.8161 13.9335 11.7099C13.9775 11.6037 14.0001 11.4899 14 11.375V7.875C14.0001 7.76008 13.9775 7.64626 13.9335 7.54007C13.8896 7.43389 13.8251 7.3374 13.7439 7.25614C13.6626 7.17487 13.5661 7.11042 13.4599 7.06647C13.3537 7.02252 13.2399 6.99993 13.125 7Z" fill="#4B164C"/>
<path d="M6.38344 8.49366C6.46467 8.57492 6.56112 8.63939 6.66727 8.68338C6.77342 8.72736 6.88719 8.75 7.0021 8.75C7.117 8.75 7.23078 8.72736 7.33693 8.68338C7.44308 8.63939 7.53952 8.57492 7.62075 8.49366L10.2458 5.86865C10.4091 5.70442 10.5006 5.48212 10.5003 5.2505C10.5 5.01889 10.4078 4.79684 10.244 4.63307C10.0803 4.46929 9.85821 4.37713 9.62659 4.37681C9.39497 4.37649 9.17268 4.46802 9.00844 4.63135L7.8771 5.76269V0.875C7.8771 0.642936 7.78491 0.420376 7.62082 0.256282C7.45672 0.0921873 7.23416 0 7.0021 0C6.77003 0 6.54747 0.0921873 6.38338 0.256282C6.21928 0.420376 6.1271 0.642936 6.1271 0.875V5.76269L4.99575 4.63135C4.83152 4.46802 4.60922 4.37649 4.3776 4.37681C4.14598 4.37713 3.92394 4.46929 3.76016 4.63307C3.59638 4.79684 3.50423 5.01889 3.50391 5.2505C3.50358 5.48212 3.59512 5.70442 3.75844 5.86865L6.38344 8.49366Z" fill="#4B164C"/>
</svg>
