<svg width="14" height="14" viewBox="0 0 14 14" fill="none" xmlns="http://www.w3.org/2000/svg">
<path d="M13.3361 0.607895C12.5255 -0.202632 11.1255 -0.202632 10.2413 0.607895L4.27289 6.42895C3.7571 6.94474 3.38868 7.60789 3.24131 8.34474L2.94658 9.96579C2.87289 10.1868 2.94658 10.4816 3.16763 10.6289C3.315 10.7763 3.46237 10.85 3.68342 10.85C3.7571 10.85 3.7571 10.85 3.83079 10.85L5.45184 10.5553C6.18868 10.4079 6.85184 10.0395 7.36763 9.52368L13.3361 3.62895C13.7782 3.26053 13.9992 2.67105 13.9992 2.08158C13.9992 1.49211 13.7782 0.976316 13.3361 0.607895ZM6.40973 8.41842C6.115 8.71316 5.67289 8.93421 5.23079 9.00789L4.64131 9.15526L4.78868 8.63947C4.86237 8.19737 5.08342 7.82895 5.45184 7.46053L10.0203 2.96579L11.0518 3.92368L6.40973 8.41842ZM12.3045 2.59737L12.0097 2.89211L10.9782 1.93421L11.2729 1.63947C11.4203 1.49211 11.6413 1.41842 11.7887 1.41842C12.0097 1.41842 12.1571 1.49211 12.3045 1.63947C12.4518 1.78684 12.5255 1.93421 12.5255 2.08158C12.5255 2.22895 12.5255 2.45 12.3045 2.59737Z" fill="#4B164C"/>
<path d="M12.5263 5.76561C12.0842 5.76561 11.7895 6.06034 11.7895 6.50245V10.2603C11.7895 11.513 10.8316 12.4709 9.57895 12.4709H3.68421C2.43158 12.4709 1.47368 11.513 1.47368 10.2603V4.36561C1.47368 3.11298 2.43158 2.15508 3.68421 2.15508H7.36842C7.81053 2.15508 8.10526 1.86034 8.10526 1.41824C8.10526 0.976133 7.81053 0.681396 7.36842 0.681396H3.68421C1.62105 0.681396 0 2.30245 0 4.36561V10.2603C0 12.3235 1.62105 13.9446 3.68421 13.9446H9.57895C11.6421 13.9446 13.2632 12.3235 13.2632 10.2603V6.50245C13.2632 6.13403 12.9684 5.76561 12.5263 5.76561Z" fill="#4B164C"/>
</svg>
