<svg width="26" height="21" viewBox="0 0 26 21" fill="none" xmlns="http://www.w3.org/2000/svg">
<g opacity="0.6">
<path d="M21 0H4.2C3.08609 0 2.0178 0.442499 1.23015 1.23015C0.442499 2.0178 0 3.08609 0 4.2L0 16.8C0 17.9139 0.442499 18.9822 1.23015 19.7698C2.0178 20.5575 3.08609 21 4.2 21H21C22.1139 21 23.1822 20.5575 23.9698 19.7698C24.7575 18.9822 25.2 17.9139 25.2 16.8V4.2C25.2 3.08609 24.7575 2.0178 23.9698 1.23015C23.1822 0.442499 22.1139 0 21 0ZM23.1 16.8C23.1 17.357 22.8787 17.8911 22.4849 18.2849C22.0911 18.6787 21.557 18.9 21 18.9H4.2C3.64305 18.9 3.1089 18.6787 2.71508 18.2849C2.32125 17.8911 2.1 17.357 2.1 16.8V4.2C2.1 3.64304 2.32125 3.1089 2.71508 2.71508C3.1089 2.32125 3.64305 2.1 4.2 2.1H21C21.557 2.1 22.0911 2.32125 22.4849 2.71508C22.8787 3.1089 23.1 3.64304 23.1 4.2V16.8Z" fill="#4B164C"/>
<path d="M20.7279 5.26806C20.6351 5.16599 20.5232 5.0832 20.3984 5.02442C20.2736 4.96564 20.1384 4.93203 20.0007 4.92549C19.8629 4.91896 19.7252 4.93964 19.5954 4.98635C19.4656 5.03305 19.3463 5.10488 19.2443 5.19771L14.0184 9.95316C13.6307 10.3062 13.1253 10.5019 12.6009 10.5019C12.0766 10.5019 11.5711 10.3062 11.1834 9.95316L5.95757 5.19771C5.75149 5.01029 5.47941 4.91242 5.20117 4.92561C4.92293 4.9388 4.66133 5.06199 4.47392 5.26806C4.2865 5.47413 4.18862 5.74622 4.20182 6.02445C4.20835 6.16222 4.24195 6.29736 4.30071 6.42214C4.35947 6.54692 4.44223 6.65891 4.54427 6.75171L8.69912 10.5317L4.54532 14.3012C4.43871 14.3926 4.35152 14.5044 4.28891 14.6301C4.22629 14.7558 4.18951 14.8927 4.18075 15.0329C4.172 15.173 4.19144 15.3135 4.23792 15.446C4.28441 15.5785 4.357 15.7003 4.45139 15.8043C4.54579 15.9082 4.66008 15.9922 4.78749 16.0512C4.9149 16.1102 5.05286 16.143 5.19319 16.1478C5.33352 16.1525 5.47338 16.1291 5.60449 16.0788C5.73561 16.0286 5.85531 15.9525 5.95652 15.8552L10.3067 11.9072C10.986 12.3604 11.7843 12.6023 12.6009 12.6023C13.4175 12.6023 14.2159 12.3604 14.8952 11.9072L19.2453 15.8552C19.3465 15.9525 19.4662 16.0286 19.5973 16.0788C19.7284 16.1291 19.8683 16.1525 20.0086 16.1478C20.149 16.143 20.2869 16.1102 20.4143 16.0512C20.5418 15.9922 20.656 15.9082 20.7504 15.8043C20.8448 15.7003 20.9174 15.5785 20.9639 15.446C21.0104 15.3135 21.0298 15.173 21.0211 15.0329C21.0123 14.8927 20.9755 14.7558 20.9129 14.6301C20.8503 14.5044 20.7631 14.3926 20.6565 14.3012L16.5038 10.5307L20.6576 6.75066C20.8634 6.56332 20.9864 6.30192 20.9996 6.02392C21.0128 5.74592 20.9151 5.47405 20.7279 5.26806Z" fill="#4B164C"/>
</g>
</svg>
