<svg width="13" height="12" viewBox="0 0 13 12" fill="none" xmlns="http://www.w3.org/2000/svg">
<path d="M1.87116 10.6455H11.1523C11.303 10.6455 11.4512 10.609 11.5823 10.5398C11.7134 10.4705 11.8229 10.3707 11.9002 10.2502C11.9775 10.1298 12.0199 9.99266 12.0232 9.85235C12.0266 9.71205 11.9908 9.57334 11.9193 9.44977L7.27902 1.42663C6.94983 0.857789 6.07361 0.857789 5.74442 1.42663L1.10413 9.44977C1.03267 9.57334 0.996865 9.71205 1.00022 9.85235C1.00357 9.99266 1.04596 10.1298 1.12325 10.2502C1.20054 10.3707 1.31008 10.4705 1.44117 10.5398C1.57226 10.609 1.72042 10.6455 1.87116 10.6455Z" stroke="#F42500" stroke-width="1.2" stroke-linecap="round" stroke-linejoin="round"/>
<path d="M6.35167 4.28658L6.50796 7.37923L6.66398 4.28785C6.66494 4.26808 6.66157 4.24835 6.65406 4.22984C6.64655 4.21133 6.63507 4.19444 6.62031 4.18021C6.60556 4.16597 6.58784 4.15469 6.56824 4.14704C6.54864 4.1394 6.52757 4.13556 6.50633 4.13575C6.48545 4.13594 6.46482 4.14002 6.44567 4.14776C6.42652 4.15549 6.40922 4.16672 6.3948 4.18078C6.38039 4.19484 6.36914 4.21144 6.36173 4.22961C6.35433 4.24779 6.3509 4.26715 6.35167 4.28658Z" stroke="#F42500" stroke-width="1.2" stroke-linecap="round" stroke-linejoin="round"/>
<path d="M6.52113 9.40363C6.41343 9.40363 6.30814 9.3739 6.21859 9.31819C6.12903 9.26248 6.05923 9.1833 6.01802 9.09066C5.9768 8.99802 5.96601 8.89608 5.98703 8.79773C6.00804 8.69938 6.0599 8.60905 6.13606 8.53814C6.21222 8.46724 6.30926 8.41895 6.41489 8.39939C6.52053 8.37983 6.63002 8.38987 6.72953 8.42824C6.82904 8.46661 6.91409 8.5316 6.97393 8.61497C7.03377 8.69834 7.0657 8.79637 7.0657 8.89664C7.0657 9.0311 7.00833 9.16006 6.9062 9.25514C6.80408 9.35022 6.66556 9.40363 6.52113 9.40363Z" fill="#F42500"/>
</svg>
