<svg width="18" height="18" viewBox="0 0 18 18" fill="none" xmlns="http://www.w3.org/2000/svg">
<path d="M14.3333 2.33333H13.6667V1.66667C13.6667 1.48986 13.5964 1.32029 13.4714 1.19526C13.3464 1.07024 13.1768 1 13 1C12.8232 1 12.6536 1.07024 12.5286 1.19526C12.4036 1.32029 12.3333 1.48986 12.3333 1.66667V2.33333H5.66667V1.66667C5.66667 1.48986 5.59643 1.32029 5.4714 1.19526C5.34638 1.07024 5.17681 1 5 1C4.82319 1 4.65362 1.07024 4.5286 1.19526C4.40357 1.32029 4.33333 1.48986 4.33333 1.66667V2.33333H3.66667C2.95942 2.33333 2.28115 2.61428 1.78105 3.11438C1.28095 3.61448 1 4.29276 1 5L1 14.3333C1 15.0406 1.28095 15.7189 1.78105 16.219C2.28115 16.719 2.95942 17 3.66667 17H14.3333C15.0406 17 15.7189 16.719 16.219 16.219C16.719 15.7189 17 15.0406 17 14.3333V5C17 4.29276 16.719 3.61448 16.219 3.11438C15.7189 2.61428 15.0406 2.33333 14.3333 2.33333ZM15.6667 14.3333C15.6667 14.687 15.5262 15.0261 15.2761 15.2761C15.0261 15.5262 14.687 15.6667 14.3333 15.6667H3.66667C3.31304 15.6667 2.97391 15.5262 2.72386 15.2761C2.47381 15.0261 2.33333 14.687 2.33333 14.3333V5C2.33333 4.64638 2.47381 4.30724 2.72386 4.05719C2.97391 3.80714 3.31304 3.66667 3.66667 3.66667H4.33333V4.33333C4.33333 4.51014 4.40357 4.67971 4.5286 4.80474C4.65362 4.92976 4.82319 5 5 5C5.17681 5 5.34638 4.92976 5.4714 4.80474C5.59643 4.67971 5.66667 4.51014 5.66667 4.33333V3.66667H12.3333V4.33333C12.3333 4.51014 12.4036 4.67971 12.5286 4.80474C12.6536 4.92976 12.8232 5 13 5C13.1768 5 13.3464 4.92976 13.4714 4.80474C13.5964 4.67971 13.6667 4.51014 13.6667 4.33333V3.66667H14.3333C14.687 3.66667 15.0261 3.80714 15.2761 4.05719C15.5262 4.30724 15.6667 4.64638 15.6667 5V14.3333Z" fill="#4C0B84" stroke="#4C0B84" stroke-width="0.2"/>
<path d="M13.667 5.6665H4.33366C4.15685 5.6665 3.98728 5.73674 3.86225 5.86177C3.73723 5.98679 3.66699 6.15636 3.66699 6.33317C3.66699 6.50998 3.73723 6.67955 3.86225 6.80457C3.98728 6.9296 4.15685 6.99984 4.33366 6.99984H13.667C13.8438 6.99984 14.0134 6.9296 14.1384 6.80457C14.2634 6.67955 14.3337 6.50998 14.3337 6.33317C14.3337 6.15636 14.2634 5.98679 14.1384 5.86177C14.0134 5.73674 13.8438 5.6665 13.667 5.6665Z" fill="#4C0B84" stroke="#4C0B84" stroke-width="0.2"/>
<path d="M5.66699 9H4.33366C4.15685 9 3.98728 9.07024 3.86225 9.19526C3.73723 9.32029 3.66699 9.48986 3.66699 9.66667C3.66699 9.84348 3.73723 10.013 3.86225 10.1381C3.98728 10.2631 4.15685 10.3333 4.33366 10.3333H5.66699C5.8438 10.3333 6.01337 10.2631 6.1384 10.1381C6.26342 10.013 6.33366 9.84348 6.33366 9.66667C6.33366 9.48986 6.26342 9.32029 6.1384 9.19526C6.01337 9.07024 5.8438 9 5.66699 9Z" fill="#4C0B84" stroke="#4C0B84" stroke-width="0.2"/>
<path d="M5.66699 12.3335H4.33366C4.15685 12.3335 3.98728 12.4037 3.86225 12.5288C3.73723 12.6538 3.66699 12.8234 3.66699 13.0002C3.66699 13.177 3.73723 13.3465 3.86225 13.4716C3.98728 13.5966 4.15685 13.6668 4.33366 13.6668H5.66699C5.8438 13.6668 6.01337 13.5966 6.1384 13.4716C6.26342 13.3465 6.33366 13.177 6.33366 13.0002C6.33366 12.8234 6.26342 12.6538 6.1384 12.5288C6.01337 12.4037 5.8438 12.3335 5.66699 12.3335Z" fill="#4C0B84" stroke="#4C0B84" stroke-width="0.2"/>
<path d="M9.66699 9H8.33366C8.15685 9 7.98728 9.07024 7.86225 9.19526C7.73723 9.32029 7.66699 9.48986 7.66699 9.66667C7.66699 9.84348 7.73723 10.013 7.86225 10.1381C7.98728 10.2631 8.15685 10.3333 8.33366 10.3333H9.66699C9.8438 10.3333 10.0134 10.2631 10.1384 10.1381C10.2634 10.013 10.3337 9.84348 10.3337 9.66667C10.3337 9.48986 10.2634 9.32029 10.1384 9.19526C10.0134 9.07024 9.8438 9 9.66699 9Z" fill="#4C0B84" stroke="#4C0B84" stroke-width="0.2"/>
<path d="M9.66699 12.3335H8.33366C8.15685 12.3335 7.98728 12.4037 7.86225 12.5288C7.73723 12.6538 7.66699 12.8234 7.66699 13.0002C7.66699 13.177 7.73723 13.3465 7.86225 13.4716C7.98728 13.5966 8.15685 13.6668 8.33366 13.6668H9.66699C9.8438 13.6668 10.0134 13.5966 10.1384 13.4716C10.2634 13.3465 10.3337 13.177 10.3337 13.0002C10.3337 12.8234 10.2634 12.6538 10.1384 12.5288C10.0134 12.4037 9.8438 12.3335 9.66699 12.3335Z" fill="#4C0B84" stroke="#4C0B84" stroke-width="0.2"/>
<path d="M13.667 9H12.3337C12.1568 9 11.9873 9.07024 11.8623 9.19526C11.7372 9.32029 11.667 9.48986 11.667 9.66667C11.667 9.84348 11.7372 10.013 11.8623 10.1381C11.9873 10.2631 12.1568 10.3333 12.3337 10.3333H13.667C13.8438 10.3333 14.0134 10.2631 14.1384 10.1381C14.2634 10.013 14.3337 9.84348 14.3337 9.66667C14.3337 9.48986 14.2634 9.32029 14.1384 9.19526C14.0134 9.07024 13.8438 9 13.667 9Z" fill="#4C0B84" stroke="#4C0B84" stroke-width="0.2"/>
<path d="M13.667 12.3335H12.3337C12.1568 12.3335 11.9873 12.4037 11.8623 12.5288C11.7372 12.6538 11.667 12.8234 11.667 13.0002C11.667 13.177 11.7372 13.3465 11.8623 13.4716C11.9873 13.5966 12.1568 13.6668 12.3337 13.6668H13.667C13.8438 13.6668 14.0134 13.5966 14.1384 13.4716C14.2634 13.3465 14.3337 13.177 14.3337 13.0002C14.3337 12.8234 14.2634 12.6538 14.1384 12.5288C14.0134 12.4037 13.8438 12.3335 13.667 12.3335Z" fill="#4C0B84" stroke="#4C0B84" stroke-width="0.2"/>
</svg>
