<svg width="14" height="14" viewBox="0 0 14 14" fill="none" xmlns="http://www.w3.org/2000/svg">
<path d="M2.98731 7.87502H9.625C9.85706 7.87502 10.0796 7.78284 10.2437 7.61874C10.4078 7.45465 10.5 7.23209 10.5 7.00002C10.5 6.76796 10.4078 6.5454 10.2437 6.3813C10.0796 6.21721 9.85706 6.12502 9.625 6.12502H2.98731L4.11865 4.99368C4.28198 4.82944 4.37351 4.60715 4.37319 4.37553C4.37287 4.14391 4.28071 3.92187 4.11693 3.75809C3.95315 3.59431 3.73111 3.50215 3.49949 3.50183C3.26787 3.50151 3.04558 3.59304 2.88134 3.75637L0.256344 6.38137C0.175076 6.4626 0.110608 6.55904 0.0666233 6.66519C0.0226389 6.77134 0 6.88512 0 7.00002C0 7.11493 0.0226389 7.2287 0.0666233 7.33485C0.110608 7.441 0.175076 7.53745 0.256344 7.61868L2.88134 10.2437C2.96251 10.3253 3.05897 10.3901 3.16522 10.4344C3.27147 10.4786 3.3854 10.5015 3.5005 10.5017C3.6156 10.5018 3.7296 10.4793 3.83597 10.4353C3.94234 10.3913 4.03899 10.3268 4.12038 10.2454C4.20176 10.164 4.26629 10.0674 4.31027 9.961C4.35424 9.85463 4.37679 9.74063 4.37663 9.62553C4.37647 9.51043 4.3536 9.39649 4.30933 9.29024C4.26506 9.184 4.20027 9.08753 4.11865 9.00637L2.98731 7.87502Z" fill="#4B164C"/>
<path d="M13.125 1.40658e-07H6.125C6.01008 -6.50389e-05 5.89626 0.022523 5.79007 0.0664728C5.68389 0.110423 5.5874 0.174872 5.50614 0.256136C5.42487 0.337401 5.36042 0.433886 5.31647 0.540075C5.27252 0.646264 5.24993 0.760075 5.25 0.875V2.625C5.25 2.85706 5.34219 3.07962 5.50628 3.24372C5.67038 3.40781 5.89294 3.5 6.125 3.5C6.35706 3.5 6.57962 3.40781 6.74372 3.24372C6.90781 3.07962 7 2.85706 7 2.625V1.75H12.25V12.25H7V11.375C7 11.1429 6.90781 10.9204 6.74372 10.7563C6.57962 10.5922 6.35706 10.5 6.125 10.5C5.89294 10.5 5.67038 10.5922 5.50628 10.7563C5.34219 10.9204 5.25 11.1429 5.25 11.375V13.125C5.24993 13.2399 5.27252 13.3537 5.31647 13.4599C5.36042 13.5661 5.42487 13.6626 5.50614 13.7439C5.5874 13.8251 5.68389 13.8896 5.79007 13.9335C5.89626 13.9775 6.01008 14.0001 6.125 14H13.125C13.2399 14.0001 13.3537 13.9775 13.4599 13.9335C13.5661 13.8896 13.6626 13.8251 13.7439 13.7439C13.8251 13.6626 13.8896 13.5661 13.9335 13.4599C13.9775 13.3537 14.0001 13.2399 14 13.125V0.875C14.0001 0.760075 13.9775 0.646264 13.9335 0.540075C13.8896 0.433886 13.8251 0.337401 13.7439 0.256136C13.6626 0.174872 13.5661 0.110423 13.4599 0.0664728C13.3537 0.022523 13.2399 -6.50389e-05 13.125 1.40658e-07Z" fill="#4B164C"/>
</svg>
