<svg width="36" height="36" viewBox="0 0 36 36" fill="none" xmlns="http://www.w3.org/2000/svg">
<path d="M27.1039 26.2817C26.9962 26.3897 26.8681 26.4753 26.7272 26.5337C26.5862 26.5921 26.4351 26.622 26.2825 26.6217L24.6398 26.6217C24.4872 26.6218 24.3362 26.5918 24.1952 26.5335C24.0543 26.4751 23.9262 26.3896 23.8183 26.2817C23.7105 26.1739 23.6249 26.0458 23.5666 25.9048C23.5082 25.7639 23.4782 25.6128 23.4783 25.4603L23.4782 22.9239C23.4784 21.4679 23.1917 20.0261 22.6345 18.6809C22.0774 17.3357 21.2607 16.1134 20.2312 15.0839C19.2016 14.0543 17.9793 13.2376 16.6341 12.6805C15.2889 12.1234 13.8471 11.8367 12.3911 11.8368L9.85474 11.8367C9.70219 11.8368 9.55113 11.8068 9.41018 11.7484C9.26923 11.6901 9.14117 11.6045 9.0333 11.4967C8.92543 11.3888 8.83988 11.2607 8.78153 11.1198C8.72318 10.9788 8.69318 10.8278 8.69324 10.6752L8.69324 9.03246C8.69325 8.72442 8.81562 8.42899 9.03345 8.21118C9.25127 7.99337 9.5467 7.87101 9.85474 7.87101C10.1628 7.87102 10.4582 7.99339 10.676 8.21122C10.8938 8.42904 11.0162 8.72447 11.0162 9.03251L11.0163 9.51377L12.3911 9.51377C14.1522 9.51357 15.8961 9.8603 17.5232 10.5342C19.1503 11.208 20.6287 12.1958 21.874 13.4411C23.1193 14.6864 24.107 16.1648 24.7809 17.7919C25.4547 19.4189 25.8015 21.1628 25.8013 22.9239L25.8013 24.2988L26.2825 24.2989C26.5122 24.2989 26.7368 24.367 26.9278 24.4947C27.1188 24.6223 27.2676 24.8037 27.3555 25.0159C27.4435 25.2281 27.4665 25.4617 27.4217 25.687C27.3769 25.9123 27.2663 26.1192 27.1039 26.2817Z" fill="#A58AA5"/>
<path d="M25.4626 11.4968L14.7845 22.1749C14.5666 22.3928 14.2712 22.5151 13.9631 22.5151C13.655 22.5151 13.3595 22.3928 13.1417 22.1749C12.9239 21.9571 12.8015 21.6616 12.8015 21.3535C12.8015 21.0454 12.9239 20.75 13.1417 20.5321L23.8198 9.85405C24.0376 9.63621 24.3331 9.51382 24.6412 9.51382C24.9492 9.51382 25.2447 9.63621 25.4626 9.85405C25.6804 10.0719 25.8028 10.3674 25.8028 10.6754C25.8028 10.9835 25.6804 11.279 25.4626 11.4968Z" fill="#A58AA5"/>
<path d="M26.2819 13.9617C26.1194 14.1241 25.9124 14.2347 25.6871 14.2795C25.4618 14.3243 25.2283 14.3012 25.0161 14.2133C24.8039 14.1254 24.6225 13.9766 24.4948 13.7856C24.3672 13.5946 24.2991 13.37 24.299 13.1403L24.2989 11.0163L22.1749 11.0162C21.8678 11.0148 21.5738 10.8918 21.3572 10.6741C21.1405 10.4564 21.0189 10.1618 21.0189 9.85476C21.0189 9.54766 21.1405 9.25307 21.3572 9.03541C21.5738 8.81775 21.8678 8.69475 22.1749 8.69331L25.4605 8.69331C25.613 8.69325 25.7641 8.72325 25.905 8.78159C26.046 8.83994 26.174 8.92549 26.2819 9.03335C26.3897 9.14121 26.4753 9.26928 26.5336 9.41022C26.592 9.55116 26.622 9.70222 26.6219 9.85476L26.6219 13.1403C26.6222 13.2929 26.5922 13.444 26.5339 13.5849C26.4755 13.7259 26.3899 13.854 26.2819 13.9617Z" fill="#A58AA5"/>
<path d="M21.3561 26.2822C21.2483 26.3902 21.1203 26.4759 20.9793 26.5342C20.8383 26.5926 20.6872 26.6225 20.5347 26.6223L9.85659 26.6223C9.70405 26.6223 9.55299 26.5923 9.41205 26.534C9.2711 26.4757 9.14304 26.3901 9.03518 26.2822C8.92731 26.1744 8.84176 26.0463 8.78342 25.9054C8.72507 25.7644 8.69508 25.6134 8.69515 25.4608L8.69515 14.7828C8.69415 14.6296 8.72346 14.4778 8.78139 14.336C8.83931 14.1942 8.9247 14.0653 9.03265 13.9566C9.1406 13.848 9.26897 13.7617 9.41038 13.7029C9.55178 13.6441 9.70343 13.6138 9.85659 13.6138C10.0098 13.6138 10.1614 13.6441 10.3028 13.7029C10.4442 13.7617 10.5726 13.848 10.6805 13.9566C10.7885 14.0653 10.8739 14.1942 10.9318 14.336C10.9897 14.4778 11.019 14.6296 11.018 14.7828L11.0181 24.2993L20.5347 24.2994C20.7644 24.2994 20.9889 24.3676 21.1799 24.4952C21.3709 24.6228 21.5198 24.8042 21.6077 25.0164C21.6956 25.2287 21.7186 25.4622 21.6738 25.6875C21.629 25.9128 21.5184 26.1198 21.3561 26.2822Z" fill="#A58AA5"/>
</svg>
