<svg width="32" height="15" viewBox="0 0 32 15" fill="none" xmlns="http://www.w3.org/2000/svg">
<path d="M31.5395 0.761308C31.3783 0.552499 31.1766 0.378461 30.9464 0.24967C30.7162 0.120878 30.4623 0.039998 30.2001 0.0118985C29.9378 -0.016201 29.6726 0.00906103 29.4203 0.0861639C29.1681 0.163267 28.9341 0.290616 28.7323 0.460544C26.627 2.16487 24.7221 3.36793 22.8173 3.96945C20.9125 4.67124 18.7069 4.972 16 4.972C13.2931 4.972 11.0875 4.67124 9.18269 3.96945C7.27785 3.26767 5.37302 2.16487 3.26767 0.460544C2.36538 -0.241238 1.16233 -0.140983 0.460544 0.761308C-0.241238 1.6636 -0.140983 2.86665 0.761308 3.56844C2.06772 4.67122 3.47787 5.64489 4.972 6.47582L3.26767 9.3832C2.7664 10.3857 3.06716 11.5888 3.96945 12.0901C4.972 12.5913 6.17505 12.2906 6.67633 11.3883L8.58116 8.07989C10.3424 8.59923 12.1604 8.90222 13.9949 8.98218V12.5913C13.9949 13.1231 14.2062 13.6331 14.5822 14.0092C14.9582 14.3852 15.4682 14.5964 16 14.5964C16.5318 14.5964 17.0418 14.3852 17.4178 14.0092C17.7938 13.6331 18.0051 13.1231 18.0051 12.5913V8.98218C19.9851 8.886 21.9421 8.51485 23.8199 7.87938L25.8249 11.3883C26.0908 11.8403 26.5254 12.1682 27.033 12.2998C27.2844 12.365 27.5461 12.38 27.8033 12.344C28.0604 12.308 28.308 12.2217 28.5318 12.0901C28.7556 11.9584 28.9513 11.784 29.1077 11.5767C29.2641 11.3694 29.3782 11.1333 29.4433 10.882C29.5085 10.6306 29.5235 10.3689 29.4875 10.1117C29.4515 9.85457 29.3653 9.60701 29.2336 9.3832L27.429 6.27531C28.7902 5.50894 30.0671 4.60167 31.2387 3.56844C32.141 2.86665 32.2412 1.6636 31.5395 0.761308Z" fill="white"/>
</svg>
