<svg xmlns="http://www.w3.org/2000/svg" fill="none" viewBox="17.77 12.77 30.47 30.47">
<g filter="url(#filter0_d_1015_4)">
<rect x="18" y="13" width="30" height="30" rx="8" fill="#FFF3F3"/>
<rect x="18" y="13" width="30" height="30" rx="8" stroke="#F42500" stroke-width="0.46875"/>
</g>
<path d="M26.2644 35H39.7356C39.9543 35 40.1694 34.9471 40.3597 34.8465C40.5499 34.746 40.7089 34.6012 40.8211 34.4263C40.9333 34.2514 40.9948 34.0524 40.9997 33.8488C41.0046 33.6451 40.9526 33.4438 40.8489 33.2644L34.1137 21.6192C33.6359 20.7936 32.3641 20.7936 31.8863 21.6192L25.1511 33.2644C25.0474 33.4438 24.9954 33.6451 25.0003 33.8488C25.0052 34.0524 25.0667 34.2514 25.1789 34.4263C25.2911 34.6012 25.4501 34.746 25.6403 34.8465C25.8306 34.9471 26.0457 35 26.2644 35Z" stroke="#F42500" stroke-width="1.26467" stroke-linecap="round" stroke-linejoin="round"/>
<path d="M32.7658 25.7697L32.9926 30.2585L33.2191 25.7716C33.2205 25.7429 33.2156 25.7142 33.2047 25.6874C33.1938 25.6605 33.1771 25.636 33.1557 25.6153C33.1343 25.5947 33.1086 25.5783 33.0801 25.5672C33.0517 25.5561 33.0211 25.5505 32.9903 25.5508C32.96 25.5511 32.93 25.557 32.9022 25.5682C32.8744 25.5794 32.8493 25.5957 32.8284 25.6161C32.8075 25.6366 32.7911 25.6607 32.7804 25.687C32.7696 25.7134 32.7647 25.7415 32.7658 25.7697Z" stroke="#F42500" stroke-width="1.26467" stroke-linecap="round" stroke-linejoin="round"/>
<path d="M33.0092 33.1973C32.8528 33.1973 32.7 33.1542 32.57 33.0733C32.4401 32.9925 32.3387 32.8775 32.2789 32.7431C32.2191 32.6086 32.2034 32.4606 32.2339 32.3179C32.2644 32.1752 32.3397 32.044 32.4503 31.9411C32.5608 31.8382 32.7016 31.7681 32.855 31.7397C33.0083 31.7113 33.1672 31.7259 33.3116 31.7816C33.4561 31.8373 33.5795 31.9316 33.6664 32.0526C33.7532 32.1736 33.7996 32.3159 33.7996 32.4615C33.7996 32.6566 33.7163 32.8438 33.5681 32.9818C33.4198 33.1198 33.2188 33.1973 33.0092 33.1973Z" fill="#F42500"/>
<defs>
<filter id="filter0_d_1015_4" x="0.265623" y="0.265623" width="65.4688" height="65.4688" filterUnits="userSpaceOnUse" color-interpolation-filters="sRGB">
<feFlood flood-opacity="0" result="BackgroundImageFix"/>
<feColorMatrix in="SourceAlpha" type="matrix" values="0 0 0 0 0 0 0 0 0 0 0 0 0 0 0 0 0 0 127 0" result="hardAlpha"/>
<feOffset dy="5"/>
<feGaussianBlur stdDeviation="8.75"/>
<feColorMatrix type="matrix" values="0 0 0 0 0.341578 0 0 0 0 0.361613 0 0 0 0 0.541927 0 0 0 0.06 0"/>
<feBlend mode="normal" in2="BackgroundImageFix" result="effect1_dropShadow_1015_4"/>
<feBlend mode="normal" in="SourceGraphic" in2="effect1_dropShadow_1015_4" result="shape"/>
</filter>
</defs>
</svg>