<svg width="17" height="18" viewBox="0 0 17 18" fill="none" xmlns="http://www.w3.org/2000/svg">
<path d="M11.7522 3.41684C11.9455 3.52663 12.1745 3.55548 12.389 3.49711C12.6036 3.43874 12.7863 3.29788 12.8974 3.10526C12.9893 2.94304 13.1325 2.81591 13.3045 2.74381C13.4764 2.67172 13.6675 2.65874 13.8476 2.7069C14.0277 2.75506 14.1868 2.86165 14.2998 3.00995C14.4128 3.15824 14.4735 3.33986 14.4722 3.52632C14.4722 3.74966 14.3834 3.96385 14.2255 4.12177C14.0676 4.2797 13.8534 4.36842 13.6301 4.36842C13.4067 4.36842 13.1925 4.45714 13.0346 4.61507C12.8767 4.77299 12.7879 4.98719 12.7879 5.21053C12.7879 5.43387 12.8767 5.64806 13.0346 5.80598C13.1925 5.96391 13.4067 6.05263 13.6301 6.05263C14.0734 6.05235 14.509 5.93537 14.8928 5.71346C15.2767 5.49155 15.5954 5.17252 15.8169 4.78842C16.0384 4.40433 16.1549 3.9687 16.1547 3.5253C16.1546 3.08191 16.0377 2.64637 15.8159 2.26246C15.5941 1.87854 15.2751 1.55976 14.8911 1.33816C14.507 1.11655 14.0714 0.999929 13.628 1C13.1846 1.00007 12.7491 1.11684 12.3651 1.33856C11.9811 1.56029 11.6623 1.87917 11.4406 2.26316C11.3849 2.35927 11.3488 2.46545 11.3343 2.57558C11.3198 2.68571 11.3273 2.79761 11.3563 2.90484C11.3852 3.01208 11.4351 3.11252 11.5031 3.20039C11.571 3.28827 11.6557 3.36183 11.7522 3.41684ZM15.3732 9.42105C15.1522 9.39236 14.9288 9.45248 14.752 9.58824C14.5752 9.72399 14.4594 9.9243 14.4301 10.1453C14.2533 11.5728 13.5608 12.8864 12.4828 13.8387C11.4048 14.7911 10.0158 15.3164 8.57742 15.3158H3.87005L4.41742 14.7684C4.57426 14.6106 4.6623 14.3972 4.6623 14.1747C4.6623 13.9523 4.57426 13.7388 4.41742 13.5811C3.59632 12.7567 3.03753 11.7079 2.81144 10.5665C2.58534 9.42523 2.70204 8.24254 3.14685 7.16744C3.59166 6.09233 4.34468 5.1729 5.31105 4.52496C6.27743 3.87702 7.41394 3.52955 8.57742 3.52632C8.80076 3.52632 9.01495 3.43759 9.17288 3.27967C9.3308 3.12174 9.41953 2.90755 9.41953 2.68421C9.41953 2.46087 9.3308 2.24668 9.17288 2.08875C9.01495 1.93083 8.80076 1.8421 8.57742 1.8421C7.15361 1.84804 5.76028 2.25494 4.55704 3.01616C3.3538 3.77739 2.38932 4.86217 1.77411 6.14621C1.15889 7.43025 0.917819 8.86163 1.07851 10.2763C1.2392 11.6911 1.79516 13.0319 2.68268 14.1453L1.24268 15.56C1.12583 15.6784 1.04668 15.8288 1.01521 15.9922C0.983734 16.1555 1.00135 16.3245 1.06584 16.4779C1.12902 16.6317 1.2363 16.7633 1.37417 16.8562C1.51204 16.9491 1.67433 16.9992 1.84058 17H8.57742C10.4229 17.0002 12.205 16.3272 13.5895 15.107C14.974 13.8868 15.8657 12.2035 16.0974 10.3726C16.1128 10.2625 16.1063 10.1505 16.0781 10.0429C16.05 9.93536 16.0009 9.83444 15.9335 9.74598C15.8662 9.65751 15.782 9.58325 15.6859 9.52748C15.5897 9.47172 15.4834 9.43554 15.3732 9.42105ZM13.9501 6.95368C13.7967 6.88586 13.6267 6.86533 13.4616 6.89474L13.3101 6.94526L13.1585 7.02105L13.0322 7.13053C12.9564 7.20813 12.8964 7.29963 12.8553 7.4C12.8055 7.50504 12.7824 7.62073 12.7879 7.73684C12.7855 7.84915 12.8055 7.96082 12.8469 8.06526C12.8904 8.16633 12.9534 8.25788 13.0322 8.33474C13.1108 8.41278 13.2042 8.47453 13.3068 8.51644C13.4094 8.55834 13.5192 8.57959 13.6301 8.57895C13.8534 8.57895 14.0676 8.49022 14.2255 8.3323C14.3834 8.17437 14.4722 7.96018 14.4722 7.73684C14.475 7.62638 14.4519 7.51678 14.4048 7.41684C14.3143 7.21449 14.1524 7.05259 13.9501 6.9621V6.95368Z" fill="#4C0B84" stroke="#4C0B84" stroke-width="0.1"/>
</svg>
