<svg width="17" height="17" viewBox="0 0 17 17" fill="none" xmlns="http://www.w3.org/2000/svg">
<path d="M4.94075 16.0017C4.76657 16.0017 4.59952 15.9354 4.47635 15.8175C4.35318 15.6996 4.28398 15.5398 4.28396 15.373V13.4872H2.97038C2.44797 13.4866 1.94713 13.2878 1.57774 12.9342C1.20834 12.5806 1.00057 12.1013 1 11.6013V4.05776C1.00057 3.55776 1.20834 3.07839 1.57774 2.72484C1.94713 2.37128 2.44797 2.17242 2.97038 2.17188H12.1655C12.6879 2.17242 13.1887 2.37129 13.5581 2.72484C13.9275 3.07839 14.1353 3.55776 14.1358 4.05776V11.6013C14.1353 12.1013 13.9275 12.5806 13.5581 12.9342C13.1887 13.2877 12.6879 13.4866 12.1655 13.4872H10.1951C10.0209 13.4872 9.85384 13.4209 9.73067 13.303C9.6075 13.1851 9.5383 13.0253 9.5383 12.8585C9.5383 12.6918 9.6075 12.5319 9.73067 12.414C9.85384 12.2961 10.0209 12.2299 10.1951 12.2299H12.1655C12.3396 12.2297 12.5066 12.1635 12.6297 12.0456C12.7528 11.9277 12.8221 11.7679 12.8223 11.6013V4.05776C12.8221 3.89108 12.7528 3.73129 12.6297 3.61343C12.5066 3.49558 12.3396 3.4293 12.1655 3.42913H2.97038C2.79624 3.4293 2.62928 3.49558 2.50615 3.61343C2.38301 3.73129 2.31376 3.89108 2.31358 4.05776V11.6013C2.31375 11.768 2.383 11.9278 2.50613 12.0456C2.62927 12.1635 2.79623 12.2297 2.97038 12.2299H4.94075C5.02701 12.2299 5.11242 12.2461 5.19212 12.2777C5.27181 12.3093 5.34422 12.3556 5.40522 12.414C5.46621 12.4724 5.51459 12.5417 5.54759 12.6179C5.58059 12.6942 5.59756 12.776 5.59754 12.8585V13.8555L7.10357 12.4141C7.22678 12.2965 7.39372 12.2305 7.56773 12.2306C7.74173 12.2308 7.90857 12.297 8.03161 12.4147C8.15465 12.5325 8.22383 12.6922 8.22395 12.8587C8.22408 13.0253 8.15514 13.185 8.03227 13.303L5.4051 15.8175C5.34414 15.8759 5.27175 15.9222 5.19207 15.9538C5.1124 15.9854 5.027 16.0017 4.94075 16.0017Z" fill="#4C0B84" stroke="#4C0B84" stroke-width="0.2"/>
<path d="M15.453 8.91005V2.97168C15.453 2.14928 14.7543 1.48084 13.8955 1.48084H4.58606C4.58889 0.666655 5.28161 0.005 6.13347 0.005H15.448C16.3016 0.005 16.9954 0.669366 16.9954 1.48584V7.42921C16.9954 8.24409 16.3043 8.90746 15.453 8.91005Z" fill="#4C0B84" stroke="#4C0B84" stroke-width="0.01"/>
</svg>
