<svg width="18" height="21" viewBox="0 0 18 21" fill="none" xmlns="http://www.w3.org/2000/svg">
<g opacity="0.6">
<path d="M8.97839 8.97826C8.09052 8.97826 7.2226 8.71498 6.48436 8.22171C5.74613 7.72843 5.17075 7.02733 4.83097 6.20705C4.4912 5.38677 4.4023 4.48415 4.57552 3.61335C4.74873 2.74254 5.17628 1.94265 5.8041 1.31484C6.43191 0.687022 7.2318 0.259473 8.1026 0.0862594C8.97341 -0.0869547 9.87602 0.00194507 10.6963 0.341717C11.5166 0.681488 12.2177 1.25687 12.711 1.9951C13.2042 2.73334 13.4675 3.60127 13.4675 4.48913C13.4675 5.67972 12.9946 6.82155 12.1527 7.66343C11.3108 8.5053 10.169 8.97826 8.97839 8.97826ZM8.97839 1.79565C8.44567 1.79565 7.92491 1.95362 7.48197 2.24959C7.03903 2.54555 6.6938 2.96621 6.48994 3.45838C6.28608 3.95055 6.23274 4.49212 6.33667 5.0146C6.44059 5.53709 6.69712 6.01702 7.07381 6.39371C7.4505 6.7704 7.93043 7.02693 8.45292 7.13086C8.9754 7.23478 9.51697 7.18144 10.0091 6.97758C10.5013 6.77372 10.922 6.42849 11.2179 5.98555C11.5139 5.54261 11.6719 5.02185 11.6719 4.48913C11.6719 3.77478 11.3881 3.08968 10.883 2.58456C10.3778 2.07943 9.69274 1.79565 8.97839 1.79565Z" fill="#4B164C"/>
<path d="M17.0587 20.6499H0.897826C0.659708 20.6499 0.431342 20.5553 0.262967 20.3869C0.0945921 20.2185 0 19.9902 0 19.7521V17.0586C0 15.1536 0.756737 13.3267 2.10374 11.9797C3.45074 10.6327 5.27766 9.87598 7.18261 9.87598H10.7739C12.6789 9.87598 14.5058 10.6327 15.8528 11.9797C17.1998 13.3267 17.9565 15.1536 17.9565 17.0586V19.7521C17.9565 19.9902 17.8619 20.2185 17.6936 20.3869C17.5252 20.5553 17.2968 20.6499 17.0587 20.6499ZM1.79565 18.8542H16.1609V17.0586C16.1609 15.6299 15.5933 14.2597 14.5831 13.2494C13.5728 12.2392 12.2026 11.6716 10.7739 11.6716H7.18261C5.7539 11.6716 4.38371 12.2392 3.37346 13.2494C2.3632 14.2597 1.79565 15.6299 1.79565 17.0586V18.8542Z" fill="#4B164C"/>
</g>
</svg>
