<svg width="15" height="15" viewBox="0 0 15 15" fill="none" xmlns="http://www.w3.org/2000/svg">
<path d="M11.2917 2.08333H10.75V1.54167C10.75 1.24267 10.5073 1 10.2083 1C9.90933 1 9.66667 1.24267 9.66667 1.54167V2.08333H5.33333V1.54167C5.33333 1.24267 5.09067 1 4.79167 1C4.49267 1 4.25 1.24267 4.25 1.54167V2.08333H3.70833C2.21496 2.08333 1 3.29829 1 4.79167V11.2917C1 12.785 2.21496 14 3.70833 14H11.2917C12.785 14 14 12.785 14 11.2917V4.79167C14 3.29829 12.785 2.08333 11.2917 2.08333ZM3.70833 3.16667H11.2917C12.1876 3.16667 12.9167 3.89575 12.9167 4.79167V5.33333H2.08333V4.79167C2.08333 3.89575 2.81242 3.16667 3.70833 3.16667ZM11.2917 12.9167H3.70833C2.81242 12.9167 2.08333 12.1876 2.08333 11.2917V6.41667H12.9167V11.2917C12.9167 12.1876 12.1876 12.9167 11.2917 12.9167ZM8.52483 7.43771C8.11588 7.43771 7.74267 7.60292 7.45829 7.87483C7.17446 7.60346 6.80071 7.43771 6.39175 7.43771C5.50504 7.43771 4.78354 8.21554 4.78354 9.17104C4.78354 10.0258 5.43788 10.9748 6.785 12.0733C6.98 12.232 7.21888 12.3116 7.45775 12.3111C7.69663 12.3111 7.93604 12.232 8.13104 12.0728C9.47762 10.9742 10.132 10.0247 10.132 9.17104C10.132 8.21554 9.41154 7.43771 8.52483 7.43771ZM7.47021 11.2332C6.02396 10.0534 5.86742 9.398 5.86742 9.1705C5.86742 8.81192 6.10304 8.5205 6.39229 8.5205C6.68154 8.5205 6.91717 8.81192 6.91717 9.1705C6.91717 9.4695 7.15983 9.71217 7.45883 9.71217C7.75783 9.71217 8.0005 9.4695 8.0005 9.1705C8.0005 8.81192 8.23612 8.5205 8.52537 8.5205C8.81463 8.5205 9.05025 8.81192 9.05025 9.1705C9.05025 9.39746 8.89371 10.0529 7.47021 11.2332Z" fill="#4B164C" stroke="#4B164C" stroke-width="0.3"/>
</svg>
