<svg width="18" height="18" viewBox="0 0 18 18" fill="none" xmlns="http://www.w3.org/2000/svg">
<path d="M9.19395 6.73555C10.7778 6.73555 12.0617 5.4516 12.0617 3.86777C12.0617 2.28395 10.7778 1 9.19395 1C7.61012 1 6.32617 2.28395 6.32617 3.86777C6.32617 5.4516 7.61012 6.73555 9.19395 6.73555Z" stroke="#4C0B84" stroke-width="1.8" stroke-linecap="round" stroke-linejoin="round"/>
<path d="M1 16.1584C1 12.5382 4.30159 9.60352 8.37428 9.60352" stroke="#4C0B84" stroke-width="1.8" stroke-linecap="round" stroke-linejoin="round"/>
<path d="M12.7894 17.7859C11.6362 17.7859 8.5791 15.5924 8.5791 12.9561C8.57923 12.6288 8.62502 12.303 8.71515 11.9883C8.86635 11.4678 9.18229 11.0103 9.61555 10.6846C10.0488 10.3588 10.576 10.1824 11.1181 10.1817C11.7402 10.1783 12.3395 10.4163 12.7898 10.8456C13.2399 10.4164 13.8389 10.1786 14.4608 10.1821C15.0027 10.1829 15.5298 10.3593 15.963 10.6849C16.3962 11.0105 16.7122 11.4677 16.8637 11.988L16.8641 11.9898C16.9537 12.3043 16.9994 12.6296 16.9998 12.9565C16.9998 15.5924 13.9426 17.7859 12.7894 17.7859ZM11.1181 11.7128C10.9087 11.7128 10.7049 11.7806 10.5372 11.906C10.3695 12.0314 10.2469 12.2077 10.1877 12.4085C10.1364 12.5866 10.1103 12.7709 10.1103 12.9561C10.1103 14.6148 12.2018 16.0947 12.7894 16.2484C13.3771 16.0947 15.4686 14.6156 15.4686 12.9565C15.4681 12.7709 15.4421 12.5863 15.3912 12.4078C15.3316 12.2072 15.2089 12.0312 15.0412 11.9061C14.8736 11.7809 14.67 11.7133 14.4608 11.7132C14.2402 11.7246 14.0287 11.805 13.8563 11.9431C13.6839 12.0812 13.5593 12.27 13.5 12.4829C13.4432 12.6249 13.3451 12.7466 13.2185 12.8324C13.0918 12.9181 12.9424 12.964 12.7894 12.964C12.6364 12.964 12.4866 12.9181 12.3599 12.8323C12.2332 12.7465 12.1352 12.6246 12.0784 12.4826C12.0194 12.2697 11.8949 12.0808 11.7225 11.9427C11.5502 11.8045 11.3387 11.7241 11.1181 11.7128Z" fill="#4C0B84" stroke="#4C0B84" stroke-width="0.2"/>
</svg>
