<svg width="40" height="40" viewBox="0 0 40 40" fill="none" xmlns="http://www.w3.org/2000/svg">
<path d="M40 20C40 25.3043 37.8929 30.3914 34.1421 34.1421C30.3914 37.8929 25.3043 40 20 40C14.6957 40 9.60859 37.8929 5.85786 34.1421C2.10714 30.3914 0 25.3043 0 20C0 14.6957 2.10714 9.60859 5.85786 5.85786C9.60859 2.10714 14.6957 0 20 0C25.3043 0 30.3914 2.10714 34.1421 5.85786C37.8929 9.60859 40 14.6957 40 20ZM25 20C25 18.6739 24.4732 17.4021 23.5355 16.4645C22.5979 15.5268 21.3261 15 20 15C18.6739 15 17.4021 15.5268 16.4645 16.4645C15.5268 17.4021 15 18.6739 15 20C15 21.3261 15.5268 22.5979 16.4645 23.5355C17.4021 24.4732 18.6739 25 20 25C21.3261 25 22.5979 24.4732 23.5355 23.5355C24.4732 22.5979 25 21.3261 25 20ZM10 20C10 17.3478 11.0536 14.8043 12.9289 12.9289C14.8043 11.0536 17.3478 10 20 10C20.3315 10 20.6495 9.8683 20.8839 9.63388C21.1183 9.39946 21.25 9.08152 21.25 8.75C21.25 8.41848 21.1183 8.10054 20.8839 7.86612C20.6495 7.6317 20.3315 7.5 20 7.5C16.6848 7.5 13.5054 8.81696 11.1612 11.1612C8.81696 13.5054 7.5 16.6848 7.5 20C7.5 20.3315 7.6317 20.6495 7.86612 20.8839C8.10054 21.1183 8.41848 21.25 8.75 21.25C9.08152 21.25 9.39946 21.1183 9.63388 20.8839C9.8683 20.6495 10 20.3315 10 20ZM32.5 20C32.5 19.6685 32.3683 19.3505 32.1339 19.1161C31.8995 18.8817 31.5815 18.75 31.25 18.75C30.9185 18.75 30.6005 18.8817 30.3661 19.1161C30.1317 19.3505 30 19.6685 30 20C30 22.6522 28.9464 25.1957 27.0711 27.0711C25.1957 28.9464 22.6522 30 20 30C19.6685 30 19.3505 30.1317 19.1161 30.3661C18.8817 30.6005 18.75 30.9185 18.75 31.25C18.75 31.5815 18.8817 31.8995 19.1161 32.1339C19.3505 32.3683 19.6685 32.5 20 32.5C23.3152 32.5 26.4946 31.183 28.8388 28.8388C31.183 26.4946 32.5 23.3152 32.5 20Z" fill="white"/>
</svg>
