<svg width="18" height="16" viewBox="0 0 18 16" fill="none" xmlns="http://www.w3.org/2000/svg">
<path d="M14.2986 11.5266C14.5703 11.5266 14.8266 11.4211 15.0202 11.2284C15.2161 11.0358 15.3262 10.7776 15.3281 10.5023C15.3303 10.2331 15.2284 9.97978 15.0402 9.78902L13.1612 7.87747C12.9715 7.68509 12.7162 7.57861 12.4428 7.57861C12.1688 7.57861 11.9113 7.68447 11.718 7.87618C11.3239 8.2641 11.3042 8.88505 11.675 9.29009L13.524 11.1681C13.5253 11.1716 13.5369 11.1855 13.5488 11.1988L13.5759 11.2259C13.768 11.4202 14.0204 11.5253 14.2899 11.5267L14.2986 11.5266Z" fill="#F77BAD"/>
<path d="M12.7203 12.9417C13.0053 12.9417 13.278 12.8281 13.4875 12.6219C13.9 12.2168 13.9322 11.5823 13.5624 11.1776L11.7144 9.29929C11.7095 9.29123 11.6953 9.2751 11.6798 9.26023L11.6608 9.24024C11.4775 9.05401 11.2296 8.9504 10.963 8.94849C10.669 8.94849 10.3966 9.06211 10.1872 9.26767C9.98774 9.46421 9.87025 9.72274 9.8567 9.99576C9.84315 10.2788 9.9419 10.5428 10.1349 10.739L12.0152 12.6506C12.2001 12.8381 12.4505 12.9417 12.7203 12.9417Z" fill="#F77BAD"/>
<path d="M11.194 14.3578C11.4712 14.3578 11.7339 14.25 11.9334 14.0548C12.3439 13.6484 12.3539 12.9894 11.9566 12.5837L10.0347 10.6315C9.84562 10.4379 9.58837 10.3284 9.31212 10.3252C9.02294 10.3252 8.76087 10.4333 8.56337 10.6295C8.36327 10.8267 8.25031 11.0907 8.24806 11.3712C8.24677 11.6313 8.34261 11.8798 8.5182 12.0715L10.411 13.9973L10.462 14.0528C10.656 14.2497 10.9158 14.3578 11.194 14.3578Z" fill="#F77BAD"/>
<path d="M9.58714 15.8012C9.87823 15.8012 10.1568 15.6857 10.3704 15.4759C10.7906 15.0618 10.8242 14.4151 10.4485 14.0026L8.55986 12.082L8.52304 12.0394L8.49852 12.0155C8.31491 11.8315 8.06347 11.726 7.79271 11.7244C7.49547 11.7244 7.21598 11.8396 7.00137 12.0487C6.78447 12.2646 6.66507 12.5435 6.66216 12.8365C6.65958 13.1076 6.76091 13.3619 6.94713 13.5523L8.86741 15.5049C9.05621 15.695 9.30794 15.7993 9.57841 15.8012H9.5797L9.58714 15.8012Z" fill="#F77BAD"/>
<path d="M7.39325 15.4887C7.55171 15.4371 7.80992 15.2899 7.97516 15.1179L8.01128 15.0779L8.43698 14.8807L6.99822 13.4167L6.79005 13.8269L6.77197 13.8408L6.75908 13.8573C6.69034 13.9264 6.60673 13.9874 6.49539 14.0483L6.30176 14.1549L6.32595 14.3746C6.27046 14.7667 6.55544 15.1544 7.13411 15.4658L7.25867 15.5326L7.39325 15.4887Z" fill="#F77BAD"/>
<path d="M6.00893 14.1857C6.18904 14.1857 6.37137 14.1327 6.5347 14.035L6.53823 14.0324C6.61408 13.9872 6.6854 13.9313 6.75093 13.8678L6.80351 13.8262L7.18499 13.6793L6.94876 13.3411C6.8471 13.1923 6.79416 13.0177 6.79611 12.837C6.79836 12.5791 6.90421 12.3338 7.0943 12.145C7.28377 11.9597 7.5313 11.8568 7.78819 11.8568C7.85273 11.8571 7.91827 11.8658 7.99282 11.8836L8.46885 11.9959L8.39558 11.5121C8.38818 11.4663 8.38236 11.4205 8.38299 11.3727C8.38428 11.1277 8.48306 10.896 8.6599 10.7227C8.83225 10.551 9.06075 10.4574 9.30379 10.4574C9.39027 10.458 9.47547 10.4735 9.57326 10.5039L10.06 10.6552L9.99959 10.1495C9.9938 10.1007 9.98861 10.0523 9.99089 10.0023C10.0028 9.76252 10.1061 9.53436 10.282 9.36105C10.4656 9.18064 10.7051 9.0806 10.9562 9.0806C11.022 9.08094 11.0843 9.08867 11.1531 9.1045L11.622 9.21035L11.5529 8.73495C11.5116 8.45093 11.6065 8.1724 11.8128 7.96975C11.9812 7.80256 12.2055 7.71092 12.444 7.71092C12.6819 7.71092 12.9039 7.80256 13.0682 7.97005L14.3278 9.25166L14.5341 8.83502L15.5459 7.74773C16.386 6.9354 16.8549 5.8384 16.8549 4.6701C16.8549 2.30863 14.9336 0.387695 12.5725 0.387695C11.3115 0.387695 10.1167 0.945056 9.29473 1.91648L8.63763 2.62748C8.63763 2.62748 11.824 5.79388 12.1455 6.1121C11.5503 6.70271 10.7709 7.01964 9.93861 7.01964C9.11369 7.01416 8.3391 6.68784 7.75884 6.10113L6.64088 4.97058L2.35844 9.32169C2.14673 9.54341 2.0312 9.8271 2.03734 10.1031C2.04379 10.3257 2.12803 10.5236 2.27423 10.6624C2.47917 10.8567 2.87644 10.9974 3.22047 10.9974C3.24728 10.9974 3.27438 10.9961 3.30022 10.9951C3.44091 10.9858 3.63906 10.9474 3.78107 10.8183L3.79786 10.8034L3.82757 10.7686L3.79882 10.8015C3.4648 11.2201 3.5655 12.0382 3.88468 12.3435C4.07382 12.5223 4.39524 12.6379 4.70378 12.6379C4.88743 12.6379 5.05301 12.5959 5.18821 12.5162H5.20179C5.20179 12.5162 5.27053 12.4604 5.27212 12.4587L5.27793 12.4558L5.26633 12.471L5.25599 12.491C4.89517 12.9955 4.97845 13.5048 5.48449 13.9872C5.62005 14.1153 5.80595 14.1857 6.00893 14.1857Z" fill="#F77BAD"/>
<path d="M6.60095 5.00976L6.62127 4.99945L6.63515 4.9817L6.63872 4.97879L6.66196 4.99426L7.57465 5.9173C7.6579 6.00154 7.71537 6.05997 7.75827 6.09933L7.75668 6.10128C8.33695 6.68865 9.11735 7.01431 9.95453 7.01979C10.6587 7.01979 11.3187 6.79126 11.8667 6.36011L12.1598 6.12871C12.1598 6.12871 9.26481 3.25406 8.73392 2.72542L8.71456 2.69026L8.69294 2.66732C8.5777 2.54339 8.36084 2.31298 8.19851 2.17031L8.17686 2.13419L7.7899 1.74561C7.0089 0.879705 5.92964 0.373966 4.7623 0.332325C4.70939 0.330376 4.65999 0.330078 4.60965 0.330078C2.29144 0.330078 0.411486 2.14612 0.331112 4.4637C0.287885 5.72367 0.807141 6.94038 1.75536 7.80208C1.76796 7.81695 2.20043 8.28297 2.55606 8.64217L2.79199 8.88002L6.60095 5.00976Z" fill="#F77BAD"/>
<path d="M12.4438 7.9095C12.6197 7.9095 12.7946 7.97533 12.9263 8.10958L14.8059 10.0212C15.0699 10.2893 15.0618 10.7254 14.7885 10.9949C14.6565 11.1256 14.4822 11.1966 14.2995 11.1966C14.2969 11.1966 14.2944 11.1966 14.2921 11.1966C14.1095 11.1956 13.941 11.124 13.8145 10.9968L13.7906 10.9716C13.7799 10.9607 13.7699 10.9474 13.7609 10.9368L11.9193 9.06682C11.6731 8.79764 11.6844 8.3739 11.9516 8.11153C12.0881 7.97596 12.2666 7.9095 12.4438 7.9095ZM12.4438 7.38086C12.1172 7.38086 11.8099 7.50671 11.5811 7.73425C11.1086 8.19768 11.0864 8.94031 11.5298 9.42378C11.534 9.42893 11.5382 9.43313 11.5427 9.43799L13.3681 11.2921C13.3804 11.3063 13.3936 11.3215 13.4097 11.3383L13.4394 11.3699C13.6653 11.5971 13.9671 11.7236 14.2995 11.7256C14.6236 11.7256 14.9295 11.5994 15.1593 11.3715C15.3946 11.1401 15.525 10.8329 15.5276 10.5047C15.5301 10.1819 15.4075 9.87856 15.1829 9.65102L13.3032 7.73848C13.0757 7.50737 12.7707 7.38086 12.4438 7.38086Z" fill="#4B164C"/>
<path d="M10.9546 9.27953C10.9563 9.27953 10.9585 9.27953 10.9604 9.27953C11.1395 9.28082 11.3042 9.34923 11.4248 9.47187L11.45 9.49768C11.4607 9.50799 11.4687 9.52028 11.4791 9.53126L13.319 11.4019C13.5656 11.671 13.5401 12.108 13.2567 12.3869C13.1047 12.536 12.9098 12.6115 12.7206 12.6115C12.5467 12.6115 12.3776 12.5476 12.2511 12.4188L10.3705 10.5072C10.1068 10.2407 10.1294 9.78946 10.4195 9.5032C10.5667 9.35891 10.7565 9.27953 10.9546 9.27953ZM10.9546 8.75055C10.6164 8.75055 10.2946 8.88417 10.0487 9.12688C9.81341 9.35894 9.6753 9.66391 9.65914 9.98696C9.64301 10.3213 9.76469 10.6463 9.99352 10.878L11.8738 12.7903C12.0962 13.0158 12.3966 13.1404 12.7206 13.1404C13.0582 13.1404 13.38 13.0065 13.6272 12.7638C14.1155 12.2826 14.1513 11.5277 13.7092 11.0449C13.7047 11.0397 13.7005 11.0355 13.696 11.031L11.8715 9.17589C11.8544 9.15556 11.8379 9.13748 11.8283 9.12843L11.8015 9.10067C11.5811 8.87733 11.2845 8.75307 10.9653 8.75049C10.9633 8.75055 10.9559 8.75055 10.9546 8.75055Z" fill="#4B164C"/>
<path d="M9.3027 10.6563C9.30495 10.6563 9.3069 10.6563 9.30981 10.6563C9.496 10.6579 9.67093 10.7311 9.80068 10.8641L11.7213 12.815C11.9921 13.0913 11.9837 13.5418 11.7029 13.8191C11.5612 13.9582 11.3769 14.0282 11.1952 14.0282C11.0138 14.0282 10.8344 13.9591 10.6992 13.8217L10.6788 13.801C10.6662 13.7868 10.6559 13.7723 10.6427 13.7597L8.76309 11.8494C8.64431 11.7193 8.57878 11.5525 8.57977 11.3743C8.58139 11.1826 8.65819 11.0016 8.79729 10.8651C8.93316 10.7305 9.11291 10.6563 9.3027 10.6563ZM9.3027 10.127C8.97252 10.127 8.66044 10.2557 8.42646 10.4878C8.18699 10.7234 8.05338 11.0364 8.0508 11.3718C8.04918 11.6809 8.16376 11.9775 8.37322 12.2064C8.37708 12.2109 8.38191 12.2154 8.38644 12.2199L10.2599 14.1247C10.2686 14.1347 10.2777 14.1454 10.287 14.1563C10.2906 14.1609 10.2948 14.1647 10.299 14.1689L10.3219 14.1931C10.553 14.4278 10.8631 14.5562 11.1952 14.5562C11.5251 14.5562 11.8371 14.4284 12.0744 14.1954C12.562 13.7139 12.573 12.929 12.0979 12.4445L10.1792 10.4948C9.95171 10.2612 9.64479 10.1308 9.31463 10.1273C9.31334 10.1273 9.30432 10.127 9.3027 10.127Z" fill="#4B164C"/>
<path d="M7.78698 12.0558C7.78827 12.0558 7.78956 12.0558 7.79085 12.0558C7.97516 12.0571 8.14361 12.1278 8.2682 12.253L8.29305 12.2772C8.30369 12.2898 8.31404 12.3021 8.32468 12.314L10.2046 14.2259C10.4583 14.5038 10.4312 14.953 10.1398 15.2403C9.98807 15.3894 9.79216 15.4713 9.58756 15.4713C9.58498 15.4713 9.58303 15.4713 9.58108 15.4713C9.39713 15.4701 9.22802 15.3994 9.10343 15.2738L7.18378 13.3219C7.05922 13.1947 6.99111 13.024 6.99339 12.8397C6.99468 12.6335 7.08117 12.4373 7.23286 12.2859C7.38485 12.1381 7.58238 12.0558 7.78698 12.0558ZM7.78698 11.5269C7.44361 11.5269 7.1157 11.6621 6.86073 11.9106C6.60834 12.161 6.46733 12.4899 6.46442 12.8342C6.46118 13.1589 6.5822 13.4636 6.8065 13.6924L8.72873 15.6469C8.95306 15.8719 9.25449 15.9974 9.58756 16C9.93063 16 10.2582 15.8641 10.5112 15.6169C11.0066 15.1286 11.0431 14.3605 10.5955 13.8693C10.5909 13.8645 10.5864 13.8596 10.5816 13.8548L8.71164 11.9542L8.70163 11.9419C8.68937 11.9267 8.67615 11.9122 8.66194 11.8986L8.64353 11.8806C8.41956 11.6547 8.1178 11.5288 7.79376 11.5269C7.7925 11.5269 7.78827 11.5269 7.78698 11.5269Z" fill="#4B164C"/>
<path d="M7.26125 15.8432C7.19056 15.8432 7.1231 15.8299 7.0621 15.7993C6.29366 15.4139 5.91995 14.8901 6.00901 14.3234C6.0374 14.143 6.20522 14.0203 6.38692 14.0481C6.56733 14.0765 6.6903 14.2456 6.66225 14.426C6.6093 14.7617 7.07178 15.0551 7.29416 15.1751C7.39744 15.1416 7.61139 15.0231 7.7421 14.8866L7.77019 14.8559C7.8925 14.7201 8.10163 14.7101 8.23687 14.8321C8.37243 14.9544 8.38307 15.1632 8.26076 15.2988L8.22266 15.3407C8.07067 15.4991 7.62204 15.8432 7.26125 15.8432Z" fill="#4B164C"/>
<path d="M14.5314 9.16349C14.4504 9.16349 14.3691 9.13381 14.3055 9.07409C14.1722 8.9495 14.1654 8.74037 14.2903 8.60709L15.2953 7.53431C16.0928 6.7617 16.5259 5.74893 16.5259 4.671C16.5259 2.49185 14.7531 0.719073 12.574 0.719073C11.4105 0.719073 10.3113 1.22964 9.55834 2.11976L9.08489 2.6329C8.96063 2.76652 8.75183 2.77458 8.61789 2.65131C8.48394 2.52768 8.47555 2.31855 8.59948 2.1843L9.06325 1.6821C9.93239 0.653868 11.2156 0.0581055 12.574 0.0581055C15.1175 0.0581055 17.1869 2.12749 17.1869 4.671C17.1869 5.92968 16.6824 7.11089 15.7662 7.99778L14.7725 9.05893C14.7076 9.12833 14.6195 9.16349 14.5314 9.16349Z" fill="#4B164C"/>
<path d="M6.01083 14.5168C5.73038 14.5168 5.45958 14.4222 5.25432 14.2276C4.84251 13.8348 4.6579 13.401 4.70569 12.9734H4.70469C4.29483 12.9734 3.88883 12.8053 3.6558 12.5852C3.37341 12.315 3.22333 11.8061 3.26722 11.3275C2.818 11.3355 2.32614 11.1703 2.04374 10.9024C1.83362 10.703 1.71292 10.4235 1.7039 10.1153C1.69614 9.74835 1.84525 9.37847 2.11248 9.09832L6.40232 4.73977C6.53012 4.60936 6.73925 4.60777 6.86963 4.73587C6.9997 4.864 7.00162 5.07316 6.87349 5.20321L2.58722 9.55819C2.44329 9.70922 2.36067 9.90771 2.36487 10.0985C2.36874 10.2285 2.41616 10.3447 2.49848 10.4228C2.63788 10.5551 2.98743 10.6842 3.27628 10.6652C3.36858 10.6594 3.4896 10.6368 3.56479 10.5638C3.56965 10.558 3.5748 10.5522 3.57996 10.5464C3.5945 10.5284 3.61126 10.5112 3.62999 10.4961C3.75746 10.3935 3.94144 10.3983 4.0618 10.508C4.17962 10.6151 4.20252 10.7894 4.12314 10.9224C4.11442 10.9369 4.1044 10.9508 4.09343 10.964C4.08117 10.9792 4.06828 10.9937 4.05503 11.0079C3.82072 11.3003 3.91626 11.9197 4.11151 12.1062C4.30709 12.2911 4.82476 12.4086 5.06714 12.1982C5.09747 12.1717 5.13168 12.1514 5.1675 12.1378C5.29467 12.0884 5.4428 12.1204 5.53639 12.2269C5.64935 12.3563 5.64647 12.5464 5.5309 12.6687C5.34081 12.9169 5.20042 13.2625 5.71003 13.7486C5.9024 13.9312 6.27548 13.8751 6.52397 13.625C6.53594 13.6131 6.57176 13.5827 6.58531 13.5724C6.73053 13.4659 6.93936 13.4907 7.04908 13.6343C7.1588 13.778 7.13752 13.979 6.99584 14.0907C6.99293 14.0929 6.98067 14.1023 6.97776 14.1043C6.70954 14.376 6.35325 14.5168 6.01083 14.5168Z" fill="#4B164C"/>
<path d="M2.60208 9.01794C2.51721 9.01794 2.43264 8.98565 2.36809 8.92078C1.98919 8.54092 1.51478 8.02874 1.49476 8.00712C0.507206 7.1128 -0.0440404 5.81023 0.00275611 4.45347C0.0892437 1.9561 2.11346 0 4.61145 0C4.66502 0 4.71763 0.000297435 4.77282 0.00191681C6.03246 0.0467965 7.19497 0.591566 8.04828 1.53688L8.44106 1.92933C8.45686 1.94546 8.47074 1.96254 8.483 1.98095C8.70343 2.18526 8.96712 2.47539 8.97905 2.48894C8.99327 2.50477 9.00619 2.52156 9.01683 2.5393C9.70166 3.22122 12.0451 5.54849 12.3778 5.87769C12.5008 5.9997 12.5089 6.19624 12.3959 6.3276C12.3901 6.33468 12.3707 6.35599 12.3643 6.36244C11.7204 6.99984 10.8658 7.35068 9.95824 7.35068C9.02327 7.34454 8.16577 6.98338 7.52351 6.33405C7.52351 6.33405 6.78735 5.58851 6.40588 5.20413C6.27742 5.07471 6.27808 4.86558 6.40779 4.73682C6.53658 4.60836 6.74637 4.60869 6.87513 4.73874C7.25661 5.12312 7.99375 5.86962 7.99375 5.86962C8.51175 6.39344 9.20401 6.68486 9.94212 6.68972C10.5824 6.68972 11.1795 6.4825 11.6639 6.1007C10.9342 5.3768 9.03362 3.48878 8.50237 2.96014C8.48042 2.9382 8.46172 2.91335 8.44688 2.88654C8.35586 2.78813 8.13834 2.55672 7.98179 2.41891C7.95502 2.39502 7.93307 2.36825 7.91562 2.33887L7.56901 1.99159C6.82543 1.16862 5.82849 0.700989 4.75088 0.662587C4.70408 0.661265 4.65792 0.660967 4.61145 0.660967C2.4717 0.660967 0.737289 2.33695 0.663062 4.47604C0.623371 5.63822 1.09553 6.75426 1.95919 7.53787C1.98437 7.56335 2.46588 8.08297 2.83606 8.4541C2.96485 8.58319 2.96485 8.79265 2.83543 8.92144C2.77089 8.98565 2.68665 9.01794 2.60208 9.01794Z" fill="#4B164C"/>
<path d="M3.84221 11.0838C3.75764 11.0838 3.6731 11.0516 3.60856 10.987C3.47944 10.8579 3.47944 10.6488 3.60856 10.5197L6.00456 8.12367C6.13365 7.99458 6.34278 7.99458 6.47187 8.12367C6.60099 8.25279 6.60099 8.46192 6.47187 8.59101L4.07586 10.987C4.01132 11.0516 3.92678 11.0838 3.84221 11.0838Z" fill="#4B164C"/>
<path d="M5.39101 12.6949C5.30648 12.6949 5.22191 12.6626 5.15736 12.5981C5.02828 12.469 5.02828 12.2599 5.15736 12.1308L7.554 9.73475C7.68312 9.60567 7.89225 9.60567 8.02133 9.73475C8.15042 9.86384 8.15042 10.073 8.02133 10.2021L5.6247 12.5981C5.56012 12.6626 5.47558 12.6949 5.39101 12.6949Z" fill="#4B164C"/>
</svg>
