<svg width="16" height="13" viewBox="0 0 16 13" fill="none" xmlns="http://www.w3.org/2000/svg">
<path d="M13.6 0H2.4C1.76348 0 1.15303 0.252856 0.702944 0.702944C0.252856 1.15303 0 1.76348 0 2.4V10.4C0 11.0365 0.252856 11.647 0.702944 12.0971C1.15303 12.5471 1.76348 12.8 2.4 12.8H13.6C14.2365 12.8 14.847 12.5471 15.2971 12.0971C15.7471 11.647 16 11.0365 16 10.4V2.4C16 1.76348 15.7471 1.15303 15.2971 0.702944C14.847 0.252856 14.2365 0 13.6 0ZM2.4 11.2C2.18783 11.2 1.98434 11.1157 1.83431 10.9657C1.68429 10.8157 1.6 10.6122 1.6 10.4V8.464L4.24 5.832C4.38954 5.68542 4.5906 5.60331 4.8 5.60331C5.0094 5.60331 5.21046 5.68542 5.36 5.832L10.728 11.2H2.4ZM14.4 10.4C14.4 10.6122 14.3157 10.8157 14.1657 10.9657C14.0157 11.1157 13.8122 11.2 13.6 11.2H12.984L9.936 8.136L10.64 7.432C10.7895 7.28542 10.9906 7.20331 11.2 7.20331C11.4094 7.20331 11.6105 7.28542 11.76 7.432L14.4 10.064V10.4ZM14.4 7.808L12.896 6.312C12.44 5.87395 11.8323 5.6293 11.2 5.6293C10.5677 5.6293 9.95995 5.87395 9.504 6.312L8.8 7.016L6.496 4.712C6.04005 4.27395 5.43229 4.0293 4.8 4.0293C4.16772 4.0293 3.55995 4.27395 3.104 4.712L1.6 6.208V2.4C1.6 2.18783 1.68429 1.98434 1.83431 1.83431C1.98434 1.68429 2.18783 1.6 2.4 1.6H13.6C13.8122 1.6 14.0157 1.68429 14.1657 1.83431C14.3157 1.98434 14.4 2.18783 14.4 2.4V7.808Z" fill="#4C0B84"/>
</svg>
