<svg width="9" height="8" viewBox="0 0 9 8" fill="none" xmlns="http://www.w3.org/2000/svg">
<path fill-rule="evenodd" clip-rule="evenodd" d="M3.9228 7.30519C3.74194 7.53507 3.42713 7.55897 3.21966 7.35856L0.17087 4.4135C0.0623084 4.30863 1.2591e-08 4.15685 0 3.99727C-1.2591e-08 3.83768 0.0623083 3.6859 0.17087 3.58103L3.21966 0.635974C3.42713 0.435567 3.74194 0.459458 3.9228 0.689338C4.10367 0.919216 4.08211 1.26803 3.87464 1.46844L1.82839 3.44507L7.80765 3.44507C8.08288 3.44507 8.30601 3.69229 8.30601 3.99727C8.30601 4.30224 8.08288 4.54946 7.80765 4.54946L1.82839 4.54946L3.87464 6.52609C4.08211 6.7265 4.10367 7.07532 3.9228 7.30519Z" fill="#4C0B84"/>
</svg>
