<svg width="23" height="22" viewBox="0 0 23 22" fill="none" xmlns="http://www.w3.org/2000/svg">
<path d="M2.22974 20.0676H15.4732L12.0361 16.6305C11.7434 16.6861 11.4466 16.7171 11.1487 16.723C8.12738 16.723 5.57434 14.17 5.57434 11.1487C5.57434 10.8465 5.61782 10.5522 5.66687 10.2612L0.160541 4.75491C0.0602029 5.0091 0 5.28447 0 5.57434V17.8379C0 19.0676 1.00004 20.0676 2.22974 20.0676ZM20.0676 3.3446H17.1846L14.1666 0.326657C14.0633 0.222927 13.9404 0.140664 13.8051 0.0846022C13.6699 0.0285408 13.5248 -0.000211211 13.3784 1.16802e-06H8.91894C8.77251 -0.000211211 8.62748 0.0285408 8.49221 0.0846022C8.35693 0.140664 8.23408 0.222927 8.13073 0.326657L5.11278 3.3446H4.92103L1.90308 0.326657L0.326656 1.90308L20.3943 21.9707L21.9707 20.3943L21.2728 19.6964C21.586 19.4976 21.844 19.2232 22.0231 18.8983C22.2021 18.5735 22.2965 18.2088 22.2974 17.8379V5.57434C22.2974 4.34464 21.2973 3.3446 20.0676 3.3446ZM14.1454 12.569C14.3699 12.1289 14.4889 11.6427 14.4933 11.1487C14.4933 9.3359 12.9615 7.80407 11.1487 7.80407C10.6403 7.80407 10.1631 7.93786 9.72833 8.15191L8.10063 6.52421C8.99879 5.90989 10.0605 5.57902 11.1487 5.57434C14.17 5.57434 16.723 8.12739 16.723 11.1487C16.7183 12.2368 16.3875 13.2986 15.7731 14.1967L14.1454 12.569Z" fill="white"/>
</svg>
