<svg width="34" height="34" viewBox="0 0 34 34" fill="none" xmlns="http://www.w3.org/2000/svg">
<path fill-rule="evenodd" clip-rule="evenodd" d="M1.61102 11.7196C0.796326 15.1927 0.796327 18.8073 1.61102 22.2805C2.78754 27.2962 6.70384 31.2125 11.7195 32.389C15.1927 33.2037 18.8073 33.2037 22.2805 32.389C27.2962 31.2125 31.2125 27.2961 32.389 22.2804C33.2037 18.8073 33.2037 15.1927 32.389 11.7196C31.2125 6.70385 27.2962 2.78754 22.2804 1.61102C18.8073 0.796326 15.1927 0.796329 11.7196 1.61102C6.70385 2.78754 2.78754 6.70384 1.61102 11.7196Z" fill="white"/>
<path d="M1.61102 22.2805L1.03409 22.4158H1.03409L1.61102 22.2805ZM1.61102 11.7196L2.18795 11.8549V11.8549L1.61102 11.7196ZM11.7195 32.389L11.8549 31.812L11.7195 32.389ZM22.2805 32.389L22.1451 31.812L22.2805 32.389ZM32.389 22.2804L31.812 22.1451L32.389 22.2804ZM32.389 11.7196L32.9659 11.5842L32.389 11.7196ZM22.2804 1.61102L22.1451 2.18795V2.18795L22.2804 1.61102ZM11.7196 1.61102L11.5842 1.03409L11.5842 1.03409L11.7196 1.61102ZM2.18795 22.1451C1.39414 18.761 1.39414 15.239 2.18795 11.8549L1.03409 11.5842C0.198514 15.1464 0.198515 18.8536 1.03409 22.4158L2.18795 22.1451ZM11.8549 31.812C7.05829 30.6869 3.31308 26.9417 2.18795 22.1451L1.03409 22.4158C2.26201 27.6506 6.3494 31.738 11.5842 32.9659L11.8549 31.812ZM22.1451 31.812C18.761 32.6059 15.239 32.6059 11.8549 31.812L11.5842 32.9659C15.1464 33.8015 18.8536 33.8015 22.4158 32.9659L22.1451 31.812ZM31.812 22.1451C30.6869 26.9417 26.9417 30.6869 22.1451 31.812L22.4158 32.9659C27.6506 31.738 31.738 27.6506 32.9659 22.4158L31.812 22.1451ZM31.8121 11.8549C32.6059 15.239 32.6059 18.761 31.812 22.1451L32.9659 22.4158C33.8015 18.8536 33.8015 15.1464 32.9659 11.5842L31.8121 11.8549ZM22.1451 2.18795C26.9417 3.31308 30.6869 7.05829 31.8121 11.8549L32.9659 11.5842C31.738 6.3494 27.6506 2.26201 22.4158 1.03408L22.1451 2.18795ZM11.8549 2.18795C15.239 1.39414 18.761 1.39414 22.1451 2.18795L22.4158 1.03408C18.8536 0.198513 15.1464 0.198517 11.5842 1.03409L11.8549 2.18795ZM2.18795 11.8549C3.31308 7.05829 7.0583 3.31308 11.8549 2.18795L11.5842 1.03409C6.3494 2.26201 2.26201 6.3494 1.03409 11.5842L2.18795 11.8549Z" fill="#DBD0DB"/>
<path d="M24.1374 22.3023C24.6576 22.8231 24.6576 23.6331 24.1374 24.1539C23.8772 24.4143 23.5593 24.53 23.2125 24.53C22.8656 24.53 22.5477 24.4143 22.2876 24.1539L16.9982 18.8595L11.7088 24.1539C11.4486 24.4143 11.1307 24.53 10.7839 24.53C10.437 24.53 10.1191 24.4143 9.85895 24.1539C9.33868 23.6331 9.33868 22.8231 9.85895 22.3023L15.1483 17.0078L9.85895 11.7134C9.33868 11.1926 9.33868 10.3825 9.85895 9.86177C10.3792 9.341 11.1885 9.341 11.7088 9.86177L16.9982 15.1562L22.2876 9.86177C22.8078 9.341 23.6171 9.341 24.1374 9.86177C24.6576 10.3825 24.6576 11.1926 24.1374 11.7134L18.848 17.0078L24.1374 22.3023Z" fill="#4C0B84"/>
</svg>
