<svg width="40" height="24" viewBox="0 0 40 24" fill="none" xmlns="http://www.w3.org/2000/svg">
<path d="M23.6029 11.9293C23.4631 11.8691 23.344 11.7693 23.2603 11.6422C23.1766 11.5151 23.132 11.3662 23.1321 11.2141C23.1311 11.1053 23.1525 10.9975 23.1949 10.8974C23.2373 10.7972 23.2998 10.7069 23.3786 10.6319C23.4267 10.5861 23.4727 10.541 23.5072 10.5046C23.751 10.2479 23.9661 9.96537 24.1487 9.66203C24.629 8.86057 24.8671 7.93725 24.8342 7.00349C24.8014 6.06973 24.499 5.16542 23.9637 4.39968C23.4283 3.63394 22.6828 3.03948 21.817 2.68804C20.9513 2.3366 20.0024 2.24319 19.0847 2.41908C18.1496 2.58282 17.2854 3.02414 16.6045 3.68564C15.9236 4.34713 15.4574 5.1982 15.2667 6.12818C15.0904 6.92894 15.1204 7.76136 15.3539 8.54735C15.5874 9.33334 16.0167 10.0471 16.6016 10.6218C16.6809 10.697 16.7444 10.7874 16.7884 10.8875C16.8324 10.9876 16.8559 11.0955 16.8576 11.2048V11.2089C16.8591 11.3623 16.8151 11.5128 16.7314 11.6413C16.6476 11.7699 16.5278 11.8709 16.3868 11.9316C14.458 12.7306 12.9198 14.2548 12.1033 16.1763C11.5293 17.4922 11.2413 18.9151 11.2585 20.3507V21.3851C11.2585 21.6069 11.3022 21.8266 11.3871 22.0315C11.4721 22.2364 11.5965 22.4226 11.7534 22.5795C11.9103 22.7363 12.0965 22.8607 12.3015 22.9455C12.5064 23.0304 12.7261 23.074 12.948 23.0739H27.0458C27.4937 23.0739 27.9232 22.896 28.2399 22.5793C28.5565 22.2626 28.7344 21.8331 28.7344 21.3852V20.3404C28.7516 18.9054 28.4632 17.4832 27.8883 16.1682C27.0703 14.2484 25.5315 12.7263 23.6029 11.9293Z" fill="white"/>
<path d="M39.1509 13.8354C38.333 11.9157 36.7944 10.3936 34.866 9.59651C34.7262 9.53632 34.6071 9.43652 34.5235 9.30941C34.4398 9.18231 34.3952 9.03347 34.3952 8.8813C34.3942 8.77254 34.4156 8.66475 34.458 8.5646C34.5005 8.46445 34.563 8.37409 34.6418 8.29911C34.6899 8.25323 34.736 8.20814 34.7703 8.17173C35.0142 7.91522 35.2293 7.63283 35.4119 7.32961C35.8922 6.52817 36.1304 5.60484 36.0976 4.67106C36.0648 3.73728 35.7624 2.83294 35.2271 2.06717C34.6917 1.3014 33.9461 0.70693 33.0804 0.355489C32.2146 0.00404949 31.2657 -0.08934 30.348 0.0865901C29.4129 0.250278 28.5487 0.691574 27.8677 1.35308C27.1868 2.01459 26.7207 2.86569 26.53 3.7957C26.3537 4.59644 26.3837 5.42885 26.6171 6.21484C26.8506 7.00083 27.2799 7.71464 27.8647 8.2893C27.9441 8.3645 28.0076 8.45482 28.0516 8.55493C28.0956 8.65505 28.1191 8.76295 28.1208 8.87228V8.87646C28.1223 9.02992 28.0784 9.18038 27.9946 9.30897C27.9108 9.43756 27.791 9.53854 27.65 9.59923C26.8797 9.91478 26.1645 10.351 25.5312 10.8914C27.3079 11.9447 28.7051 13.5339 29.5222 15.4308C30.2042 16.9769 30.547 18.6512 30.5275 20.341V20.7417H38.3085C38.7563 20.7417 39.1858 20.5638 39.5025 20.2471C39.8192 19.9304 39.9972 19.5009 39.9972 19.053V18.0076C40.0144 16.5726 39.7259 15.1503 39.1509 13.8354Z" fill="white"/>
<path d="M14.4687 10.8909C13.8343 10.3492 13.1174 9.91222 12.3451 9.59652C12.2054 9.53634 12.0863 9.43653 12.0026 9.30943C11.9189 9.18232 11.8744 9.03349 11.8743 8.88131C11.8734 8.77254 11.8948 8.66474 11.9372 8.56458C11.9797 8.46443 12.0422 8.37407 12.1211 8.29912C12.169 8.25324 12.2151 8.20815 12.2496 8.17174C12.4934 7.91519 12.7084 7.63281 12.891 7.32962C13.3713 6.52819 13.6095 5.60487 13.5767 4.67108C13.5439 3.73729 13.2416 2.83294 12.7062 2.06717C12.1709 1.30139 11.4253 0.706914 10.5596 0.355477C9.6938 0.00403862 8.74484 -0.0893421 7.8272 0.0866025C6.89207 0.250321 6.02784 0.691625 5.3469 1.35313C4.66595 2.01463 4.19981 2.86571 4.00908 3.79571C3.83282 4.59646 3.86283 5.42886 4.0963 6.21485C4.32977 7.00083 4.75905 7.71463 5.34387 8.28931C5.42326 8.3645 5.48682 8.45482 5.5308 8.55494C5.57478 8.65505 5.59829 8.76296 5.59995 8.87229V8.87647C5.60141 9.02992 5.5575 9.18038 5.47374 9.30897C5.38998 9.43756 5.27011 9.53854 5.12916 9.59924C3.20034 10.3982 1.6622 11.9224 0.845627 13.8439C0.271569 15.1598 -0.0164214 16.5826 0.000722871 18.0182V19.0531C0.000714163 19.2748 0.0443856 19.4944 0.129243 19.6993C0.214101 19.9041 0.338483 20.0903 0.495287 20.2471C0.652092 20.4039 0.838246 20.5283 1.04312 20.6131C1.248 20.698 1.46758 20.7417 1.68934 20.7417H9.47092V20.3509C9.45158 18.6613 9.79357 16.987 10.474 15.4402C11.2905 13.5392 12.6892 11.9463 14.4687 10.8909Z" fill="white"/>
</svg>
