<svg width="13" height="20" viewBox="0 0 13 20" fill="none" xmlns="http://www.w3.org/2000/svg">
<path d="M2.5 3.75C2.5 2.75544 2.89509 1.80161 3.59835 1.09835C4.30161 0.395088 5.25544 0 6.25 0C7.24456 0 8.19839 0.395088 8.90165 1.09835C9.60491 1.80161 10 2.75544 10 3.75V10C10 10.9946 9.60491 11.9484 8.90165 12.6517C8.19839 13.3549 7.24456 13.75 6.25 13.75C5.25544 13.75 4.30161 13.3549 3.59835 12.6517C2.89509 11.9484 2.5 10.9946 2.5 10V3.75Z" fill="white"/>
<path d="M0.625 8.125C0.79076 8.125 0.949731 8.19085 1.06694 8.30806C1.18415 8.42527 1.25 8.58424 1.25 8.75V10C1.25 11.3261 1.77678 12.5979 2.71447 13.5355C3.65215 14.4732 4.92392 15 6.25 15C7.57608 15 8.84785 14.4732 9.78553 13.5355C10.7232 12.5979 11.25 11.3261 11.25 10V8.75C11.25 8.58424 11.3158 8.42527 11.4331 8.30806C11.5503 8.19085 11.7092 8.125 11.875 8.125C12.0408 8.125 12.1997 8.19085 12.3169 8.30806C12.4342 8.42527 12.5 8.58424 12.5 8.75V10C12.5 11.5494 11.9245 13.0436 10.8852 14.1927C9.84578 15.3418 8.41664 16.0638 6.875 16.2188V18.75H10.625C10.7908 18.75 10.9497 18.8158 11.0669 18.9331C11.1842 19.0503 11.25 19.2092 11.25 19.375C11.25 19.5408 11.1842 19.6997 11.0669 19.8169C10.9497 19.9342 10.7908 20 10.625 20H1.875C1.70924 20 1.55027 19.9342 1.43306 19.8169C1.31585 19.6997 1.25 19.5408 1.25 19.375C1.25 19.2092 1.31585 19.0503 1.43306 18.9331C1.55027 18.8158 1.70924 18.75 1.875 18.75H5.625V16.2188C4.08336 16.0638 2.65422 15.3418 1.61485 14.1927C0.57548 13.0436 -1.94646e-05 11.5494 4.93758e-10 10V8.75C4.93758e-10 8.58424 0.0658481 8.42527 0.183058 8.30806C0.300269 8.19085 0.45924 8.125 0.625 8.125Z" fill="white"/>
</svg>
