<svg width="23" height="20" viewBox="0 0 23 20" fill="none" xmlns="http://www.w3.org/2000/svg">
<path d="M20 2.60873H16.9891L15.5108 0.39134C15.4322 0.270103 15.3242 0.170678 15.1969 0.102277C15.0696 0.0338748 14.9271 -0.00129125 14.7826 3.62359e-05H7.82607C7.68156 -0.00129125 7.53905 0.0338748 7.41175 0.102277C7.28445 0.170678 7.17647 0.270103 7.09781 0.39134L5.61955 2.60873H2.60869C1.9177 2.61159 1.25583 2.88735 0.767229 3.37596C0.278623 3.86456 0.00286127 4.52643 0 5.21742V17.3913C0.00286127 18.0823 0.278623 18.7442 0.767229 19.2328C1.25583 19.7214 1.9177 19.9971 2.60869 20H20C20.691 19.9971 21.3528 19.7214 21.8414 19.2328C22.33 18.7442 22.6058 18.0823 22.6087 17.3913V5.21742C22.6058 4.52643 22.33 3.86456 21.8414 3.37596C21.3528 2.88735 20.691 2.61159 20 2.60873ZM14.9891 14.5544C14.5062 15.0401 13.9321 15.4256 13.2997 15.6886C12.6674 15.9516 11.9892 16.0871 11.3043 16.0871C10.6194 16.0871 9.94129 15.9516 9.30891 15.6886C8.67654 15.4256 8.10241 15.0401 7.61955 14.5544H7.60868L7.09781 14.0218L6.94564 14.9239C6.9101 15.1265 6.80477 15.3102 6.64792 15.4433C6.49107 15.5763 6.2926 15.6502 6.08695 15.6522H5.94564C5.83284 15.6337 5.72478 15.5932 5.62766 15.5329C5.53053 15.4726 5.44624 15.3938 5.37961 15.3009C5.31298 15.208 5.26532 15.1029 5.23934 14.9916C5.21337 14.8803 5.2096 14.765 5.22825 14.6522L5.66303 12.0435C5.69401 11.8645 5.77958 11.6995 5.90801 11.5711C6.03644 11.4426 6.20145 11.3571 6.38042 11.3261L8.98911 10.8913C9.21685 10.8538 9.45015 10.9084 9.63769 11.0429C9.82523 11.1774 9.95164 11.381 9.98911 11.6087C10.0266 11.8365 9.97206 12.0698 9.83752 12.2573C9.70299 12.4448 9.49946 12.5712 9.27172 12.6087L8.29346 12.7718L8.84781 13.3478C9.50243 13.9925 10.3856 14.352 11.3043 14.3478C11.7612 14.3501 12.214 14.2608 12.6359 14.0853C13.0578 13.9099 13.4403 13.6517 13.7608 13.3261C13.9239 13.1635 14.1447 13.0722 14.375 13.0722C14.6052 13.0722 14.8261 13.1635 14.9891 13.3261C15.0709 13.4061 15.136 13.5016 15.1804 13.6071C15.2248 13.7125 15.2476 13.8258 15.2476 13.9402C15.2476 14.0547 15.2248 14.1679 15.1804 14.2734C15.136 14.3789 15.0709 14.4744 14.9891 14.5544ZM17.3804 7.09785L16.9456 9.70654C16.9146 9.88551 16.8291 10.0505 16.7006 10.179C16.5722 10.3074 16.4072 10.393 16.2282 10.4239L13.6195 10.8587H13.4782C13.2726 10.8567 13.0741 10.7828 12.9173 10.6498C12.7604 10.5168 12.6551 10.333 12.6195 10.1305C12.6009 10.0177 12.6047 9.90233 12.6306 9.79101C12.6566 9.6797 12.7043 9.57459 12.7709 9.48171C12.8375 9.38883 12.9218 9.31 13.0189 9.24973C13.1161 9.18946 13.2241 9.14893 13.3369 9.13046L14.3152 8.96741L13.7608 8.39132C13.1062 7.74663 12.2231 7.38713 11.3043 7.39133C10.8474 7.3891 10.3947 7.47836 9.97277 7.65384C9.55088 7.82931 9.16838 8.08746 8.84781 8.41306C8.6848 8.57568 8.46394 8.66701 8.23368 8.66701C8.00342 8.66701 7.78257 8.57568 7.61955 8.41306C7.53771 8.33309 7.47269 8.23756 7.42829 8.1321C7.38389 8.02664 7.36102 7.91336 7.36102 7.79894C7.36102 7.68451 7.38389 7.57124 7.42829 7.46577C7.47269 7.36031 7.53771 7.26478 7.61955 7.18481C8.10241 6.69907 8.67654 6.3136 9.30891 6.05056C9.94129 5.78752 10.6194 5.6521 11.3043 5.6521C11.9892 5.6521 12.6674 5.78752 13.2997 6.05056C13.9321 6.3136 14.5062 6.69907 14.9891 7.18481C15 7.18481 15 7.18481 15 7.19568L15.5108 7.71741L15.663 6.81524C15.7005 6.5875 15.8269 6.38398 16.0144 6.24944C16.202 6.1149 16.4353 6.06037 16.663 6.09785C16.8908 6.13533 17.0943 6.26174 17.2288 6.44927C17.3634 6.63681 17.4179 6.87011 17.3804 7.09785Z" fill="white"/>
</svg>
