<svg width="23" height="20" viewBox="0 0 23 20" fill="none" xmlns="http://www.w3.org/2000/svg">
<path d="M11.1146 7.77783C9.30792 7.77783 7.78125 9.3045 7.78125 11.1112C7.78125 12.9178 9.30792 14.4445 11.1146 14.4445C12.9212 14.4445 14.4479 12.9178 14.4479 11.1112C14.4479 9.3045 12.9212 7.77783 11.1146 7.77783Z" fill="white"/>
<path d="M20 3.33333H17.1267L14.1189 0.325557C14.0159 0.222176 13.8934 0.14019 13.7586 0.0843171C13.6238 0.0284446 13.4793 -0.000210499 13.3333 1.16408e-06H8.88889C8.74295 -0.000210499 8.59841 0.0284446 8.46359 0.0843171C8.32877 0.14019 8.20634 0.222176 8.10333 0.325557L5.09555 3.33333H2.22222C0.996666 3.33333 0 4.33 0 5.55556V17.7778C0 19.0033 0.996666 20 2.22222 20H20C21.2256 20 22.2222 19.0033 22.2222 17.7778V5.55556C22.2222 4.33 21.2256 3.33333 20 3.33333ZM11.1111 16.6667C8.1 16.6667 5.55555 14.1222 5.55555 11.1111C5.55555 8.1 8.1 5.55556 11.1111 5.55556C14.1222 5.55556 16.6667 8.1 16.6667 11.1111C16.6667 14.1222 14.1222 16.6667 11.1111 16.6667Z" fill="white"/>
</svg>
