<svg width="16" height="21" viewBox="0 0 16 21" fill="none" xmlns="http://www.w3.org/2000/svg">
<path d="M14.2936 10.0689C14.2936 10.779 14.1753 11.4626 13.9587 12.0997L12.9338 11.0749C13.0009 10.7437 13.0347 10.4067 13.0346 10.0689V8.80983C13.0346 8.64287 13.1009 8.48274 13.219 8.36469C13.337 8.24663 13.4971 8.1803 13.6641 8.1803C13.8311 8.1803 13.9912 8.24663 14.1092 8.36469C14.2273 8.48274 14.2936 8.64287 14.2936 8.80983V10.0689ZM7.99837 15.1051C9.02827 15.1051 9.98515 14.7966 10.7834 14.2653L11.6874 15.1705C10.7886 15.8223 9.73272 16.2234 8.6279 16.3326V18.8822H12.405C12.572 18.8822 12.7321 18.9485 12.8502 19.0666C12.9682 19.1847 13.0346 19.3448 13.0346 19.5117C13.0346 19.6787 12.9682 19.8388 12.8502 19.9569C12.7321 20.0749 12.572 20.1413 12.405 20.1413H3.5917C3.42474 20.1413 3.26462 20.0749 3.14656 19.9569C3.0285 19.8388 2.96217 19.6787 2.96217 19.5117C2.96217 19.3448 3.0285 19.1847 3.14656 19.0666C3.26462 18.9485 3.42474 18.8822 3.5917 18.8822H7.36885V16.3326C5.81604 16.1766 4.37656 15.4493 3.32967 14.2919C2.28277 13.1345 1.70311 11.6295 1.70313 10.0689V8.80983C1.70313 8.64287 1.76945 8.48274 1.88751 8.36469C2.00557 8.24663 2.16569 8.1803 2.33265 8.1803C2.49961 8.1803 2.65973 8.24663 2.77779 8.36469C2.89585 8.48274 2.96217 8.64287 2.96217 8.80983V10.0689C2.96217 11.4046 3.49277 12.6855 4.43724 13.63C5.38171 14.5745 6.66269 15.1051 7.99837 15.1051ZM11.7755 3.77363V9.91653L4.42015 2.56116C4.7084 1.71413 5.28789 0.996867 6.05545 0.537074C6.82301 0.0772811 7.72883 -0.0952062 8.61166 0.0503195C9.49448 0.195845 10.297 0.64994 10.8764 1.33176C11.4558 2.01359 11.7744 2.87889 11.7755 3.77363Z" fill="white"/>
<path d="M9.87095 13.351L4.22285 7.70161V10.0686C4.22266 10.73 4.39614 11.3799 4.72594 11.9532C5.05574 12.5265 5.5303 13.0031 6.10215 13.3355C6.674 13.6678 7.32308 13.8441 7.98448 13.8469C8.64587 13.8496 9.29639 13.6786 9.87095 13.351ZM0 1.70098L15.1086 16.8096L16 15.9182L0.891407 0.80957L0 1.70098Z" fill="white"/>
</svg>
