<svg width="17" height="21" viewBox="0 0 17 21" fill="none" xmlns="http://www.w3.org/2000/svg">
<g opacity="0.6">
<path d="M8.40004 20.998C8.10769 20.9954 7.81908 20.9319 7.55272 20.8113C7.28635 20.6908 7.04809 20.516 6.85319 20.2981C4.29843 17.4983 0.00084517 12.1718 0.00084517 8.65117C-0.0309544 6.39062 0.835716 4.20986 2.41053 2.5878C3.98534 0.965748 6.13954 0.035014 8.40004 0C10.6605 0.035014 12.8147 0.965748 14.3896 2.5878C15.9644 4.20986 16.831 6.39062 16.7992 8.65117C16.7992 12.1508 12.5016 17.4633 9.94689 20.3051C9.75137 20.5217 9.51283 20.6952 9.24649 20.8145C8.98015 20.9338 8.69187 20.9963 8.40004 20.998ZM8.40004 1.39987C6.5114 1.43667 4.71431 2.22047 3.40241 3.57961C2.09051 4.93874 1.37072 6.7624 1.40071 8.65117C1.40071 10.849 3.82948 14.8526 7.89609 19.3671C7.96138 19.4349 8.03966 19.4888 8.12625 19.5256C8.21284 19.5624 8.30596 19.5813 8.40004 19.5813C8.49413 19.5813 8.58724 19.5624 8.67383 19.5256C8.76042 19.4888 8.8387 19.4349 8.90399 19.3671C12.9706 14.8526 15.3994 10.849 15.3994 8.65117C15.4294 6.7624 14.7096 4.93874 13.3977 3.57961C12.0858 2.22047 10.2887 1.43667 8.40004 1.39987Z" fill="#4B164C"/>
<path d="M8.40175 12.5989C7.57115 12.5989 6.7592 12.3526 6.06858 11.8911C5.37796 11.4297 4.83968 10.7738 4.52183 10.0064C4.20397 9.23905 4.1208 8.39465 4.28284 7.58001C4.44489 6.76536 4.84486 6.01707 5.43218 5.42974C6.01951 4.84242 6.7678 4.44245 7.58245 4.2804C8.39709 4.11836 9.24149 4.20153 10.0089 4.51938C10.7762 4.83724 11.4321 5.37551 11.8936 6.06614C12.355 6.75676 12.6013 7.5687 12.6013 8.39931C12.6013 9.51311 12.1589 10.5813 11.3713 11.3689C10.5837 12.1564 9.51555 12.5989 8.40175 12.5989ZM8.40175 5.59958C7.84801 5.59958 7.30671 5.76378 6.8463 6.07142C6.38589 6.37905 6.02704 6.81631 5.81513 7.3279C5.60323 7.83948 5.54778 8.40241 5.65581 8.94551C5.76384 9.4886 6.03049 9.98747 6.42204 10.379C6.81359 10.7706 7.31245 11.0372 7.85555 11.1452C8.39864 11.2533 8.96157 11.1978 9.47316 10.9859C9.98474 10.774 10.422 10.4152 10.7296 9.95475C11.0373 9.49434 11.2015 8.95304 11.2015 8.39931C11.2015 7.65677 10.9065 6.94465 10.3815 6.4196C9.8564 5.89455 9.14428 5.59958 8.40175 5.59958Z" fill="#4B164C"/>
</g>
</svg>
