<svg width="16" height="16" viewBox="0 0 16 16" fill="none" xmlns="http://www.w3.org/2000/svg">
<path d="M3.41406 9.00037H11C11.2652 9.00037 11.5196 8.89502 11.7071 8.70748C11.8946 8.51994 12 8.26559 12 8.00037C12 7.73516 11.8946 7.4808 11.7071 7.29327C11.5196 7.10573 11.2652 7.00037 11 7.00037H3.41406L4.70703 5.70741C4.89369 5.51971 4.9983 5.26566 4.99793 5.00095C4.99756 4.73624 4.89224 4.48248 4.70507 4.29531C4.51789 4.10813 4.26413 4.00281 3.99942 4.00244C3.73471 4.00207 3.48066 4.10669 3.29296 4.29334L0.292965 7.29334C0.200087 7.38617 0.126409 7.4964 0.0761409 7.61771C0.025873 7.73903 0 7.86906 0 8.00037C0 8.13169 0.025873 8.26172 0.0761409 8.38304C0.126409 8.50435 0.200087 8.61457 0.292965 8.70741L3.29296 11.7074C3.38572 11.8007 3.49597 11.8747 3.61739 11.9253C3.73882 11.9759 3.86903 12.0021 4.00057 12.0022C4.13212 12.0024 4.2624 11.9766 4.38397 11.9264C4.50553 11.8761 4.61599 11.8024 4.709 11.7094C4.80202 11.6164 4.87576 11.5059 4.92602 11.3843C4.97627 11.2628 5.00205 11.1325 5.00186 11.001C5.00168 10.8694 4.97554 10.7392 4.92495 10.6178C4.87436 10.4963 4.8003 10.3861 4.70703 10.2933L3.41406 9.00037Z" fill="#4C0B84"/>
<path d="M15 1.60752e-07H7C6.86866 -7.43302e-05 6.73859 0.0257406 6.61723 0.0759689C6.49587 0.126197 6.3856 0.199854 6.29273 0.292727C6.19985 0.385601 6.1262 0.495869 6.07597 0.617229C6.02574 0.738588 5.99993 0.868657 6 1V3C6 3.26522 6.10536 3.51957 6.29289 3.70711C6.48043 3.89464 6.73478 4 7 4C7.26522 4 7.51957 3.89464 7.70711 3.70711C7.89464 3.51957 8 3.26522 8 3V2H14V14H8V13C8 12.7348 7.89464 12.4804 7.70711 12.2929C7.51957 12.1054 7.26522 12 7 12C6.73478 12 6.48043 12.1054 6.29289 12.2929C6.10536 12.4804 6 12.7348 6 13V15C5.99993 15.1313 6.02574 15.2614 6.07597 15.3828C6.1262 15.5041 6.19985 15.6144 6.29273 15.7073C6.3856 15.8001 6.49587 15.8738 6.61723 15.924C6.73859 15.9743 6.86866 16.0001 7 16H15C15.1313 16.0001 15.2614 15.9743 15.3828 15.924C15.5041 15.8738 15.6144 15.8001 15.7073 15.7073C15.8001 15.6144 15.8738 15.5041 15.924 15.3828C15.9743 15.2614 16.0001 15.1313 16 15V1C16.0001 0.868657 15.9743 0.738588 15.924 0.617229C15.8738 0.495869 15.8001 0.385601 15.7073 0.292727C15.6144 0.199854 15.5041 0.126197 15.3828 0.0759689C15.2614 0.0257406 15.1313 -7.43302e-05 15 1.60752e-07Z" fill="#4C0B84"/>
</svg>
