<svg width="18" height="18" viewBox="0 0 18 18" fill="none" xmlns="http://www.w3.org/2000/svg">
<path d="M8.26328 10.8293C9.78452 11.4143 10.7007 12.3406 11.8531 13.7627M8.26328 10.8293C6.41188 10.1175 5.01961 9.93188 3.75781 9.95322M8.26328 10.8293C9.70566 9.24293 10.6539 8.09884 14.234 7.57227" stroke="#4C0B84" stroke-width="1.48571" stroke-linecap="round" stroke-linejoin="round"/>
<path d="M7.09375 7.0957H7.09475" stroke="#4C0B84" stroke-width="1.48571" stroke-linecap="round" stroke-linejoin="round"/>
<path d="M8.99554 14.7137C12.1514 14.7137 14.7098 12.1554 14.7098 8.99944C14.7098 5.84353 12.1514 3.28516 8.99554 3.28516C5.83962 3.28516 3.28125 5.84353 3.28125 8.99944C3.28125 12.1554 5.83962 14.7137 8.99554 14.7137Z" stroke="#4C0B84" stroke-width="1.48571" stroke-linecap="round" stroke-linejoin="round"/>
<path d="M17 9C17 10.1378 16.7625 11.2201 16.3343 12.2M9 17C10.1378 17 11.2201 16.7625 12.2 16.3343C13.1227 15.9312 13.9547 15.359 14.6569 14.6569M1 9C1 7.86224 1.23752 6.77994 1.66567 5.8C2.06884 4.87725 2.64104 4.04525 3.34314 3.34314M9 1C7.86224 1 6.77994 1.23752 5.8 1.66567M5.8 16.3343C4.87725 15.9312 4.04525 15.359 3.34314 14.6569C2.64104 13.9547 2.06884 13.1227 1.66567 12.2M12.0657 1.8C12.9884 2.20317 13.8204 2.77538 14.5226 3.47748C15.2246 4.17958 15.7968 5.01158 16.2 5.93434" stroke="#4C0B84" stroke-width="1.48571" stroke-linecap="round" stroke-linejoin="round"/>
</svg>
