<svg width="18" height="18" viewBox="0 0 18 18" fill="none" xmlns="http://www.w3.org/2000/svg">
<path fill-rule="evenodd" clip-rule="evenodd" d="M4.73535 4.73584C4.73535 2.67259 6.40795 1 8.47119 1C10.5344 1 12.207 2.67259 12.207 4.73584C12.207 6.79908 10.5344 8.47168 8.47119 8.47168C6.40795 8.47168 4.73535 6.79908 4.73535 4.73584ZM8.47119 2.49434C7.23321 2.49434 6.22969 3.49789 6.22969 4.73584C6.22969 5.97378 7.23321 6.97734 8.47119 6.97734C9.70917 6.97734 10.7127 5.97378 10.7127 4.73584C10.7127 3.49789 9.70917 2.49434 8.47119 2.49434Z" fill="#4C0B84" stroke="#4C0B84" stroke-width="0.1"/>
<path d="M2.54058 15.9433C2.90826 12.9947 5.42352 10.7131 8.47168 10.7131C9.14054 10.7131 9.78228 10.8227 10.3809 11.0243L11.089 11.2628L11.5659 9.84659L10.8578 9.6081C10.1076 9.35541 9.30484 9.21875 8.47168 9.21875C4.34518 9.21875 1 12.564 1 16.6904V17.4376H7.72451V15.9433H2.54058Z" fill="#4C0B84" stroke="#4C0B84" stroke-width="0.1"/>
<path fill-rule="evenodd" clip-rule="evenodd" d="M14.4509 9.65674L17.0019 12.2077L11.7717 17.4379H9.2207V14.8869L14.4509 9.65674ZM10.715 15.5059V15.9436H11.1527L14.8886 12.2077L14.4509 11.77L10.715 15.5059Z" fill="#4C0B84" stroke="#4C0B84" stroke-width="0.1"/>
</svg>
