<svg width="13" height="17" viewBox="0 0 13 17" fill="none" xmlns="http://www.w3.org/2000/svg">
<path d="M1.39447e-07 16.1459C-6.60355e-05 16.2363 0.0234215 16.3253 0.0681509 16.4039C0.11288 16.4825 0.17731 16.5481 0.255097 16.5942C0.332884 16.6404 0.421347 16.6655 0.511778 16.667C0.60221 16.6686 0.691492 16.6466 0.770837 16.6032L6.25003 13.6136L11.7292 16.6032C11.8086 16.6466 11.8978 16.6686 11.9883 16.667C12.0787 16.6655 12.1672 16.6404 12.245 16.5942C12.3227 16.5481 12.3872 16.4825 12.4319 16.4039C12.4766 16.3253 12.5001 16.2363 12.5001 16.1459V2.08334C12.5001 1.53081 12.2806 1.0009 11.8899 0.610197C11.4992 0.219494 10.9692 0 10.4167 0L2.08334 0C1.53081 0 1.0009 0.219494 0.610197 0.610197C0.219494 1.0009 1.39447e-07 1.53081 1.39447e-07 2.08334V16.1459ZM6.25003 4.59377C7.69482 3.10939 11.3063 5.70836 6.25003 9.049C1.19375 5.70836 4.80523 3.11043 6.25003 4.59585V4.59377Z" fill="#4C0B84"/>
</svg>
