<svg width="12" height="12" viewBox="0 0 12 12" fill="none" xmlns="http://www.w3.org/2000/svg">
<path d="M8.69678 9.3245L8.69674 9.32453C7.82493 10.0287 6.72713 10.3638 5.61264 10.2549L5.61252 10.2549C4.77921 10.1755 3.99883 9.86331 3.35644 9.35407H4.31045H4.36045V9.30407V8.62573V8.57573H4.31045H2.10583H2.05583V8.62573V10.8303V10.8803H2.10583H2.78418H2.83418V10.8303V9.92762C3.59887 10.5472 4.53541 10.9333 5.54358 11.0243C5.70612 11.0414 5.86038 11.0499 6.01478 11.0499C7.1709 11.0499 8.28436 10.656 9.18365 9.91947C10.8192 8.60064 11.4615 6.45087 10.8193 4.44714L10.8041 4.39973L10.7566 4.41472L10.1122 4.61823L10.0646 4.63325L10.0795 4.68087C10.6162 6.39145 10.0795 8.20993 8.69678 9.3245Z" fill="white" stroke="white" stroke-width="0.1"/>
<path d="M8.75693 2.73351H7.78846H7.73846V2.78351V3.46185V3.51185H7.78846H9.99307H10.0431V3.46185V1.25724V1.20724H9.99307H9.31473H9.26473V1.25724V2.14013C7.44878 0.607433 4.73688 0.522714 2.83043 2.07487C1.20347 3.39359 0.561151 5.5262 1.18626 7.52142L1.20124 7.56924L1.24903 7.55415L1.89346 7.35065L1.94103 7.33562L1.92611 7.28801C1.39803 5.60319 1.94282 3.79309 3.31731 2.68679L3.31748 2.68665C4.93281 1.37471 7.22228 1.44256 8.75693 2.73351Z" fill="white" stroke="white" stroke-width="0.1"/>
</svg>
