<svg width="32" height="24" viewBox="0 0 32 24" fill="none" xmlns="http://www.w3.org/2000/svg">
<path d="M21.1933 7.94064H15.7578V5.97061C15.7578 5.08542 16.4848 4.35804 17.37 4.35804H28.2884C29.1736 4.35804 29.901 5.08542 29.901 5.97061V11.9882C29.901 12.8734 29.174 13.6008 28.2884 13.6008C27.877 13.6008 27.5434 13.9344 27.5434 14.3454V15.7433L25.0258 13.7608C24.8945 13.6573 24.7337 13.6004 24.5664 13.6008H24.2955V11.0428C24.2955 9.33485 22.9013 7.94064 21.1933 7.94064ZM12.197 14.7965C13.1765 14.7965 13.1765 13.3068 12.197 13.3068H11.6685C10.689 13.3068 10.689 14.7965 11.6685 14.7965H12.197ZM15.8001 14.7965C16.78 14.7965 16.78 13.3068 15.8001 13.3068H15.272C14.2921 13.3068 14.2921 14.7965 15.272 14.7965H15.8001ZM19.4036 14.7965C20.3831 14.7965 20.3831 13.3068 19.4036 13.3068H18.8751C17.8956 13.3068 17.8956 14.7965 18.8751 14.7965H19.4036ZM17.8243 2.86841C17.3102 1.78982 16.2217 1.09326 15.0223 1.09326H4.10425C2.39663 1.09326 1.00205 2.48784 1.00205 4.19546V10.2127C1.00205 11.6374 1.98266 12.8822 3.35925 13.2243V15.5014C3.35925 16.1466 4.12003 16.4758 4.59345 16.0626L7.17306 14.0313V17.0601C7.17306 18.4847 8.15366 19.7296 9.53062 20.0716V22.3488C9.53062 22.994 10.291 23.3236 10.7648 22.9103L14.2538 20.1623H21.1933C22.9013 20.1623 24.2955 18.7681 24.2955 17.0601V15.0904H24.3098L27.7989 17.8381C28.2726 18.2513 29.0331 17.9218 29.0331 17.2766V14.9994C30.41 14.6577 31.3906 13.4125 31.3906 11.9882V5.97061C31.3906 4.26299 29.996 2.86841 28.2884 2.86841H17.8243ZM7.17306 12.1379L4.84888 13.9681V12.5703C4.84888 12.1589 4.51565 11.8256 4.10425 11.8256C3.21869 11.8256 2.49168 11.0983 2.49168 10.2127V4.19546C2.49168 3.31027 3.21906 2.58289 4.10425 2.58289H15.0223C15.4723 2.58289 15.8954 2.77079 16.2011 3.09815C15.0392 3.57377 14.2682 4.70852 14.2682 5.97061V7.94064H10.2753C8.56726 7.94064 7.17306 9.33485 7.17306 11.0428V12.1379ZM10.2753 9.43027H21.1933C22.0789 9.43027 22.8063 10.1573 22.8063 11.0428V17.0601C22.8063 17.9456 22.0789 18.673 21.1933 18.673H13.9973C13.83 18.6726 13.6692 18.7295 13.5375 18.833L11.0199 20.8155V19.4176C11.0199 19.0062 10.6867 18.673 10.2753 18.673C9.39007 18.673 8.66269 17.9456 8.66269 17.0601V11.0428C8.66269 10.1573 9.39007 9.43027 10.2753 9.43027Z" fill="#4C0B84" stroke="#4C0B84" stroke-width="0.217077"/>
</svg>
