<svg width="18" height="19" viewBox="0 0 18 19" fill="none" xmlns="http://www.w3.org/2000/svg">
<path d="M14.8125 5H3.4375C2.79103 5 2.17105 5.25681 1.71393 5.71393C1.25681 6.17105 1 6.79103 1 7.4375V15.5625C1 16.209 1.25681 16.829 1.71393 17.2861C2.17105 17.7432 2.79103 18 3.4375 18H14.8125C15.459 18 16.079 17.7432 16.5361 17.2861C16.9932 16.829 17.25 16.209 17.25 15.5625V7.4375C17.25 6.79103 16.9932 6.17105 16.5361 5.71393C16.079 5.25681 15.459 5 14.8125 5ZM15.625 13.3688H13.1875C12.6919 13.3688 12.2166 13.1719 11.8661 12.8214C11.5156 12.4709 11.3187 11.9956 11.3187 11.5C11.3187 11.0044 11.5156 10.5291 11.8661 10.1786C12.2166 9.82814 12.6919 9.63125 13.1875 9.63125H15.625V13.3688ZM15.625 8.25H13.1875C12.3255 8.25 11.4989 8.59241 10.8894 9.2019C10.2799 9.8114 9.9375 10.638 9.9375 11.5C9.9375 12.362 10.2799 13.1886 10.8894 13.7981C11.4989 14.4076 12.3255 14.75 13.1875 14.75H15.625V15.5625C15.625 15.778 15.5394 15.9847 15.387 16.137C15.2347 16.2894 15.028 16.375 14.8125 16.375H3.4375C3.22201 16.375 3.01535 16.2894 2.86298 16.137C2.7106 15.9847 2.625 15.778 2.625 15.5625V7.4375C2.625 7.22201 2.7106 7.01535 2.86298 6.86298C3.01535 6.7106 3.22201 6.625 3.4375 6.625H14.8125C15.028 6.625 15.2347 6.7106 15.387 6.86298C15.5394 7.01535 15.625 7.22201 15.625 7.4375V8.25ZM12.375 11.5C12.375 11.6607 12.4227 11.8178 12.5119 11.9514C12.6012 12.085 12.7281 12.1892 12.8766 12.2507C13.025 12.3121 13.1884 12.3282 13.346 12.2969C13.5036 12.2655 13.6484 12.1882 13.762 12.0745C13.8757 11.9609 13.953 11.8161 13.9844 11.6585C14.0157 11.5009 13.9996 11.3375 13.9382 11.1891C13.8767 11.0406 13.7725 10.9137 13.6389 10.8244C13.5053 10.7352 13.3482 10.6875 13.1875 10.6875C12.972 10.6875 12.7653 10.7731 12.613 10.9255C12.4606 11.0778 12.375 11.2845 12.375 11.5Z" fill="#4C0B84" stroke="#4C0B84" stroke-width="0.1"/>
<path d="M11.2568 0.875C11.6121 0.875 11.9004 1.16326 11.9004 1.51855V3.85059C11.9004 4.20588 11.6121 4.49414 11.2568 4.49414C10.9015 4.49414 10.6133 4.20587 10.6133 3.85059V2.16211H5.16211V3.85059C5.16211 4.20581 4.87375 4.49403 4.51855 4.49414C4.16326 4.49414 3.875 4.20588 3.875 3.85059V1.51855C3.875 1.16326 4.16326 0.875 4.51855 0.875H11.2568Z" fill="#4C0B84" stroke="#4C0B84" stroke-width="0.25"/>
<path d="M8.41113 2.68945C8.55014 2.68954 8.68551 2.73492 8.79688 2.81836L9.57422 3.40137C9.85843 3.61448 9.91609 4.01755 9.70312 4.30176C9.57677 4.47024 9.38282 4.55957 9.1875 4.55957C9.05342 4.55952 8.91827 4.517 8.80273 4.43066H8.80176L8.19727 3.97656H7.58789L6.98242 4.43066C6.69768 4.64395 6.29506 4.58611 6.08203 4.30176C5.86898 4.01765 5.92599 3.6146 6.20996 3.40137L6.98828 2.81836C7.09975 2.73485 7.23488 2.68945 7.37402 2.68945H8.41113Z" fill="#4C0B84" stroke="#4C0B84" stroke-width="0.25"/>
<path d="M14.6201 1.39355C14.9754 1.39355 15.2637 1.68182 15.2637 2.03711V3.85156C15.2634 4.20664 14.9753 4.49414 14.6201 4.49414C14.265 4.49406 13.9768 4.2066 13.9766 3.85156V2.68066H13.0654C12.7102 2.68066 12.422 2.3923 12.4219 2.03711C12.4219 1.68182 12.7101 1.39355 13.0654 1.39355H14.6201Z" fill="#4C0B84" stroke="#4C0B84" stroke-width="0.25"/>
</svg>
