<svg width="18" height="19" viewBox="0 0 18 19" fill="none" xmlns="http://www.w3.org/2000/svg">
<path d="M14.6296 10.2361V8.7037H13.4444V10.4815C13.4445 10.6386 13.5069 10.7893 13.6181 10.9004L15.2222 12.5047V13.4444H2.18519V12.5047L3.78933 10.9004C3.90047 10.7893 3.96293 10.6386 3.96296 10.4815V8.11111C3.96144 7.27845 4.17965 6.46013 4.59556 5.73878C5.01147 5.01743 5.61036 4.41859 6.33174 4.00274C7.05313 3.5869 7.87147 3.36876 8.70413 3.37036C9.53679 3.37195 10.3543 3.59324 11.0741 4.01185V2.68693C10.51 2.43719 9.91001 2.27802 9.2963 2.21529V1H8.11111V2.21529C6.65018 2.36393 5.29625 3.04899 4.31113 4.13801C3.32601 5.22703 2.77968 6.64264 2.77778 8.11111V10.2361L1.17363 11.8403C1.06249 11.9514 1.00003 12.1021 1 12.2593V14.037C1 14.1942 1.06243 14.3449 1.17357 14.4561C1.2847 14.5672 1.43543 14.6296 1.59259 14.6296H5.74074V15.2222C5.74074 16.008 6.05291 16.7617 6.60857 17.3174C7.16424 17.873 7.91788 18.1852 8.7037 18.1852C9.48953 18.1852 10.2432 17.873 10.7988 17.3174C11.3545 16.7617 11.6667 16.008 11.6667 15.2222V14.6296H15.8148C15.972 14.6296 16.1227 14.5672 16.2338 14.4561C16.345 14.3449 16.4074 14.1942 16.4074 14.037V12.2593C16.4074 12.1021 16.3449 11.9514 16.2338 11.8403L14.6296 10.2361ZM10.4815 15.2222C10.4815 15.6937 10.2942 16.1459 9.96078 16.4793C9.62739 16.8127 9.1752 17 8.7037 17C8.23221 17 7.78002 16.8127 7.44662 16.4793C7.11323 16.1459 6.92593 15.6937 6.92593 15.2222V14.6296H10.4815V15.2222Z" fill="#4C0B84" stroke="#4C0B84" stroke-width="0.4"/>
<path d="M14.6292 7.51857C15.9383 7.51857 16.9995 6.45732 16.9995 5.1482C16.9995 3.83908 15.9383 2.77783 14.6292 2.77783C13.32 2.77783 12.2588 3.83908 12.2588 5.1482C12.2588 6.45732 13.32 7.51857 14.6292 7.51857Z" fill="#4C0B84" stroke="#4C0B84" stroke-width="0.4"/>
</svg>
