<svg width="17" height="18" viewBox="0 0 17 18" fill="none" xmlns="http://www.w3.org/2000/svg">
<path d="M13.8288 9.4361V7.90372H12.6437V9.68149C12.6437 9.83865 12.7062 9.98935 12.8173 10.1005L14.4214 11.7047V12.6445H1.3844V11.7047L2.98855 10.1005C3.09969 9.98935 3.16215 9.83865 3.16218 9.68149V7.31112C3.16066 6.47846 3.37887 5.66014 3.79478 4.93879C4.21069 4.21744 4.80958 3.61861 5.53096 3.20276C6.25235 2.78691 7.07069 2.56877 7.90335 2.57037C8.73601 2.57197 9.55351 2.79325 10.2733 3.21186V1.88695C9.7092 1.6372 9.10923 1.47803 8.49551 1.4153V0.200012H7.31033V1.4153C5.8494 1.56394 4.49547 2.24901 3.51035 3.33802C2.52523 4.42704 1.9789 5.84265 1.977 7.31112V9.4361L0.372848 11.0403C0.261708 11.1514 0.199252 11.3021 0.199219 11.4593V13.237C0.199219 13.3942 0.261652 13.5449 0.372785 13.6561C0.483918 13.7672 0.634646 13.8296 0.791811 13.8296H4.93996V14.4222C4.93996 15.2081 5.25213 15.9617 5.80779 16.5174C6.36345 17.073 7.1171 17.3852 7.90292 17.3852C8.68875 17.3852 9.44239 17.073 9.99805 16.5174C10.5537 15.9617 10.8659 15.2081 10.8659 14.4222V13.8296H15.014C15.1712 13.8296 15.3219 13.7672 15.4331 13.6561C15.5442 13.5449 15.6066 13.3942 15.6066 13.237V11.4593C15.6066 11.3021 15.5441 11.1514 15.433 11.0403L13.8288 9.4361ZM9.6807 14.4222C9.6807 14.8937 9.4934 15.3459 9.16 15.6793C8.8266 16.0127 8.37442 16.2 7.90292 16.2C7.43143 16.2 6.97924 16.0127 6.64584 15.6793C6.31245 15.3459 6.12514 14.8937 6.12514 14.4222V13.8296H9.6807V14.4222Z" fill="#4C0B84" stroke="#4C0B84" stroke-width="0.4"/>
<path d="M13.8274 6.71865C15.1365 6.71865 16.1978 5.6574 16.1978 4.34828C16.1978 3.03916 15.1365 1.97791 13.8274 1.97791C12.5183 1.97791 11.457 3.03916 11.457 4.34828C11.457 5.6574 12.5183 6.71865 13.8274 6.71865Z" fill="#4C0B84" stroke="#4C0B84" stroke-width="0.4"/>
</svg>
