<svg width="16" height="16" viewBox="0 0 16 16" fill="none" xmlns="http://www.w3.org/2000/svg">
<path d="M12.9673 13.4669H1.96625C1.89621 13.4669 1.82756 13.4482 1.76799 13.4128C1.70842 13.3775 1.66027 13.3269 1.62895 13.2668C1.59763 13.2067 1.58437 13.1394 1.59066 13.0725C1.59695 13.0056 1.62254 12.9416 1.66456 12.8879L1.96625 12.5021V6.22934C1.96625 5.26675 2.21062 4.35916 2.64429 3.56086L0 1.02411L1.06722 0L16 14.3303L14.9328 15.3537L12.9673 13.4669ZM14.0338 10.417L4.65051 1.41277C5.55915 0.83083 6.61539 0.496534 7.70652 0.445545C8.79765 0.394556 9.88274 0.628788 10.846 1.12325C11.8093 1.61771 12.6146 2.35385 13.176 3.25311C13.7374 4.15238 14.0339 5.18104 14.0338 6.22934V10.417ZM6.11445 14.1906H9.88555C9.88555 14.6705 9.68689 15.1307 9.33328 15.47C8.97967 15.8094 8.50008 16 8 16C7.49992 16 7.02033 15.8094 6.66672 15.47C6.31311 15.1307 6.11445 14.6705 6.11445 14.1906Z" fill="#4B164C"/>
</svg>
