<svg width="32" height="20" viewBox="0 0 32 20" fill="none" xmlns="http://www.w3.org/2000/svg">
<path d="M0 9.80245C1.50399 6.85228 3.79436 4.37537 6.618 2.64546C9.44163 0.915547 12.6886 0 16 0C19.3114 0 22.5584 0.915547 25.382 2.64546C28.2056 4.37537 30.496 6.85228 32 9.80245C30.496 12.7526 28.2056 15.2295 25.382 16.9594C22.5584 18.6894 19.3114 19.6049 16 19.6049C12.6886 19.6049 9.44163 18.6894 6.618 16.9594C3.79436 15.2295 1.50399 12.7526 0 9.80245ZM16 16.3331C17.732 16.3331 19.3931 15.645 20.6178 14.4203C21.8426 13.1956 22.5306 11.5345 22.5306 9.80245C22.5306 8.07043 21.8426 6.40934 20.6178 5.18461C19.3931 3.95988 17.732 3.27184 16 3.27184C14.268 3.27184 12.6069 3.95988 11.3822 5.18461C10.1574 6.40934 9.46939 8.07043 9.46939 9.80245C9.46939 11.5345 10.1574 13.1956 11.3822 14.4203C12.6069 15.645 14.268 16.3331 16 16.3331ZM16 13.0678C15.134 13.0678 14.3034 12.7237 13.6911 12.1114C13.0787 11.499 12.7347 10.6685 12.7347 9.80245C12.7347 8.93644 13.0787 8.1059 13.6911 7.49353C14.3034 6.88117 15.134 6.53715 16 6.53715C16.866 6.53715 17.6966 6.88117 18.3089 7.49353C18.9213 8.1059 19.2653 8.93644 19.2653 9.80245C19.2653 10.6685 18.9213 11.499 18.3089 12.1114C17.6966 12.7237 16.866 13.0678 16 13.0678Z" fill="white"/>
</svg>
