<svg width="18" height="19" viewBox="0 0 18 19" fill="none" xmlns="http://www.w3.org/2000/svg">
<path fill-rule="evenodd" clip-rule="evenodd" d="M5 5C5 2.79086 6.79086 1 9 1C11.2091 1 13 2.79086 13 5C13 7.20914 11.2091 9 9 9C6.79086 9 5 7.20914 5 5ZM9 2.6C7.67448 2.6 6.6 3.67452 6.6 5C6.6 6.32548 7.67448 7.4 9 7.4C10.3255 7.4 11.4 6.32548 11.4 5C11.4 3.67452 10.3255 2.6 9 2.6Z" fill="#4C0B84" stroke="#4C0B84" stroke-width="0.2"/>
<path fill-rule="evenodd" clip-rule="evenodd" d="M1 17.8C1 13.3818 4.58172 9.80005 9 9.80005C13.4182 9.80005 17 13.3818 17 17.8V18.6H1V17.8ZM2.64951 17H15.3505C14.9568 13.843 12.2637 11.4 9 11.4C5.7363 11.4 3.04319 13.843 2.64951 17Z" fill="#4C0B84" stroke="#4C0B84" stroke-width="0.2"/>
</svg>
