<svg width="20" height="20" viewBox="0 0 20 20" fill="none" xmlns="http://www.w3.org/2000/svg">
<path d="M19.9709 15.1191L19.0626 19.057C18.935 19.6137 18.4458 20.0032 17.8727 20.0032C8.0165 20.0024 0 11.9859 0 2.12937C0 1.55665 0.389457 1.06675 0.946197 0.939786L4.88413 0.0314834C5.45763 -0.101422 6.04363 0.196267 6.28194 0.739373L8.09932 4.97812C8.31177 5.47739 8.16847 6.05909 7.7485 6.4021L5.64515 8.09096C6.97264 10.7952 9.17131 12.9938 11.8763 14.3221L13.5984 12.2203C13.9378 11.7992 14.5238 11.6535 15.0231 11.8697L19.2619 13.6867C19.7717 13.9549 20.1038 14.5487 19.9709 15.1191Z" fill="#4B164C" fill-opacity="0.6"/>
</svg>
