<svg width="42" height="42" viewBox="0 0 42 42" fill="none" xmlns="http://www.w3.org/2000/svg">
<path d="M14.3798 1.85638C18.7149 0.83955 23.2264 0.839527 27.5615 1.85638C33.8218 3.3249 38.7102 8.21318 40.1787 14.4736C41.1955 18.8086 41.1955 23.3202 40.1787 27.6552C38.7102 33.9156 33.8219 38.8039 27.5615 40.2724C23.2264 41.2893 18.7148 41.2892 14.3798 40.2724C8.11944 38.8039 3.23115 33.9156 1.76264 27.6552C0.745778 23.3202 0.745796 18.8086 1.76264 14.4736C3.23113 8.21316 8.11941 3.32488 14.3798 1.85638Z" fill="white"/>
<path d="M14.3798 1.85638L14.2908 1.47664L14.2908 1.47664L14.3798 1.85638ZM27.5615 1.85638L27.6505 1.47664L27.6505 1.47664L27.5615 1.85638ZM40.1787 14.4736L40.5584 14.3845V14.3845L40.1787 14.4736ZM40.1787 27.6552L40.5584 27.7443V27.7443L40.1787 27.6552ZM27.5615 40.2724L27.6505 40.6521L27.5615 40.2724ZM14.3798 40.2724L14.2908 40.6521L14.2908 40.6521L14.3798 40.2724ZM1.76264 27.6552L1.3829 27.7443L1.3829 27.7443L1.76264 27.6552ZM1.76264 14.4736L1.3829 14.3845L1.3829 14.3845L1.76264 14.4736ZM14.3798 1.85638L14.4689 2.23613C18.7453 1.23304 23.196 1.23301 27.4724 2.23613L27.5615 1.85638L27.6505 1.47664C23.2569 0.44604 18.6844 0.446064 14.2908 1.47664L14.3798 1.85638ZM27.5615 1.85638L27.4724 2.23613C33.5885 3.67081 38.3643 8.44648 39.7989 14.5626L40.1787 14.4736L40.5584 14.3845C39.0561 7.97988 34.0551 2.97899 27.6505 1.47664L27.5615 1.85638ZM40.1787 14.4736L39.7989 14.5626C40.802 18.8391 40.802 23.2897 39.7989 27.5661L40.1787 27.6552L40.5584 27.7443C41.589 23.3507 41.589 18.7781 40.5584 14.3845L40.1787 14.4736ZM40.1787 27.6552L39.7989 27.5661C38.3642 33.6823 33.5886 38.458 27.4724 39.8927L27.5615 40.2724L27.6505 40.6521C34.0552 39.1498 39.0561 34.1489 40.5584 27.7443L40.1787 27.6552ZM27.5615 40.2724L27.4724 39.8927C23.196 40.8958 18.7453 40.8957 14.4689 39.8927L14.3798 40.2724L14.2908 40.6521C18.6844 41.6827 23.2569 41.6827 27.6505 40.6521L27.5615 40.2724ZM14.3798 40.2724L14.4689 39.8927C8.35274 38.458 3.57706 33.6823 2.14238 27.5661L1.76264 27.6552L1.3829 27.7443C2.88524 34.1489 7.88614 39.1498 14.2908 40.6521L14.3798 40.2724ZM1.76264 27.6552L2.14238 27.5661C1.13926 23.2897 1.13928 18.8391 2.14238 14.5626L1.76264 14.4736L1.3829 14.3845C0.35231 18.7781 0.352292 23.3507 1.3829 27.7443L1.76264 27.6552ZM1.76264 14.4736L2.14238 14.5626C3.57704 8.44646 8.35272 3.67079 14.4689 2.23613L14.3798 1.85638L14.2908 1.47664C7.88611 2.97897 2.88522 7.97986 1.3829 14.3845L1.76264 14.4736Z" fill="#DBD0DB"/>
<path d="M27.9516 13.5742H13.9722C13.1777 13.5742 12.4157 13.8898 11.854 14.4516C11.2922 15.0134 10.9766 15.7753 10.9766 16.5698V26.5551C10.9766 27.3496 11.2922 28.1115 11.854 28.6733C12.4157 29.2351 13.1777 29.5507 13.9722 29.5507H27.9516C28.746 29.5507 29.508 29.2351 30.0698 28.6733C30.6315 28.1115 30.9472 27.3496 30.9472 26.5551V16.5698C30.9472 15.7753 30.6315 15.0134 30.0698 14.4516C29.508 13.8898 28.746 13.5742 27.9516 13.5742ZM13.9722 27.5536C13.7073 27.5536 13.4533 27.4484 13.2661 27.2612C13.0788 27.0739 12.9736 26.8199 12.9736 26.5551V24.1387L16.2688 20.8535C16.4554 20.6705 16.7064 20.5681 16.9677 20.5681C17.2291 20.5681 17.4801 20.6705 17.6667 20.8535L24.3668 27.5536H13.9722ZM28.9501 26.5551C28.9501 26.8199 28.8449 27.0739 28.6576 27.2612C28.4704 27.4484 28.2164 27.5536 27.9516 27.5536H27.1827L23.3783 23.7293L24.257 22.8506C24.4437 22.6676 24.6946 22.5651 24.956 22.5651C25.2173 22.5651 25.4683 22.6676 25.6549 22.8506L28.9501 26.1357V26.5551ZM28.9501 23.3199L27.0729 21.4526C26.5038 20.9059 25.7452 20.6005 24.956 20.6005C24.1668 20.6005 23.4082 20.9059 22.8391 21.4526L21.9604 22.3313L19.0846 19.4556C18.5155 18.9088 17.7569 18.6034 16.9677 18.6034C16.1785 18.6034 15.42 18.9088 14.8509 19.4556L12.9736 21.3228V16.5698C12.9736 16.305 13.0788 16.051 13.2661 15.8637C13.4533 15.6765 13.7073 15.5713 13.9722 15.5713H27.9516C28.2164 15.5713 28.4704 15.6765 28.6576 15.8637C28.8449 16.051 28.9501 16.305 28.9501 16.5698V23.3199Z" fill="#4C0B84"/>
</svg>
