<svg width="28" height="28" viewBox="0 0 28 28" fill="none" xmlns="http://www.w3.org/2000/svg">
<path fill-rule="evenodd" clip-rule="evenodd" d="M1.01555 9.54462C0.32815 12.4751 0.328151 15.5249 1.01555 18.4554C2.00824 22.6874 5.31262 25.9918 9.54462 26.9844C12.4751 27.6718 15.5249 27.6718 18.4554 26.9844C22.6874 25.9918 25.9918 22.6874 26.9845 18.4554C27.6718 15.5249 27.6718 12.4751 26.9845 9.54462C25.9918 5.31262 22.6874 2.00824 18.4554 1.01555C15.5249 0.32815 12.4751 0.328153 9.54462 1.01555C5.31262 2.00824 2.00824 5.31262 1.01555 9.54462Z" fill="white"/>
<path d="M1.01555 18.4554L1.50234 18.3412L1.01555 18.4554ZM1.01555 9.54462L1.50234 9.6588L1.01555 9.54462ZM9.54462 26.9844L9.6588 26.4977H9.6588L9.54462 26.9844ZM18.4554 26.9844L18.3412 26.4977H18.3412L18.4554 26.9844ZM26.9845 18.4554L27.4712 18.5696L26.9845 18.4554ZM26.9845 9.54462L27.4712 9.43044L26.9845 9.54462ZM18.4554 1.01555L18.3412 1.50233L18.4554 1.01555ZM9.54462 1.01555L9.43044 0.528759L9.43044 0.528759L9.54462 1.01555ZM1.50234 18.3412C0.832555 15.4858 0.832554 12.5142 1.50233 9.6588L0.528761 9.43044C-0.176254 12.436 -0.176253 15.564 0.528761 18.5696L1.50234 18.3412ZM9.6588 26.4977C5.61168 25.5483 2.45166 22.3883 1.50234 18.3412L0.528761 18.5696C1.56482 22.9864 5.01355 26.4352 9.43043 27.4712L9.6588 26.4977ZM18.3412 26.4977C15.4858 27.1674 12.5142 27.1674 9.6588 26.4977L9.43043 27.4712C12.436 28.1763 15.564 28.1763 18.5696 27.4712L18.3412 26.4977ZM26.4977 18.3412C25.5483 22.3883 22.3883 25.5483 18.3412 26.4977L18.5696 27.4712C22.9865 26.4352 26.4352 22.9864 27.4712 18.5696L26.4977 18.3412ZM26.4977 9.65881C27.1674 12.5142 27.1674 15.4858 26.4977 18.3412L27.4712 18.5696C28.1763 15.564 28.1763 12.436 27.4712 9.43044L26.4977 9.65881ZM18.3412 1.50233C22.3883 2.45166 25.5483 5.61168 26.4977 9.65881L27.4712 9.43044C26.4352 5.01356 22.9864 1.56482 18.5696 0.528759L18.3412 1.50233ZM9.65881 1.50233C12.5142 0.832557 15.4858 0.832554 18.3412 1.50233L18.5696 0.528759C15.564 -0.176255 12.436 -0.176252 9.43044 0.528759L9.65881 1.50233ZM1.50234 9.6588C2.45166 5.61168 5.61169 2.45166 9.65881 1.50233L9.43044 0.528759C5.01356 1.56482 1.56482 5.01355 0.52876 9.43044L1.50234 9.6588Z" fill="#DBD0DB"/>
<path d="M20.0251 18.4737C20.4641 18.9131 20.4641 19.5966 20.0251 20.036C19.8056 20.2557 19.5374 20.3533 19.2447 20.3533C18.952 20.3533 18.6838 20.2557 18.4643 20.036L14.0014 15.5688L9.53845 20.036C9.31896 20.2557 9.05071 20.3533 8.75806 20.3533C8.46541 20.3533 8.19716 20.2557 7.97767 20.036C7.53869 19.5966 7.53869 18.9131 7.97767 18.4737L12.4406 14.0065L7.97767 9.53931C7.53869 9.09992 7.53869 8.4164 7.97767 7.97701C8.41664 7.53761 9.09947 7.53761 9.53845 7.97701L14.0014 12.4442L18.4643 7.97701C18.9033 7.53761 19.5861 7.53761 20.0251 7.97701C20.4641 8.4164 20.4641 9.09992 20.0251 9.53931L15.5622 14.0065L20.0251 18.4737Z" fill="#4C0B84"/>
</svg>
