<svg width="18" height="19" viewBox="0 0 18 19" fill="none" xmlns="http://www.w3.org/2000/svg">
<path d="M16.9998 9.00006C17.0011 8.38385 16.8481 7.77712 16.5548 7.23518C16.2615 6.69324 15.8372 6.23333 15.3206 5.89736C14.8041 5.56139 14.2116 5.36004 13.5973 5.31168C12.983 5.26332 12.3664 5.36948 11.8036 5.62048C11.2408 5.87148 10.7498 6.25934 10.3753 6.7487C10.0008 7.23807 9.75475 7.81338 9.65956 8.4222C9.56436 9.03102 9.62306 9.65398 9.83029 10.2343C10.0375 10.8146 10.3867 11.3339 10.846 11.7447V17.6154L13.3075 16.4562L15.7691 17.6154V11.7447C16.156 11.3997 16.4656 10.9768 16.6777 10.5039C16.8898 10.0309 16.9996 9.51842 16.9998 9.00006ZM14.5383 15.6756L13.3075 15.0962L12.0768 15.6756V12.477C12.8721 12.7642 13.7429 12.7642 14.5383 12.477V15.6756ZM13.3075 11.4616C12.8207 11.4616 12.3448 11.3172 11.94 11.0468C11.5352 10.7763 11.2197 10.3918 11.0334 9.94205C10.8471 9.49226 10.7983 8.99733 10.8933 8.51984C10.9883 8.04235 11.2227 7.60374 11.567 7.25949C11.9112 6.91524 12.3498 6.6808 12.8273 6.58582C13.3048 6.49084 13.7997 6.53959 14.2495 6.7259C14.6993 6.91221 15.0838 7.22771 15.3542 7.63251C15.6247 8.0373 15.7691 8.51322 15.7691 9.00006C15.7683 9.65268 15.5088 10.2784 15.0473 10.7398C14.5858 11.2013 13.9602 11.4609 13.3075 11.4616Z" fill="#4C0B84" stroke="#4C0B84" stroke-width="0.4"/>
<path d="M7.15385 1C6.17491 1.00108 5.23639 1.39043 4.54418 2.08264C3.85197 2.77485 3.46261 3.71338 3.46154 4.69231V8.38461H2.23077C1.90446 8.38499 1.59163 8.51478 1.3609 8.74551C1.13016 8.97625 1.00037 9.28908 1 9.61538V17C1.00037 17.3263 1.13016 17.6391 1.3609 17.8699C1.59163 18.1006 1.90446 18.2304 2.23077 18.2308H9V17H2.23077V9.61538H7.76923V8.38461H4.69231V4.69231C4.69157 4.08183 4.91771 3.49285 5.32683 3.03974C5.73594 2.58662 6.29883 2.3017 6.90622 2.24029C7.5136 2.17887 8.12214 2.34535 8.61367 2.7074C9.10521 3.06945 9.44467 3.60124 9.56615 4.19951L10.7723 3.95434C10.6004 3.12114 10.1468 2.37257 9.48778 1.83452C8.82878 1.29647 8.00459 1.00178 7.15385 1Z" fill="#4C0B84" stroke="#4C0B84" stroke-width="0.4"/>
</svg>
