<svg xmlns="http://www.w3.org/2000/svg" fill="none" viewBox="17.77 12.77 30.47 30.47">
<g filter="url(#filter0_d_1015_3)">
<rect x="18" y="13" width="30" height="30" rx="8" fill="#FFFAED"/>
<rect x="18" y="13" width="30" height="30" rx="8" stroke="#FFC10F" stroke-width="0.46875"/>
</g>
<path d="M28.2718 25.2269L29.5412 24.8383C29.6412 24.8077 29.7463 24.7971 29.8504 24.8071C29.9545 24.8171 30.0556 24.8476 30.148 24.8966C30.2403 24.9457 30.3221 25.0126 30.3886 25.0933C30.4552 25.174 30.5052 25.267 30.5358 25.367C30.5664 25.467 30.5769 25.5721 30.5669 25.6762C30.5569 25.7803 30.5265 25.8815 30.4774 25.9738C30.4283 26.0662 30.3615 26.148 30.2808 26.2145C30.2001 26.281 30.107 26.331 30.007 26.3616L26.9611 27.2933C26.861 27.3239 26.7559 27.3345 26.6517 27.3244C26.5476 27.3143 26.4464 27.2839 26.354 27.2347C26.2617 27.1855 26.1799 27.1186 26.1134 27.0378C26.0469 26.957 25.997 26.8639 25.9665 26.7638L25.0348 23.7178C25.0042 23.6178 24.9936 23.5128 25.0037 23.4086C25.0137 23.3045 25.0441 23.2034 25.0932 23.111C25.1423 23.0187 25.2091 22.9369 25.2898 22.8704C25.3705 22.8038 25.4635 22.7538 25.5636 22.7232C25.7656 22.6615 25.9839 22.6825 26.1704 22.7816C26.3569 22.8808 26.4964 23.05 26.5582 23.252L26.9085 24.3995C28.8261 21.446 32.6301 20.1758 36.0072 21.5598C37.0172 21.9738 37.9242 22.6041 38.6644 23.4063C39.4045 24.2085 39.9599 25.1632 40.2914 26.2031C40.3254 26.3033 40.3391 26.4093 40.3317 26.5148C40.3242 26.6203 40.2959 26.7233 40.2482 26.8178C40.2005 26.9122 40.1345 26.9962 40.0541 27.0648C39.9736 27.1335 39.8802 27.1854 39.7794 27.2176C39.6787 27.2497 39.5725 27.2615 39.4671 27.2522C39.3617 27.2428 39.2593 27.2126 39.1657 27.1632C39.0721 27.1139 38.9894 27.0464 38.9222 26.9647C38.855 26.8829 38.8048 26.7886 38.7744 26.6873C38.438 25.6309 37.8097 24.6912 36.9619 23.9766C36.1142 23.2621 35.0817 22.8019 33.9835 22.6492C32.8854 22.4965 31.7665 22.6575 30.756 23.1136C29.7455 23.5697 28.8837 24.3023 28.2718 25.2269ZM38.088 31.7527L36.6746 32.1054C36.5722 32.1335 36.4653 32.1408 36.3601 32.127C36.2548 32.1131 36.1535 32.0784 36.0619 32.0248C35.9703 31.9712 35.8903 31.8999 35.8267 31.8149C35.763 31.73 35.717 31.6332 35.6913 31.5302C35.6656 31.4273 35.6608 31.3202 35.6771 31.2153C35.6933 31.1105 35.7304 31.0099 35.7861 30.9196C35.8418 30.8292 35.915 30.7509 36.0014 30.6893C36.0878 30.6276 36.1856 30.5839 36.2891 30.5606L39.1901 29.8367C39.3413 29.7648 39.5113 29.7425 39.6759 29.773C39.8344 29.7939 39.9831 29.862 40.1024 29.9685C40.2217 30.0751 40.3062 30.215 40.3448 30.3703L41.1156 33.46C41.1613 33.6629 41.1257 33.8756 41.0166 34.0527C40.9074 34.2297 40.7333 34.3571 40.5315 34.4074C40.3297 34.4578 40.1161 34.4272 39.9366 34.3221C39.7571 34.2171 39.6258 34.046 39.5708 33.8454L39.308 32.7927C38.5412 33.896 37.4911 34.7721 36.2683 35.3288C35.0454 35.8854 33.6951 36.1019 32.3595 35.9555C31.0239 35.8091 29.7525 35.3052 28.6792 34.4969C27.606 33.6885 26.7706 32.6057 26.2611 31.3625L26.0541 30.8576C26.0145 30.7608 25.9943 30.6572 25.9947 30.5526C25.9951 30.448 26.0161 30.3445 26.0566 30.2481C26.097 30.1516 26.156 30.0641 26.2302 29.9904C26.3045 29.9168 26.3925 29.8584 26.4893 29.8188C26.6847 29.7388 26.904 29.7397 27.0988 29.8213C27.1953 29.8617 27.2828 29.9207 27.3565 29.9949C27.4301 30.0692 27.4884 30.1572 27.5281 30.254L27.7351 30.7581C28.141 31.7485 28.8097 32.6094 29.6691 33.2476C30.5284 33.8859 31.5457 34.2774 32.6112 34.3798C33.6767 34.4823 34.75 34.2918 35.7152 33.8289C36.6803 33.3661 37.5008 32.6477 38.088 31.7527Z" fill="#FFC10F"/>
<defs>
<filter id="filter0_d_1015_3" x="0.265623" y="0.265623" width="65.4688" height="65.4688" filterUnits="userSpaceOnUse" color-interpolation-filters="sRGB">
<feFlood flood-opacity="0" result="BackgroundImageFix"/>
<feColorMatrix in="SourceAlpha" type="matrix" values="0 0 0 0 0 0 0 0 0 0 0 0 0 0 0 0 0 0 127 0" result="hardAlpha"/>
<feOffset dy="5"/>
<feGaussianBlur stdDeviation="8.75"/>
<feColorMatrix type="matrix" values="0 0 0 0 0.341578 0 0 0 0 0.361613 0 0 0 0 0.541927 0 0 0 0.06 0"/>
<feBlend mode="normal" in2="BackgroundImageFix" result="effect1_dropShadow_1015_3"/>
<feBlend mode="normal" in="SourceGraphic" in2="effect1_dropShadow_1015_3" result="shape"/>
</filter>
</defs>
</svg>