<svg width="10" height="17" viewBox="0 0 10 17" fill="none" xmlns="http://www.w3.org/2000/svg">
<path d="M4.86855 11.2242C5.60654 11.2242 6.31431 10.931 6.83615 10.4092C7.35799 9.88734 7.65115 9.17957 7.65115 8.44158V2.87636C7.65115 2.13837 7.35799 1.4306 6.83615 0.908757C6.31431 0.386917 5.60654 0.09375 4.86855 0.09375C4.13055 0.09375 3.42278 0.386917 2.90094 0.908757C2.3791 1.4306 2.08594 2.13837 2.08594 2.87636V8.44158C2.08594 9.17957 2.3791 9.88734 2.90094 10.4092C3.42278 10.931 4.13055 11.2242 4.86855 11.2242ZM3.47724 2.87636C3.47724 2.50736 3.62383 2.15348 3.88475 1.89256C4.14567 1.63164 4.49955 1.48505 4.86855 1.48505C5.23754 1.48505 5.59143 1.63164 5.85235 1.89256C6.11327 2.15348 6.25985 2.50736 6.25985 2.87636V8.44158C6.25985 8.81057 6.11327 9.16446 5.85235 9.42538C5.59143 9.6863 5.23754 9.83288 4.86855 9.83288C4.49955 9.83288 4.14567 9.6863 3.88475 9.42538C3.62383 9.16446 3.47724 8.81057 3.47724 8.44158V2.87636Z" fill="#4B164C"/>
<path d="M9.73913 8.44175C9.73913 8.25725 9.66584 8.08031 9.53538 7.94985C9.40492 7.81939 9.22798 7.74609 9.04348 7.74609C8.85898 7.74609 8.68204 7.81939 8.55158 7.94985C8.42112 8.08031 8.34783 8.25725 8.34783 8.44175C8.34783 9.36424 7.98137 10.2489 7.32907 10.9012C6.67677 11.5535 5.79206 11.92 4.86957 11.92C3.94707 11.92 3.06236 11.5535 2.41006 10.9012C1.75776 10.2489 1.3913 9.36424 1.3913 8.44175C1.3913 8.25725 1.31801 8.08031 1.18755 7.94985C1.05709 7.81939 0.880151 7.74609 0.695652 7.74609C0.511154 7.74609 0.334212 7.81939 0.203752 7.94985C0.0732918 8.08031 0 8.25725 0 8.44175C0.0013712 9.61173 0.423935 10.7421 1.19039 11.6261C1.95684 12.51 3.01593 13.0885 4.17391 13.2557V14.7026H3.82609C3.64159 14.7026 3.46465 14.7759 3.33419 14.9064C3.20373 15.0368 3.13043 15.2138 3.13043 15.3983C3.13043 15.5828 3.20373 15.7597 3.33419 15.8902C3.46465 16.0206 3.64159 16.0939 3.82609 16.0939H5.91304C6.09754 16.0939 6.27448 16.0206 6.40494 15.8902C6.5354 15.7597 6.6087 15.5828 6.6087 15.3983C6.6087 15.2138 6.5354 15.0368 6.40494 14.9064C6.27448 14.7759 6.09754 14.7026 5.91304 14.7026H5.56522V13.2557C6.7232 13.0885 7.78229 12.51 8.54874 11.6261C9.3152 10.7421 9.73776 9.61173 9.73913 8.44175Z" fill="#4B164C"/>
</svg>
