<svg width="21" height="21" viewBox="0 0 21 21" fill="none" xmlns="http://www.w3.org/2000/svg">
<path d="M19.7216 16.3017L19.7215 16.3016L16.2036 12.7837C17.1194 11.0145 17.3759 8.97668 16.9263 7.03505C16.474 5.08148 15.3369 3.35455 13.7209 2.16715C12.105 0.979755 10.1172 0.410449 8.11767 0.562383C6.11814 0.714317 4.23918 1.57744 2.82122 2.99537C1.40327 4.41329 0.540127 6.29222 0.388189 8.2917C0.236252 10.2912 0.805571 12.279 1.99299 13.8949C3.18041 15.5107 4.90738 16.6479 6.86099 17.1002C8.80266 17.5497 10.8405 17.2933 12.6098 16.3775L16.1236 19.892C16.5997 20.3691 17.2458 20.6375 17.9199 20.6383C18.5939 20.639 19.2406 20.3719 19.7178 19.8958C20.1949 19.4197 20.4633 18.7736 20.4641 18.0995C20.4648 17.4255 20.1977 16.7788 19.7216 16.3017ZM18.471 18.6505L18.4131 18.7055C18.2753 18.8151 18.1039 18.8754 17.9263 18.8754C17.7217 18.8754 17.5252 18.7953 17.379 18.6521C17.379 18.652 17.3789 18.6519 17.3789 18.6519L14.1171 15.3894C14.5148 15.0574 14.8812 14.6895 15.2115 14.2903L18.4776 17.5514L18.4781 17.5518C18.5516 17.6234 18.6098 17.7091 18.6494 17.8038C18.689 17.8984 18.7091 18.0001 18.7084 18.1027C18.7078 18.2053 18.6864 18.3067 18.6456 18.4008C18.6048 18.4949 18.5454 18.5799 18.471 18.6505ZM2.16656 8.9456C2.16657 7.63896 2.55405 6.36166 3.28 5.27522C4.00595 4.18877 5.03779 3.34199 6.24501 2.84195C7.45223 2.34191 8.78063 2.21108 10.0622 2.466C11.3438 2.72092 12.521 3.35013 13.445 4.27408C14.3689 5.19803 14.9982 6.37522 15.2531 7.65677C15.508 8.93833 15.3772 10.2667 14.8771 11.4739C14.3771 12.6811 13.5303 13.7129 12.4438 14.4388C11.3574 15.1648 10.08 15.5522 8.77336 15.5523C7.02173 15.5503 5.34241 14.8536 4.10382 13.615C2.86523 12.3765 2.16853 10.6972 2.16656 8.9456Z" fill="#4C0B84" stroke="#4C0B84" stroke-width="0.1"/>
<path d="M8.77381 3.90325L8.77376 3.90325C7.43681 3.90458 6.155 4.43626 5.20964 5.38161C4.26428 6.32695 3.73258 7.60873 3.73125 8.94565V8.9457C3.73125 9.17964 3.82418 9.404 3.98961 9.56942C4.15503 9.73484 4.3794 9.82777 4.61334 9.82777C4.84729 9.82777 5.07165 9.73484 5.23708 9.56942C5.4025 9.404 5.49544 9.17964 5.49544 8.9457C5.49544 8.07624 5.84083 7.24239 6.45565 6.62759C7.07046 6.01279 7.90433 5.6674 8.77381 5.6674C9.00775 5.6674 9.23211 5.57446 9.39754 5.40904C9.56296 5.24362 9.6559 5.01926 9.6559 4.78532C9.6559 4.55138 9.56296 4.32702 9.39754 4.1616C9.23211 3.99618 9.00775 3.90325 8.77381 3.90325Z" fill="#4C0B84" stroke="#4C0B84" stroke-width="0.1"/>
</svg>
