<svg width="20" height="20" viewBox="0 0 20 20" fill="none" xmlns="http://www.w3.org/2000/svg">
<path d="M18.9256 16.6271C19.576 17.2781 19.576 18.2907 18.9256 18.9416C18.6005 19.2671 18.203 19.4118 17.7695 19.4118C17.3359 19.4118 16.9385 19.2671 16.6134 18.9416L10.0016 12.3236L3.38986 18.9416C3.06469 19.2671 2.66728 19.4118 2.23373 19.4118C1.80017 19.4118 1.40276 19.2671 1.07759 18.9416C0.42726 18.2907 0.42726 17.2781 1.07759 16.6271L7.6893 10.009L1.07759 3.39098C0.42726 2.74003 0.42726 1.72742 1.07759 1.07646C1.72793 0.425502 2.73953 0.425502 3.38986 1.07646L10.0016 7.69452L16.6134 1.07646C17.2637 0.425502 18.2753 0.425502 18.9256 1.07646C19.576 1.72742 19.576 2.74003 18.9256 3.39098L12.3139 10.009L18.9256 16.6271Z" fill="#4C0B84"/>
</svg>
