<svg width="42" height="42" viewBox="0 0 42 42" fill="none" xmlns="http://www.w3.org/2000/svg">
<path d="M14.3798 1.85639C18.7148 0.839543 23.2264 0.839529 27.5614 1.85639C33.8218 3.32493 38.7101 8.21321 40.1786 14.4736C41.1954 18.8085 41.1955 23.3203 40.1786 27.6552C38.71 33.9155 33.8218 38.8039 27.5614 40.2724C23.2265 41.2893 18.7148 41.2892 14.3798 40.2724C8.1195 38.8039 3.2312 33.9155 1.76261 27.6552C0.745768 23.3203 0.745828 18.8085 1.76261 14.4736C3.2311 8.21317 8.11938 3.32489 14.3798 1.85639Z" fill="white"/>
<path d="M14.3798 1.85639L14.2907 1.47665L14.2907 1.47665L14.3798 1.85639ZM27.5614 1.85639L27.6505 1.47665L27.6505 1.47665L27.5614 1.85639ZM40.1786 14.4736L40.5584 14.3845L40.5584 14.3845L40.1786 14.4736ZM40.1786 27.6552L40.5584 27.7443V27.7443L40.1786 27.6552ZM27.5614 40.2724L27.6505 40.6521L27.5614 40.2724ZM14.3798 40.2724L14.2907 40.6521L14.2907 40.6522L14.3798 40.2724ZM1.76261 27.6552L1.38286 27.7443L1.38287 27.7443L1.76261 27.6552ZM1.76261 14.4736L1.38286 14.3845L1.38286 14.3845L1.76261 14.4736ZM14.3798 1.85639L14.4689 2.23614C18.7453 1.23303 23.1959 1.23302 27.4724 2.23614L27.5614 1.85639L27.6505 1.47665C23.2569 0.446043 18.6844 0.446057 14.2907 1.47665L14.3798 1.85639ZM27.5614 1.85639L27.4724 2.23613C33.5885 3.67084 38.3642 8.44651 39.7989 14.5627L40.1786 14.4736L40.5584 14.3845C39.0561 7.97991 34.0551 2.97901 27.6505 1.47665L27.5614 1.85639ZM40.1786 14.4736L39.7989 14.5626C40.8019 18.839 40.802 23.2898 39.7989 27.5661L40.1786 27.6552L40.5584 27.7443C41.5889 23.3508 41.5889 18.778 40.5584 14.3845L40.1786 14.4736ZM40.1786 27.6552L39.7989 27.5661C38.3641 33.6822 33.5884 38.458 27.4724 39.8927L27.5614 40.2724L27.6505 40.6521C34.0551 39.1498 39.056 34.1488 40.5584 27.7443L40.1786 27.6552ZM27.5614 40.2724L27.4724 39.8927C23.196 40.8958 18.7453 40.8957 14.4689 39.8927L14.3798 40.2724L14.2907 40.6522C18.6843 41.6827 23.2569 41.6827 27.6505 40.6521L27.5614 40.2724ZM14.3798 40.2724L14.4689 39.8927C8.3528 38.458 3.57711 33.6822 2.14235 27.5661L1.76261 27.6552L1.38287 27.7443C2.88528 34.1488 7.88619 39.1498 14.2907 40.6521L14.3798 40.2724ZM1.76261 27.6552L2.14235 27.5661C1.13925 23.2898 1.13931 18.839 2.14235 14.5626L1.76261 14.4736L1.38286 14.3845C0.352343 18.778 0.35228 23.3508 1.38286 27.7443L1.76261 27.6552ZM1.76261 14.4736L2.14235 14.5627C3.57701 8.44647 8.35268 3.6708 14.4689 2.23614L14.3798 1.85639L14.2907 1.47665C7.88608 2.97897 2.88519 7.97987 1.38286 14.3845L1.76261 14.4736Z" fill="#DBD0DB"/>
<path d="M20.0454 23.3446C21.9442 24.0747 23.0877 25.2309 24.5261 27.006M20.0454 23.3446C17.7346 22.4562 15.9968 22.2245 14.4219 22.2511M20.0454 23.3446C21.8458 21.3646 23.0292 19.9365 27.4979 19.2793" stroke="#4C0B84" stroke-width="1.85441" stroke-linecap="round" stroke-linejoin="round"/>
<path d="M18.6016 18.6836H18.6026" stroke="#4C0B84" stroke-width="1.85441" stroke-linecap="round" stroke-linejoin="round"/>
<path d="M20.9683 28.1944C24.9074 28.1944 28.1006 25.0011 28.1006 21.062C28.1006 17.123 24.9074 13.9297 20.9683 13.9297C17.0292 13.9297 13.8359 17.123 13.8359 21.062C13.8359 25.0011 17.0292 28.1944 20.9683 28.1944Z" stroke="#4C0B84" stroke-width="1.85441" stroke-linecap="round" stroke-linejoin="round"/>
<path d="M30.955 21.0634C30.955 22.4835 30.6585 23.8344 30.1241 25.0575M20.9697 31.0487C22.3898 31.0487 23.7407 30.7523 24.9638 30.2178C26.1155 29.7147 27.154 29.0004 28.0304 28.1241M10.9844 21.0634C10.9844 19.6433 11.2808 18.2924 11.8152 17.0693C12.3185 15.9176 13.0327 14.8791 13.909 14.0027M20.9697 11.0781C19.5496 11.0781 18.1987 11.3746 16.9756 11.909M16.9756 30.2178C15.8238 29.7147 14.7853 29.0004 13.909 28.1241C13.0327 27.2477 12.3185 26.2092 11.8152 25.0575M24.7961 12.0767C25.9478 12.5799 26.9863 13.2941 27.8627 14.1704C28.739 15.0468 29.4532 16.0852 29.9564 17.237" stroke="#4C0B84" stroke-width="1.85441" stroke-linecap="round" stroke-linejoin="round"/>
</svg>
