<svg width="20" height="20" viewBox="0 0 20 20" fill="none" xmlns="http://www.w3.org/2000/svg">
<path d="M11.8092 20C11.6693 19.9999 11.5322 19.9605 11.4136 19.8862C11.295 19.812 11.1997 19.7059 11.1385 19.58L7.6306 12.3687L0.419332 8.86124C0.289427 8.79791 0.180699 8.69824 0.10635 8.57431C0.0320002 8.45039 -0.00477254 8.30754 0.000496349 8.16312C0.00576524 8.01869 0.052849 7.87891 0.136031 7.76073C0.219213 7.64255 0.334915 7.55106 0.469089 7.49738L18.9742 0.0541171C19.11 -0.000614233 19.2589 -0.014202 19.4023 0.0150453C19.5458 0.0442926 19.6774 0.115083 19.781 0.218606C19.8845 0.322128 19.9553 0.453811 19.9845 0.597263C20.0138 0.740714 20.0002 0.8896 19.9454 1.02539L12.5018 19.5323C12.4478 19.6663 12.3561 19.7819 12.2378 19.8648C12.1194 19.9478 11.9795 19.9945 11.8351 19.9995L11.8092 20ZM2.58525 8.25718L8.51528 11.1431C8.66559 11.2162 8.78701 11.3376 8.8601 11.4879L11.746 17.4181L17.9054 2.0902L2.58525 8.25718Z" fill="white"/>
<path d="M8.1876 12.5569C8.03998 12.5569 7.89568 12.5131 7.77296 12.431C7.65024 12.349 7.5546 12.2324 7.49814 12.096C7.44169 11.9596 7.42695 11.8095 7.45579 11.6647C7.48463 11.5199 7.55576 11.387 7.66018 11.2826L18.7236 0.218988C18.793 0.149692 18.8753 0.0947296 18.9658 0.0572394C19.0564 0.0197492 19.1535 0.000465201 19.2515 0.000488302C19.3495 0.000511403 19.4466 0.0198413 19.5371 0.0573742C19.6277 0.0949071 19.7099 0.149908 19.7792 0.219237C19.8485 0.288565 19.9035 0.370864 19.941 0.461434C19.9785 0.552004 19.9977 0.649071 19.9977 0.747093C19.9977 0.845116 19.9784 0.942174 19.9408 1.03273C19.9033 1.12328 19.8483 1.20555 19.779 1.27485L8.71552 12.3405C8.57516 12.4797 8.3853 12.5575 8.1876 12.5569Z" fill="white"/>
</svg>
