<svg width="18" height="18" viewBox="0 0 18 18" fill="none" xmlns="http://www.w3.org/2000/svg">
<path d="M10.2026 17.0018H7.79957C7.65208 17.0018 7.50979 16.9473 7.40013 16.8486C7.29048 16.75 7.2212 16.6143 7.20567 16.4676L7.02774 14.7922C6.77935 14.7077 6.53669 14.6071 6.30129 14.4913L4.99209 15.5501C4.8775 15.6424 4.73288 15.6891 4.58596 15.6813C4.43904 15.6735 4.30017 15.6118 4.19598 15.5079L2.49668 13.8086C2.3928 13.7044 2.33104 13.5655 2.32326 13.4186C2.31547 13.2717 2.3622 13.1271 2.45449 13.0125L3.51371 11.7017C3.39764 11.4663 3.29698 11.2237 3.21239 10.9752L1.53419 10.7961C1.38759 10.7806 1.25191 10.7114 1.15329 10.6018C1.05467 10.4922 1.00006 10.35 1 10.2026V7.79917C1.00006 7.65175 1.05467 7.50956 1.15329 7.39999C1.25191 7.29041 1.38759 7.2212 1.53419 7.20567L3.2096 7.02774C3.2942 6.77932 3.39485 6.53666 3.51093 6.30129L2.4517 4.9905C2.35942 4.87591 2.31268 4.73129 2.32047 4.58437C2.32826 4.43745 2.39002 4.29857 2.4939 4.19439L4.19319 2.49509C4.29738 2.39121 4.43625 2.32945 4.58317 2.32167C4.73009 2.31388 4.87472 2.36061 4.9893 2.4529L6.3001 3.51172C6.5355 3.39585 6.77816 3.29533 7.02654 3.2108L7.20447 1.53538C7.21976 1.38829 7.28908 1.25211 7.39902 1.1532C7.50895 1.05429 7.65168 0.999703 7.79957 1H10.2026C10.3501 0.999967 10.4924 1.05452 10.6021 1.15316C10.7117 1.25179 10.781 1.38752 10.7965 1.53419L10.9741 3.2096C11.2226 3.29413 11.4654 3.39465 11.7009 3.51053L13.0113 2.45171C13.1259 2.35942 13.2705 2.31269 13.4174 2.32047C13.5643 2.32826 13.7032 2.39002 13.8074 2.4939L15.5067 4.19319C15.6106 4.29738 15.6723 4.43625 15.6801 4.58318C15.6879 4.7301 15.6412 4.87472 15.5489 4.9893L14.4897 6.3001C14.6056 6.53554 14.7062 6.77819 14.791 7.02655L16.4664 7.20448C16.6129 7.2201 16.7485 7.28935 16.8471 7.39892C16.9456 7.50848 17.0001 7.65062 17.0002 7.79798V10.2014C17.0005 10.3487 16.9463 10.491 16.848 10.6007C16.7498 10.7105 16.6144 10.7801 16.468 10.7961L14.7926 10.9741C14.7078 11.2224 14.6072 11.4651 14.4913 11.7005L15.5505 13.0113C15.6428 13.1259 15.6895 13.2705 15.6817 13.4174C15.6739 13.5643 15.6122 13.7032 15.5083 13.8074L13.809 15.5079C13.7048 15.6118 13.5659 15.6735 13.419 15.6813C13.2721 15.6891 13.1275 15.6424 13.0129 15.5501L11.7025 14.4913C11.467 14.6071 11.2242 14.7077 10.9756 14.7922L10.7981 16.4676C10.7825 16.6145 10.713 16.7505 10.6031 16.8492C10.4931 16.9478 10.3504 17.0022 10.2026 17.0018ZM8.33575 15.8076H9.66485L9.82765 14.2727C9.84043 14.1526 9.88935 14.0391 9.96795 13.9474C10.0466 13.8556 10.1511 13.7899 10.2679 13.7588C10.6885 13.6467 11.0922 13.479 11.4684 13.2601C11.5732 13.199 11.694 13.1713 11.8149 13.1807C11.9358 13.19 12.051 13.2359 12.1451 13.3122L13.3457 14.2823L14.2855 13.3425L13.3138 12.1455C13.2375 12.0514 13.1916 11.9362 13.1822 11.8153C13.1729 11.6944 13.2006 11.5736 13.2617 11.4688C13.4801 11.0928 13.6473 10.6894 13.7588 10.2691C13.7899 10.1523 13.8557 10.0477 13.9476 9.96904C14.0394 9.89043 14.1529 9.84155 14.2731 9.82885L15.8076 9.66565V8.33654L14.2731 8.17334C14.1529 8.16064 14.0394 8.11176 13.9476 8.03315C13.8557 7.95454 13.7899 7.84991 13.7588 7.73309C13.6473 7.31268 13.4801 6.90907 13.2617 6.53296C13.2006 6.42821 13.1729 6.30736 13.1822 6.18648C13.1916 6.06561 13.2375 5.95043 13.3138 5.85627L14.2839 4.65573L13.3441 3.71593L12.1435 4.68599C12.0494 4.76235 11.9342 4.80824 11.8133 4.81755C11.6924 4.82687 11.5716 4.79917 11.4668 4.73813C11.0908 4.51987 10.6873 4.35268 10.2671 4.24096C10.1503 4.2099 10.0458 4.14416 9.96716 4.0524C9.88855 3.96065 9.83963 3.84721 9.82686 3.72707L9.66565 2.19416H8.33575L8.17294 3.72906C8.16014 3.84925 8.11116 3.96273 8.03248 4.05449C7.9538 4.14625 7.84913 4.21196 7.7323 4.24295C7.31238 4.35517 6.90931 4.52291 6.53375 4.74171C6.429 4.80275 6.30815 4.83045 6.18728 4.82114C6.0664 4.81182 5.95122 4.76593 5.85706 4.68957L4.65772 3.71792L3.71831 4.65772L4.68877 5.85826C4.76507 5.95246 4.81089 6.06766 4.82014 6.18854C4.82938 6.30941 4.80161 6.43024 4.74052 6.53495C4.52243 6.9111 4.35525 7.31453 4.24335 7.73468C4.21229 7.85144 4.14654 7.95603 4.05479 8.03464C3.96304 8.11324 3.8496 8.16216 3.72946 8.17493L2.19456 8.33814V9.66684L3.72946 9.83004C3.8496 9.84282 3.96304 9.89174 4.05479 9.97034C4.14654 10.0489 4.21229 10.1535 4.24335 10.2703C4.35522 10.69 4.52227 11.093 4.74012 11.4688C4.80121 11.5735 4.82898 11.6944 4.81974 11.8152C4.81049 11.9361 4.76467 12.0513 4.68837 12.1455L3.71831 13.3441L4.65812 14.2839L5.85905 13.3138C5.95321 13.2375 6.06839 13.1916 6.18927 13.1822C6.31014 13.1729 6.43099 13.2006 6.53574 13.2617C6.91164 13.48 7.31497 13.6472 7.73508 13.7588C7.85191 13.7898 7.95659 13.8555 8.03527 13.9473C8.11395 14.0391 8.16293 14.1525 8.17573 14.2727L8.33575 15.8076Z" fill="#4C0B84" stroke="#4C0B84" stroke-width="0.2"/>
<path d="M9.00439 12.636C8.28515 12.636 7.58209 12.4226 6.9841 12.023C6.38611 11.6233 5.92006 11.0553 5.64487 10.3908C5.36969 9.72631 5.29773 8.99512 5.43809 8.28971C5.57846 7.5843 5.92484 6.93635 6.43345 6.4278C6.94206 5.91925 7.59004 5.57293 8.29547 5.43264C9.00089 5.29235 9.73208 5.36439 10.3966 5.63965C11.061 5.91491 11.629 6.38103 12.0286 6.97906C12.4281 7.57709 12.6414 8.28018 12.6414 8.99942C12.6404 9.96366 12.2568 10.8881 11.575 11.5699C10.8931 12.2517 9.96863 12.6351 9.00439 12.636ZM9.00439 6.55696C8.52134 6.55704 8.04915 6.70035 7.64754 6.96878C7.24593 7.23721 6.93294 7.6187 6.74814 8.06501C6.56333 8.51131 6.51502 9.0024 6.60931 9.47616C6.7036 9.94993 6.93625 10.3851 7.27785 10.7266C7.61945 11.0682 8.05466 11.3008 8.52844 11.395C9.00222 11.4892 9.49329 11.4408 9.93957 11.2559C10.3859 11.071 10.7673 10.758 11.0357 10.3563C11.304 9.95469 11.4473 9.48248 11.4473 8.99942C11.4465 8.3518 11.1889 7.73091 10.7309 7.27301C10.2729 6.81511 9.65202 6.55759 9.00439 6.55696Z" fill="#4C0B84" stroke="#4C0B84" stroke-width="0.2"/>
</svg>
