<svg width="38" height="38" viewBox="0 0 38 38" fill="none" xmlns="http://www.w3.org/2000/svg">
<path d="M37.0436 32.184L25.6081 20.7461C24.0938 19.2318 24.8249 18.1195 24.8249 18.1195L24.8179 18.112C25.3236 17.0704 25.1533 15.7861 24.2902 14.9212L19.8387 10.4698C18.7462 9.37661 16.9746 9.37661 15.8815 10.4698L15.2014 11.1487L15.129 11.2217C15.129 11.2217 14.8167 11.8427 16.2401 11.9256L16.2407 11.9273C16.2407 11.9273 16.8953 11.9829 17.5348 12.6225L19.1106 14.1982C19.6864 14.7735 19.702 15.3736 19.6754 15.6436C19.5439 16.3851 19.2021 17.0959 18.628 17.6683C18.0597 18.2383 17.3529 18.5772 16.6172 18.7093C16.2911 18.7394 15.6706 18.6832 14.9836 17.9962L13.789 16.7999C13.0365 16.0474 12.8766 15.0764 12.8766 15.0764H12.8749C12.5835 13.7562 12.1849 14.1675 12.1849 14.1675L11.4318 14.9206C10.3392 16.0126 10.3392 17.7847 11.4312 18.8779L15.8821 23.3281C16.7916 24.2382 18.1686 24.379 19.2363 23.7748L19.2444 23.7835C19.2444 23.7835 20.224 23.1642 21.5425 24.4838L33.4102 36.3533C33.4102 36.3533 34.8527 37.7697 36.2135 36.4095L37.3362 35.2868C37.7156 34.8627 38.5191 33.6595 37.0436 32.184Z" fill="#4B164C"/>
<path d="M24.6416 30.627C23.9314 29.7824 22.7913 30.3061 22.7913 30.3061L22.7884 30.2986C22.6911 30.3316 22.5955 30.3704 22.4964 30.4011C22.4651 30.4127 22.4454 30.4254 22.409 30.4399C20.8518 31.0134 20.8373 32.1975 20.8373 32.1975V33.5861C20.8153 34.7679 19.8722 34.9753 19.3844 35.0066H18.8195C17.6076 35.0309 17.3904 34.29 17.3591 33.8938V32.2949C17.3591 30.8246 15.7179 30.4185 15.7179 30.4185L15.7231 30.4115C14.8345 30.1485 13.9939 29.7749 13.2043 29.3265C13.1713 29.312 13.1452 29.3033 13.1093 29.2853C11.7809 28.6197 10.7909 29.5588 10.7909 29.5588L9.66183 30.6879C8.87339 31.4734 8.29003 31.1073 8.07626 30.9132L7.98531 30.8211L7.98183 30.8165L7.05378 29.889C7.0532 29.8873 7.05204 29.8873 7.0503 29.8855C6.32443 29.1608 7.2687 28.1638 7.39441 28.0381L8.49568 26.938C8.49626 26.938 8.49626 26.9351 8.49626 26.9351C9.34495 26.0864 8.67816 24.765 8.67816 24.765C8.67816 24.765 8.68743 24.7633 8.68917 24.7633C8.2657 23.9939 7.91579 23.1789 7.66611 22.3168C7.658 22.2942 7.64873 22.2798 7.64004 22.256C7.08101 20.7104 5.67097 20.7365 5.64374 20.7365L4.57376 20.7411C3.32129 20.7429 3.09594 19.9289 3.06234 19.5008L3.05944 18.6382C3.06698 18.2819 3.19616 17.274 4.46311 17.2629L5.83491 17.2572C5.83491 17.2572 7.12735 17.3174 7.58617 15.9404C7.59254 15.923 7.60123 15.9137 7.60702 15.8964C7.88219 14.882 8.27902 13.9192 8.7946 13.0334C8.7946 13.0334 8.7946 13.0328 8.7946 13.0317C9.44922 11.7149 8.51422 10.7272 8.39198 10.6073L7.4593 9.67573C7.4593 9.67573 7.4593 9.67515 7.45756 9.67342C6.55789 8.77375 7.17428 7.994 7.38804 7.77154L7.87408 7.2855C7.87408 7.2855 8.89946 6.19988 9.98509 7.2855C9.98682 7.2855 9.98682 7.28608 9.98798 7.28724L11.0481 8.34738C11.248 8.53681 12.0636 9.20012 13.2339 8.63182C13.2385 8.63008 13.2402 8.63008 13.2443 8.62834C13.9974 8.20197 14.8073 7.86713 15.6501 7.60992C15.6727 7.60065 15.6849 7.58964 15.7104 7.57921C17.0683 7.04567 17.3215 6.20857 17.3591 5.77583V4.19315C17.3666 3.92841 17.468 2.88623 18.6852 2.88623H19.4464C19.4464 2.88623 20.835 2.83989 20.835 4.38606V5.5806C20.8425 5.92123 20.9613 7.0561 22.2705 7.51781C22.2728 7.51839 22.2728 7.51955 22.2763 7.5207C23.0688 7.7391 23.8248 8.04614 24.542 8.4169L24.5495 8.41052C24.5495 8.41052 26.1831 9.42431 27.4165 8.19212L28.2414 7.36719C28.2797 7.32895 29.396 6.24796 30.2308 7.08275C30.2325 7.08333 30.2343 7.08448 30.2343 7.08622L30.9178 7.76807C30.9178 7.76807 31.7468 8.77723 30.7029 9.82172L29.7789 10.7457C29.7789 10.7457 28.8155 11.7329 29.5153 13.2286C29.5275 13.2547 29.5275 13.2703 29.5385 13.2958C29.9649 14.0727 30.3015 14.904 30.5494 15.7747C30.5517 15.773 30.561 15.7654 30.561 15.7654C30.561 15.7654 30.8599 17.2658 32.1981 17.2624L33.4969 17.2566H33.5317H33.5902C33.6278 17.256 35.1763 17.2311 35.1798 18.6938L35.1839 19.3085V19.3102V19.4614C35.1711 19.8235 34.9985 20.7284 33.5589 20.7336L32.3134 20.7376C31.3396 20.7469 30.8553 21.5446 30.6421 22.0521C30.561 22.274 30.3716 22.9935 31.0586 23.6695L31.2353 23.8433C31.2388 23.8462 31.2411 23.848 31.2434 23.8508C32.27 24.9515 33.0028 23.41 33.0028 23.41C33.4685 22.636 34.1492 22.4808 34.5136 22.4559H36.4132C36.9907 22.4559 37.4588 21.9884 37.4588 21.4102V16.5875C37.4588 16.0111 36.9907 15.5418 36.4132 15.5418H34.6011C33.18 15.5418 32.8215 14.2233 32.8215 14.2233C32.8215 14.2233 32.8122 14.2256 32.8093 14.2268C32.5978 13.6185 32.3574 13.0224 32.0695 12.4535C32.0695 12.4518 32.0695 12.4506 32.0678 12.4489C31.5887 11.3945 32.4872 10.496 32.5364 10.4491L33.6927 9.29049C34.1006 8.88208 34.1006 8.22051 33.6927 7.81152L30.2829 4.4017C29.8733 3.99387 29.2118 3.99445 28.8039 4.40228L27.9639 5.24112C26.6524 6.56079 25.4225 5.92355 25.4225 5.92355L25.4208 5.92702C24.9492 5.70109 24.4667 5.49718 23.9708 5.32049C23.9476 5.30948 23.9314 5.29963 23.9076 5.28978C22.811 4.84082 22.6667 3.71696 22.6528 3.26162V2.04565C22.6528 1.46808 22.1842 1 21.6072 1H16.5875C16.0111 1 15.5418 1.46808 15.5418 2.04565V3.55707C15.5418 5.07081 14.2615 5.30021 14.2615 5.30021L14.2691 5.30774C13.7153 5.50529 13.1724 5.726 12.6499 5.98553C12.6406 5.98901 12.6354 5.98727 12.6262 5.99075C11.5822 6.45304 11.0052 6.00002 10.8587 5.85809L10.8228 5.82217L10.8176 5.8158L9.40288 4.39881C8.99389 3.99097 8.33174 3.99097 7.9239 4.39707L4.51061 7.80572C4.10278 8.21472 4.10162 8.87571 4.51061 9.28412L5.64374 10.4184C5.64374 10.4184 6.62625 11.3656 6.13905 12.4292C6.13905 12.4309 6.13905 12.4309 6.13905 12.4309C5.85693 12.9853 5.61999 13.5652 5.41028 14.1573C5.3958 14.188 5.38189 14.2117 5.36741 14.2476C4.93293 15.3084 4.12595 15.5105 3.69437 15.5418H2.04565C1.46808 15.5418 1 16.0111 1 16.5875V21.4102C1 21.9884 1.46808 22.4559 2.04565 22.4559H3.92261C4.98449 22.4559 5.26372 23.4355 5.26372 23.4355C5.26372 23.4355 5.27125 23.4175 5.27588 23.4088C5.49312 24.0849 5.74107 24.747 6.04984 25.3756C6.04926 25.3756 6.04347 25.3785 6.04347 25.3785C6.04347 25.3785 6.70677 26.5029 5.96352 27.2462V27.2479L4.50424 28.7066C4.09641 29.1145 4.09641 29.7783 4.50424 30.1844L7.91463 33.5942C8.32363 34.0032 8.98462 34.0032 9.39245 33.5942L10.7052 32.2839L10.7081 32.2798L10.7666 32.2224C10.9467 32.051 11.5788 31.5846 12.7982 32.088C12.811 32.0944 12.8185 32.0962 12.8301 32.1002C13.2953 32.3203 13.7738 32.5208 14.2639 32.6928L14.2581 32.6981C14.2581 32.6981 15.5424 33.0804 15.5424 34.3705V35.9532C15.5424 36.5313 16.0116 36.9989 16.5881 36.9989H21.6078C22.1848 36.9989 22.6534 36.5313 22.6534 35.9532V34.2199C22.6766 33.8376 22.8463 33.1157 23.746 32.7618C23.7808 32.7473 23.8028 32.7351 23.83 32.723C24.1776 32.6019 24.5113 32.4542 24.8473 32.3105C25.6589 31.8598 24.9064 30.941 24.9064 30.941L24.6416 30.627Z" fill="#4B164C" stroke="#4B164C" stroke-width="0.5"/>
</svg>
