<svg width="76" height="68" viewBox="0 0 76 68" fill="none" xmlns="http://www.w3.org/2000/svg">
<path d="M36.4614 3.98169L26.6554 2.14307L25.4297 16.5456L38.9129 18.6907L37.3807 35.2382L55.7669 41.9799L50.2511 55.4631L57.6056 50.5601L67.4115 40.4477L73.5403 28.4966V15.9327L70.7823 8.57824L64.3472 3.06238L55.7669 2.14307L46.8803 5.20743L42.2837 10.4169L41.6708 8.57824L36.4614 3.98169Z" fill="#F77BAD" stroke="#F77BAD" stroke-width="0.612874"/>
<path d="M10.1108 9.1947L15.3202 8.27539L16.2395 20.8393L32.1742 24.2101L30.642 40.4513L46.8832 45.6607L39.8351 61.5954L32.1742 64.6598L11.3365 48.7251L3.36914 32.7903V17.7749L10.1108 9.1947Z" fill="#F77BAD" stroke="#F77BAD" stroke-width="0.612874"/>
<path d="M40.3056 63.3612C38.4238 64.5683 36.4969 65.7349 34.5617 66.8528C33.9265 67.2196 33.1653 67.17 32.5944 66.7875C21.1204 60.151 13.0304 53.5999 7.77927 46.6085C2.40402 39.4516 0 31.8801 0 23.3516C0 13.935 6.93074 5.90662 16.2517 4.5497C17.4376 4.38147 18.4636 5.36146 18.3661 6.54278L18.1565 19.2698L32.4611 21.0423C33.5385 21.1737 34.2271 22.1464 34.0699 23.2063L32.4078 39.0425L47.9562 43.8974C49.1127 44.2578 49.6119 45.6018 48.9987 46.6287L40.9602 62.6267C40.8113 62.9255 40.5879 63.181 40.3056 63.3612ZM56.9959 11.7185C54.5459 11.7185 54.5459 7.99255 56.9959 7.99255C63.0772 7.99255 68.0065 12.9228 68.0065 19.0032C68.0065 21.4532 64.2815 21.4532 64.2815 19.0032C64.2815 14.9803 61.0197 11.7185 56.9959 11.7185ZM42.3704 6.87742C45.987 2.51801 51.3218 0 56.9959 0C67.4917 0 76 8.50828 76 19.0032C76 25.2215 74.7139 30.9415 71.9219 36.3783C66.987 45.9861 58.0044 53.2671 49.0456 59.0138C47.3936 60.0747 45.463 58.1597 46.4421 56.5022L53.4786 42.4964L36.5282 37.6314C35.6079 37.3693 35.0481 36.4583 35.2016 35.5362L36.8361 19.974L24.7738 18.4047C23.8094 18.2797 23.1153 17.4358 23.1595 16.4815L23.3985 2.01423C23.4123 1.10318 24.088 0.330035 24.9917 0.20225C31.5473 -0.751083 38.148 1.7844 42.3704 6.87742ZM43.9673 11.0125C43.2622 12.1993 41.5191 12.2352 40.7837 11.03C37.8704 6.27434 32.6459 3.49617 27.0813 3.73611L26.8965 14.9371L39.0618 16.5192C40.0823 16.6231 40.8251 17.536 40.7203 18.5564L39.048 34.4818L56.6511 39.5417C57.7626 39.8589 58.3243 41.111 57.8021 42.1553L52.9472 51.8164C59.1471 47.2143 65.0592 41.6203 68.6179 34.6905C71.1221 29.8162 72.2749 24.6506 72.2749 19.0032C72.2749 10.5657 65.4343 3.72508 56.9959 3.72508C51.6721 3.72508 46.7547 6.47568 43.9673 11.0125ZM37.8768 60.5021L44.7625 46.7969L29.8484 42.1397C29.0219 41.8814 28.4612 41.0696 28.5531 40.1751L30.1968 24.5136L16.0485 22.754C15.1173 22.6419 14.403 21.8421 14.4177 20.8832L14.619 8.70778C8.15435 10.6383 3.72508 16.5937 3.72508 23.3516C3.72508 31.0748 5.89559 37.9209 10.7477 44.3819C15.5686 50.8006 23.0344 56.8846 33.6268 63.0974C35.0619 62.258 36.4748 61.3957 37.8768 60.5021Z" fill="#4B164C"/>
</svg>
