<svg width="76" height="68" viewBox="0 0 76 68" fill="none" xmlns="http://www.w3.org/2000/svg">
  <!-- Left piece filled shape -->
  <path d="M10.1108 9.1947L15.3202 8.27539L16.2395 20.8393L32.1742 24.2101L30.642 40.4513L46.8832 45.6607L39.8351 61.5954L32.1742 64.6598L11.3365 48.7251L3.36914 32.7903V17.7749L10.1108 9.1947Z" fill="#F77BAD" stroke="#F77BAD" stroke-width="0.612874"/>
  <!-- Left piece outlines -->
  <path d="M40.3056 63.3612C38.4238 64.5683 36.4969 65.7349 34.5617 66.8528C33.9265 67.2196 33.1653 67.17 32.5944 66.7875C21.1204 60.151 13.0304 53.5999 7.77927 46.6085C2.40402 39.4516 0 31.8801 0 23.3516C0 13.935 6.93074 5.90662 16.2517 4.5497C17.4376 4.38147 18.4636 5.36146 18.3661 6.54278L18.1565 19.2698L32.4611 21.0423C33.5385 21.1737 34.2271 22.1464 34.0699 23.2063L32.4078 39.0425L47.9562 43.8974C49.1127 44.2578 49.6119 45.6018 48.9987 46.6287L40.9602 62.6267C40.8113 62.9255 40.5879 63.181 40.3056 63.3612ZM37.8768 60.5021L44.7625 46.7969L29.8484 42.1397C29.0219 41.8814 28.4612 41.0696 28.5531 40.1751L30.1968 24.5136L16.0485 22.754C15.1173 22.6419 14.403 21.8421 14.4177 20.8832L14.619 8.70778C8.15435 10.6383 3.72508 16.5937 3.72508 23.3516C3.72508 31.0748 5.89559 37.9209 10.7477 44.3819C15.5686 50.8006 23.0344 56.8846 33.6268 63.0974C35.0619 62.258 36.4748 61.3957 37.8768 60.5021Z" fill="#4B164C"/>
</svg>
