<svg width="76" height="68" viewBox="0 0 76 68" fill="none" xmlns="http://www.w3.org/2000/svg">
  <!-- Right piece filled shape -->
  <path d="M36.4614 3.98169L26.6554 2.14307L25.4297 16.5456L38.9129 18.6907L37.3807 35.2382L55.7669 41.9799L50.2511 55.4631L57.6056 50.5601L67.4115 40.4477L73.5403 28.4966V15.9327L70.7823 8.57824L64.3472 3.06238L55.7669 2.14307L46.8803 5.20743L42.2837 10.4169L41.6708 8.57824L36.4614 3.98169Z" fill="#F77BAD" stroke="#F77BAD" stroke-width="0.612874"/>
  <!-- Right piece outlines -->
  <path d="M56.9959 11.7185C54.5459 11.7185 54.5459 7.99255 56.9959 7.99255C63.0772 7.99255 68.0065 12.9228 68.0065 19.0032C68.0065 21.4532 64.2815 21.4532 64.2815 19.0032C64.2815 14.9803 61.0197 11.7185 56.9959 11.7185ZM42.3704 6.87742C45.987 2.51801 51.3218 0 56.9959 0C67.4917 0 76 8.50828 76 19.0032C76 25.2215 74.7139 30.9415 71.9219 36.3783C66.987 45.9861 58.0044 53.2671 49.0456 59.0138C47.3936 60.0747 45.463 58.1597 46.4421 56.5022L53.4786 42.4964L36.5282 37.6314C35.6079 37.3693 35.0481 36.4583 35.2016 35.5362L36.8361 19.974L24.7738 18.4047C23.8094 18.2797 23.1153 17.4358 23.1595 16.4815L23.3985 2.01423C23.4123 1.10318 24.088 0.330035 24.9917 0.20225C31.5473 -0.751083 38.148 1.7844 42.3704 6.87742ZM43.9673 11.0125C43.2622 12.1993 41.5191 12.2352 40.7837 11.03C37.8704 6.27434 32.6459 3.49617 27.0813 3.73611L26.8965 14.9371L39.0618 16.5192C40.0823 16.6231 40.8251 17.536 40.7203 18.5564L39.048 34.4818L56.6511 39.5417C57.7626 39.8589 58.3243 41.111 57.8021 42.1553L52.9472 51.8164C59.1471 47.2143 65.0592 41.6203 68.6179 34.6905C71.1221 29.8162 72.2749 24.6506 72.2749 19.0032C72.2749 10.5657 65.4343 3.72508 56.9959 3.72508C51.6721 3.72508 46.7547 6.47568 43.9673 11.0125Z" fill="#4B164C"/>
</svg>
