<svg width="41" height="41" viewBox="0 0 41 41" fill="none" xmlns="http://www.w3.org/2000/svg">
<path fill-rule="evenodd" clip-rule="evenodd" d="M1.26377 13.8994C0.245408 18.2409 0.245409 22.7591 1.26378 27.1006C2.73443 33.3702 7.6298 38.2656 13.8994 39.7362C18.2409 40.7546 22.7591 40.7546 27.1006 39.7362C33.3702 38.2656 38.2656 33.3702 39.7362 27.1006C40.7546 22.7591 40.7546 18.2409 39.7362 13.8994C38.2656 7.62981 33.3702 2.73443 27.1006 1.26377C22.7591 0.245407 18.2409 0.245411 13.8994 1.26377C7.62981 2.73443 2.73443 7.62981 1.26377 13.8994Z" fill="white"/>
<path d="M1.26378 27.1006L0.776989 27.2147V27.2147L1.26378 27.1006ZM1.26377 13.8994L1.75056 14.0136V14.0136L1.26377 13.8994ZM13.8994 39.7362L14.0136 39.2494H14.0136L13.8994 39.7362ZM27.1006 39.7362L26.9864 39.2494H26.9864L27.1006 39.7362ZM39.7362 27.1006L39.2494 26.9864V26.9864L39.7362 27.1006ZM39.7362 13.8994L40.223 13.7853V13.7853L39.7362 13.8994ZM27.1006 1.26377L26.9864 1.75056V1.75056L27.1006 1.26377ZM13.8994 1.26377L13.7853 0.776985L13.7853 0.776986L13.8994 1.26377ZM1.75056 26.9864C0.749813 22.72 0.749812 18.28 1.75056 14.0136L0.776987 13.7853C-0.258996 18.2018 -0.258995 22.7982 0.776989 27.2147L1.75056 26.9864ZM14.0136 39.2494C7.92887 37.8221 3.17785 33.0711 1.75056 26.9864L0.776989 27.2147C2.29101 33.6693 7.33074 38.709 13.7852 40.223L14.0136 39.2494ZM26.9864 39.2494C22.72 40.2502 18.28 40.2502 14.0136 39.2494L13.7852 40.223C18.2018 41.259 22.7982 41.259 27.2148 40.223L26.9864 39.2494ZM39.2494 26.9864C37.8222 33.0711 33.0711 37.8221 26.9864 39.2494L27.2148 40.223C33.6693 38.709 38.709 33.6692 40.223 27.2147L39.2494 26.9864ZM39.2494 14.0136C40.2502 18.28 40.2502 22.72 39.2494 26.9864L40.223 27.2147C41.259 22.7982 41.259 18.2018 40.223 13.7853L39.2494 14.0136ZM26.9864 1.75056C33.0711 3.17785 37.8222 7.92887 39.2494 14.0136L40.223 13.7853C38.709 7.33074 33.6693 2.29101 27.2147 0.776985L26.9864 1.75056ZM14.0136 1.75056C18.28 0.749815 22.72 0.749811 26.9864 1.75056L27.2147 0.776985C22.7982 -0.258997 18.2018 -0.258993 13.7853 0.776985L14.0136 1.75056ZM1.75056 14.0136C3.17785 7.92887 7.92888 3.17785 14.0136 1.75056L13.7853 0.776986C7.33075 2.29101 2.29101 7.33074 0.776987 13.7853L1.75056 14.0136Z" fill="#DBD0DB"/>
<path fill-rule="evenodd" clip-rule="evenodd" d="M22.9545 14.7727C22.9545 12.9652 24.4198 11.5 26.2273 11.5C28.0347 11.5 29.5 12.9652 29.5 14.7727C29.5 16.5802 28.0347 18.0455 26.2273 18.0455C25.2423 18.0455 24.3589 17.6103 23.7589 16.9217L17.9735 19.8144C18.0207 20.0354 18.0455 20.2649 18.0455 20.5C18.0455 20.7351 18.0207 20.9646 17.9735 21.1856L23.7589 24.0783C24.3589 23.3897 25.2423 22.9545 26.2273 22.9545C28.0347 22.9545 29.5 24.4198 29.5 26.2273C29.5 28.0347 28.0347 29.5 26.2273 29.5C24.4198 29.5 22.9545 28.0347 22.9545 26.2273C22.9545 25.9921 22.9793 25.7627 23.0265 25.5416L17.2411 22.649C16.6412 23.3375 15.7578 23.7727 14.7727 23.7727C12.9652 23.7727 11.5 22.3074 11.5 20.5C11.5 18.6925 12.9652 17.2273 14.7727 17.2273C15.7578 17.2273 16.6412 17.6625 17.2411 18.351L23.0265 15.4584C22.9793 15.2373 22.9545 15.0079 22.9545 14.7727ZM26.2273 13.1364C25.3235 13.1364 24.5909 13.869 24.5909 14.7727C24.5909 15.6765 25.3235 16.4091 26.2273 16.4091C27.131 16.4091 27.8636 15.6765 27.8636 14.7727C27.8636 13.869 27.131 13.1364 26.2273 13.1364ZM14.7727 18.8636C13.869 18.8636 13.1364 19.5962 13.1364 20.5C13.1364 21.4038 13.869 22.1364 14.7727 22.1364C15.6765 22.1364 16.4091 21.4038 16.4091 20.5C16.4091 19.5962 15.6765 18.8636 14.7727 18.8636ZM26.2273 24.5909C25.3235 24.5909 24.5909 25.3235 24.5909 26.2273C24.5909 27.131 25.3235 27.8636 26.2273 27.8636C27.131 27.8636 27.8636 27.131 27.8636 26.2273C27.8636 25.3235 27.131 24.5909 26.2273 24.5909Z" fill="#4C0B84"/>
</svg>
