<svg width="18" height="18" viewBox="0 0 18 18" fill="none" xmlns="http://www.w3.org/2000/svg">
<path d="M17.0008 10.2307C17.0021 9.65304 16.8491 9.08423 16.5558 8.57617C16.2625 8.0681 15.8382 7.63693 15.3216 7.32195C14.8051 7.00698 14.2126 6.81822 13.5983 6.77288C12.984 6.72755 12.3673 6.82707 11.8046 7.06238C11.2418 7.29769 10.7508 7.66131 10.3763 8.12009C10.0018 8.57888 9.75573 9.11823 9.66054 9.689C9.56534 10.2598 9.62403 10.8438 9.83127 11.3878C10.0385 11.9319 10.3877 12.4187 10.847 12.8038V17.1538L13.3085 16.0619L15.7701 17.1538V12.8038C16.1569 12.4804 16.4666 12.084 16.6787 11.6406C16.8908 11.1971 17.0005 10.7167 17.0008 10.2307ZM14.5393 15.3307L13.3085 14.7846L12.0777 15.3307V13.4904C12.8731 13.7597 13.7439 13.7597 14.5393 13.4904V15.3307ZM13.3085 12.5384C12.8217 12.5384 12.3458 12.4031 11.941 12.1495C11.5362 11.8959 11.2207 11.5355 11.0343 11.1139C10.848 10.6922 10.7993 10.2282 10.8943 9.78053C10.9893 9.33288 11.2237 8.92169 11.5679 8.59896C11.9122 8.27622 12.3508 8.05643 12.8283 7.96739C13.3058 7.87835 13.8007 7.92405 14.2505 8.09871C14.7003 8.27338 15.0847 8.56916 15.3552 8.94866C15.6257 9.32815 15.7701 9.77432 15.7701 10.2307C15.7693 10.8426 15.5097 11.4291 15.0483 11.8618C14.5868 12.2944 13.9611 12.5377 13.3085 12.5384Z" fill="#4C0B84" stroke="#4C0B84" stroke-width="0.4"/>
<path d="M8.38289 7.92285H4.0752V9.0767H8.38289V7.92285Z" fill="#4C0B84" stroke="#4C0B84" stroke-width="0.4"/>
<path d="M10.229 4.46143H4.0752V5.61527H10.229V4.46143Z" fill="#4C0B84" stroke="#4C0B84" stroke-width="0.4"/>
<path d="M2.23077 17.1538C1.90445 17.1535 1.5916 17.0319 1.36086 16.8155C1.13012 16.5992 1.00034 16.3059 1 16V2.15385C1.00034 1.84793 1.13012 1.55463 1.36086 1.33831C1.5916 1.12199 1.90445 1.00032 2.23077 1H12.0769C12.4032 1.00032 12.7161 1.12199 12.9468 1.33831C13.1776 1.55463 13.3073 1.84793 13.3077 2.15385V4.46154H12.0769V2.15385H2.23077V16H8.38461V17.1538H2.23077Z" fill="#4C0B84" stroke="#4C0B84" stroke-width="0.4"/>
</svg>
