<svg width="20" height="22" viewBox="0 0 20 22" fill="none" xmlns="http://www.w3.org/2000/svg">
<path d="M18.4191 4.47133H14.3645V3.8406C14.3645 3.05201 14.0512 2.2957 13.4936 1.73808C12.936 1.18046 12.1797 0.867188 11.3911 0.867188H8.32755C7.53895 0.867188 6.78265 1.18046 6.22503 1.73808C5.6674 2.2957 5.35413 3.05201 5.35413 3.8406V4.47133H1.29947C1.0605 4.47133 0.831321 4.56626 0.662345 4.73524C0.493368 4.90421 0.398438 5.13339 0.398438 5.37236C0.398438 5.61133 0.493368 5.84052 0.662345 6.00949C0.831321 6.17847 1.0605 6.2734 1.29947 6.2734H2.65103V18.6176C2.65103 19.0081 2.72794 19.3947 2.87736 19.7555C3.02679 20.1162 3.24581 20.444 3.52192 20.7201C3.79803 20.9962 4.12581 21.2152 4.48657 21.3647C4.84732 21.5141 5.23397 21.591 5.62444 21.591H14.0942C14.4846 21.591 14.8713 21.5141 15.2321 21.3647C15.5928 21.2152 15.9206 20.9962 16.1967 20.7201C16.4728 20.444 16.6918 20.1162 16.8413 19.7555C16.9907 19.3947 17.0676 19.0081 17.0676 18.6176V6.2734H18.4191C18.6581 6.2734 18.8873 6.17847 19.0563 6.00949C19.2253 5.84052 19.3202 5.61133 19.3202 5.37236C19.3202 5.13339 19.2253 4.90421 19.0563 4.73524C18.8873 4.56626 18.6581 4.47133 18.4191 4.47133ZM7.1562 3.8406C7.1562 3.68678 7.1865 3.53446 7.24537 3.39235C7.30423 3.25024 7.39051 3.12111 7.49928 3.01234C7.60805 2.90357 7.73718 2.81729 7.87929 2.75842C8.02141 2.69956 8.17373 2.66926 8.32755 2.66926H11.3911C11.7017 2.66926 11.9997 2.79267 12.2193 3.01234C12.439 3.23201 12.5624 3.52994 12.5624 3.8406V4.47133H7.1562V3.8406ZM15.2655 18.6176C15.2655 18.7714 15.2352 18.9237 15.1764 19.0658C15.1175 19.208 15.0312 19.3371 14.9224 19.4459C14.8137 19.5546 14.6845 19.6409 14.5424 19.6998C14.4003 19.7586 14.248 19.7889 14.0942 19.7889H5.62444C5.31378 19.7889 5.01585 19.6655 4.79618 19.4459C4.57651 19.2262 4.4531 18.9282 4.4531 18.6176V6.2734H15.2655V18.6176Z" fill="#F42500" stroke="#F42500" stroke-width="0.444082"/>
<path d="M7.60416 8.30078C7.36519 8.30078 7.13601 8.39571 6.96703 8.56469C6.79806 8.73367 6.70312 8.96285 6.70312 9.20182V17.3111C6.70312 17.5501 6.79806 17.7793 6.96703 17.9483C7.13601 18.1172 7.36519 18.2122 7.60416 18.2122C7.84313 18.2122 8.07231 18.1172 8.24129 17.9483C8.41027 17.7793 8.5052 17.5501 8.5052 17.3111V9.20182C8.5052 8.96285 8.41027 8.73367 8.24129 8.56469C8.07231 8.39571 7.84313 8.30078 7.60416 8.30078Z" fill="#F42500" stroke="#F42500" stroke-width="0.444082"/>
<path d="M12.112 8.30078C11.873 8.30078 11.6438 8.39571 11.4748 8.56469C11.3059 8.73367 11.2109 8.96285 11.2109 9.20182V17.3111C11.2109 17.5501 11.3059 17.7793 11.4748 17.9483C11.6438 18.1172 11.873 18.2122 12.112 18.2122C12.3509 18.2122 12.5801 18.1172 12.7491 17.9483C12.9181 17.7793 13.013 17.5501 13.013 17.3111V9.20182C13.013 8.96285 12.9181 8.73367 12.7491 8.56469C12.5801 8.39571 12.3509 8.30078 12.112 8.30078Z" fill="#F42500" stroke="#F42500" stroke-width="0.444082"/>
</svg>
