<svg width="15" height="15" viewBox="0 0 15 15" fill="none" xmlns="http://www.w3.org/2000/svg">
<path d="M11.2917 2.08333H10.75V1.54167C10.75 1.24267 10.5079 1 10.2083 1C9.90879 1 9.66667 1.24267 9.66667 1.54167V2.08333H5.33333V1.54167C5.33333 1.24267 5.09121 1 4.79167 1C4.49213 1 4.25 1.24267 4.25 1.54167V2.08333H3.70833C2.21496 2.08333 1 3.29829 1 4.79167V11.2917C1 12.785 2.21496 14 3.70833 14H11.2917C12.785 14 14 12.785 14 11.2917V4.79167C14 3.29829 12.785 2.08333 11.2917 2.08333ZM3.70833 3.16667H11.2917C12.1876 3.16667 12.9167 3.89575 12.9167 4.79167V5.33333H2.08333V4.79167C2.08333 3.89575 2.81242 3.16667 3.70833 3.16667ZM11.2917 12.9167H3.70833C2.81242 12.9167 2.08333 12.1876 2.08333 11.2917V6.41667H12.9167V11.2917C12.9167 12.1876 12.1876 12.9167 11.2917 12.9167ZM9.50796 9.72354C9.71975 9.93533 9.71975 10.2777 9.50796 10.4895L8.63425 11.3632C8.32171 11.6757 7.91058 11.8322 7.5 11.8322C7.08942 11.8322 6.67829 11.6757 6.36575 11.3632L5.49204 10.4895C5.28025 10.2777 5.28025 9.93533 5.49204 9.72354C5.70383 9.51175 6.04617 9.51175 6.25796 9.72354L6.95833 10.4239V8.04167C6.95833 7.74267 7.20046 7.5 7.5 7.5C7.79954 7.5 8.04167 7.74267 8.04167 8.04167V10.4239L8.74204 9.72354C8.95383 9.51175 9.29617 9.51175 9.50796 9.72354Z" fill="#4B164C" stroke="#4B164C" stroke-width="0.4"/>
</svg>
