<svg width="16" height="12" viewBox="0 0 16 12" fill="none" xmlns="http://www.w3.org/2000/svg">
<path d="M15.25 0H15V0.625C15 0.83125 14.8313 1 14.625 1H13.375C13.1687 1 13 0.83125 13 0.625V0H3V0.625C3 0.83125 2.83125 1 2.625 1H1.375C1.16875 1 1 0.83125 1 0.625V0H0.75C0.334375 0 0 0.334375 0 0.75V11.25C0 11.6656 0.334375 12 0.75 12H1V11.375C1 11.1687 1.16875 11 1.375 11H2.625C2.83125 11 3 11.1687 3 11.375V12H13V11.375C13 11.1687 13.1687 11 13.375 11H14.625C14.8313 11 15 11.1687 15 11.375V12H15.25C15.6656 12 16 11.6656 16 11.25V0.75C16 0.334375 15.6656 0 15.25 0ZM3 9.625C3 9.83125 2.83125 10 2.625 10H1.375C1.16875 10 1 9.83125 1 9.625V8.375C1 8.16875 1.16875 8 1.375 8H2.625C2.83125 8 3 8.16875 3 8.375V9.625ZM3 6.625C3 6.83125 2.83125 7 2.625 7H1.375C1.16875 7 1 6.83125 1 6.625V5.375C1 5.16875 1.16875 5 1.375 5H2.625C2.83125 5 3 5.16875 3 5.375V6.625ZM3 3.625C3 3.83125 2.83125 4 2.625 4H1.375C1.16875 4 1 3.83125 1 3.625V2.375C1 2.16875 1.16875 2 1.375 2H2.625C2.83125 2 3 2.16875 3 2.375V3.625ZM11.5 10.125C11.5 10.3313 11.3313 10.5 11.125 10.5H4.875C4.66875 10.5 4.5 10.3313 4.5 10.125V7.125C4.5 6.91875 4.66875 6.75 4.875 6.75H11.125C11.3313 6.75 11.5 6.91875 11.5 7.125V10.125ZM11.5 4.875C11.5 5.08125 11.3313 5.25 11.125 5.25H4.875C4.66875 5.25 4.5 5.08125 4.5 4.875V1.875C4.5 1.66875 4.66875 1.5 4.875 1.5H11.125C11.3313 1.5 11.5 1.66875 11.5 1.875V4.875ZM15 9.625C15 9.83125 14.8313 10 14.625 10H13.375C13.1687 10 13 9.83125 13 9.625V8.375C13 8.16875 13.1687 8 13.375 8H14.625C14.8313 8 15 8.16875 15 8.375V9.625ZM15 6.625C15 6.83125 14.8313 7 14.625 7H13.375C13.1687 7 13 6.83125 13 6.625V5.375C13 5.16875 13.1687 5 13.375 5H14.625C14.8313 5 15 5.16875 15 5.375V6.625ZM15 3.625C15 3.83125 14.8313 4 14.625 4H13.375C13.1687 4 13 3.83125 13 3.625V2.375C13 2.16875 13.1687 2 13.375 2H14.625C14.8313 2 15 2.16875 15 2.375V3.625Z" fill="#4C0B84"/>
</svg>
