<svg width="42" height="42" viewBox="0 0 42 42" fill="none" xmlns="http://www.w3.org/2000/svg">
<path d="M14.3798 1.85638C18.7148 0.83953 23.2264 0.839548 27.5615 1.85638C33.8219 3.32488 38.7102 8.21315 40.1786 14.4736C41.1955 18.8086 41.1955 23.3202 40.1786 27.6552C38.7101 33.9156 33.8219 38.8039 27.5615 40.2724C23.2264 41.2892 18.7148 41.2893 14.3798 40.2724C8.11943 38.8039 3.23112 33.9156 1.76263 27.6552C0.74578 23.3202 0.745797 18.8086 1.76263 14.4736C3.23112 8.21318 8.11945 3.3249 14.3798 1.85638Z" fill="white"/>
<path d="M14.3798 1.85638L14.2907 1.47664L14.2907 1.47664L14.3798 1.85638ZM27.5615 1.85638L27.6505 1.47664L27.6505 1.47664L27.5615 1.85638ZM40.1786 14.4736L40.5584 14.3845V14.3845L40.1786 14.4736ZM40.1786 27.6552L40.5584 27.7443H40.5584L40.1786 27.6552ZM27.5615 40.2724L27.6505 40.6521H27.6505L27.5615 40.2724ZM14.3798 40.2724L14.2907 40.6521H14.2907L14.3798 40.2724ZM1.76263 27.6552L1.38289 27.7443H1.38289L1.76263 27.6552ZM1.76263 14.4736L1.38289 14.3845L1.38289 14.3845L1.76263 14.4736ZM14.3798 1.85638L14.4689 2.23613C18.7453 1.23302 23.196 1.23303 27.4724 2.23613L27.5615 1.85638L27.6505 1.47664C23.2569 0.446062 18.6844 0.446043 14.2907 1.47664L14.3798 1.85638ZM27.5615 1.85638L27.4724 2.23613C33.5886 3.67079 38.3642 8.44645 39.7989 14.5626L40.1786 14.4736L40.5584 14.3845C39.0561 7.97985 34.0552 2.97896 27.6505 1.47664L27.5615 1.85638ZM40.1786 14.4736L39.7989 14.5626C40.802 18.8391 40.802 23.2897 39.7989 27.5661L40.1786 27.6552L40.5584 27.7443C41.589 23.3507 41.589 18.7781 40.5584 14.3845L40.1786 14.4736ZM40.1786 27.6552L39.7989 27.5661C38.3642 33.6823 33.5886 38.458 27.4724 39.8927L27.5615 40.2724L27.6505 40.6521C34.0552 39.1498 39.0561 34.1489 40.5584 27.7443L40.1786 27.6552ZM27.5615 40.2724L27.4724 39.8927C23.196 40.8957 18.7453 40.8958 14.4689 39.8927L14.3798 40.2724L14.2907 40.6521C18.6844 41.6827 23.2569 41.6827 27.6505 40.6521L27.5615 40.2724ZM14.3798 40.2724L14.4689 39.8927C8.35273 38.458 3.57704 33.6823 2.14238 27.5661L1.76263 27.6552L1.38289 27.7443C2.88521 34.1489 7.88613 39.1498 14.2907 40.6521L14.3798 40.2724ZM1.76263 27.6552L2.14238 27.5661C1.13927 23.2897 1.13928 18.8391 2.14238 14.5626L1.76263 14.4736L1.38289 14.3845C0.352311 18.7781 0.352293 23.3507 1.38289 27.7443L1.76263 27.6552ZM1.76263 14.4736L2.14238 14.5626C3.57703 8.44648 8.35275 3.67081 14.4689 2.23613L14.3798 1.85638L14.2907 1.47664C7.88615 2.97899 2.88521 7.97988 1.38289 14.3845L1.76263 14.4736Z" fill="#DBD0DB"/>
<path d="M30.011 13.5762H29.699V14.3563C29.699 14.6137 29.4884 14.8243 29.2309 14.8243H27.6707C27.4133 14.8243 27.2027 14.6137 27.2027 14.3563V13.5762H14.721V14.3563C14.721 14.6137 14.5104 14.8243 14.253 14.8243H12.6928C12.4354 14.8243 12.2247 14.6137 12.2247 14.3563V13.5762H11.9127C11.3939 13.5762 10.9766 13.9935 10.9766 14.5123V27.618C10.9766 28.1368 11.3939 28.5541 11.9127 28.5541H12.2247V27.774C12.2247 27.5166 12.4354 27.306 12.6928 27.306H14.253C14.5104 27.306 14.721 27.5166 14.721 27.774V28.5541H27.2027V27.774C27.2027 27.5166 27.4133 27.306 27.6707 27.306H29.2309C29.4884 27.306 29.699 27.5166 29.699 27.774V28.5541H30.011C30.5298 28.5541 30.9472 28.1368 30.9472 27.618V14.5123C30.9472 13.9935 30.5298 13.5762 30.011 13.5762ZM14.721 25.5897C14.721 25.8472 14.5104 26.0578 14.253 26.0578H12.6928C12.4354 26.0578 12.2247 25.8472 12.2247 25.5897V24.0295C12.2247 23.7721 12.4354 23.5615 12.6928 23.5615H14.253C14.5104 23.5615 14.721 23.7721 14.721 24.0295V25.5897ZM14.721 21.8452C14.721 22.1027 14.5104 22.3133 14.253 22.3133H12.6928C12.4354 22.3133 12.2247 22.1027 12.2247 21.8452V20.285C12.2247 20.0276 12.4354 19.817 12.6928 19.817H14.253C14.5104 19.817 14.721 20.0276 14.721 20.285V21.8452ZM14.721 18.1008C14.721 18.3582 14.5104 18.5688 14.253 18.5688H12.6928C12.4354 18.5688 12.2247 18.3582 12.2247 18.1008V16.5406C12.2247 16.2831 12.4354 16.0725 12.6928 16.0725H14.253C14.5104 16.0725 14.721 16.2831 14.721 16.5406V18.1008ZM25.3304 26.2138C25.3304 26.4712 25.1198 26.6819 24.8624 26.6819H17.0614C16.8039 26.6819 16.5933 26.4712 16.5933 26.2138V22.4693C16.5933 22.2119 16.8039 22.0013 17.0614 22.0013H24.8624C25.1198 22.0013 25.3304 22.2119 25.3304 22.4693V26.2138ZM25.3304 19.661C25.3304 19.9184 25.1198 20.129 24.8624 20.129H17.0614C16.8039 20.129 16.5933 19.9184 16.5933 19.661V15.9165C16.5933 15.659 16.8039 15.4484 17.0614 15.4484H24.8624C25.1198 15.4484 25.3304 15.659 25.3304 15.9165V19.661ZM29.699 25.5897C29.699 25.8472 29.4884 26.0578 29.2309 26.0578H27.6707C27.4133 26.0578 27.2027 25.8472 27.2027 25.5897V24.0295C27.2027 23.7721 27.4133 23.5615 27.6707 23.5615H29.2309C29.4884 23.5615 29.699 23.7721 29.699 24.0295V25.5897ZM29.699 21.8452C29.699 22.1027 29.4884 22.3133 29.2309 22.3133H27.6707C27.4133 22.3133 27.2027 22.1027 27.2027 21.8452V20.285C27.2027 20.0276 27.4133 19.817 27.6707 19.817H29.2309C29.4884 19.817 29.699 20.0276 29.699 20.285V21.8452ZM29.699 18.1008C29.699 18.3582 29.4884 18.5688 29.2309 18.5688H27.6707C27.4133 18.5688 27.2027 18.3582 27.2027 18.1008V16.5406C27.2027 16.2831 27.4133 16.0725 27.6707 16.0725H29.2309C29.4884 16.0725 29.699 16.2831 29.699 16.5406V18.1008Z" fill="#4C0B84"/>
</svg>
