<svg width="16" height="16" viewBox="0 0 16 16" fill="none" xmlns="http://www.w3.org/2000/svg">
<path d="M3.2 0C1.44104 0 0 1.44104 0 3.2V12.8C0 14.559 1.44104 16 3.2 16H12.8C14.559 16 16 14.559 16 12.8V3.2C16 1.44104 14.559 0 12.8 0H3.2ZM3.2 1.6H12.8C13.7002 1.6 14.4 2.29976 14.4 3.2V8.03906L13.2969 6.93591C12.9422 6.58126 12.4709 6.40469 12 6.40469C11.5291 6.40469 11.0578 6.58125 10.7031 6.93591L8.16562 9.475C8.02193 9.6187 7.81012 9.63512 7.64687 9.51404L6.2125 8.44998C5.42468 7.86588 4.3179 7.93296 3.60625 8.60779L1.6 10.5109V3.2C1.6 2.29976 2.29976 1.6 3.2 1.6ZM12.1656 8.06875L14.4 10.3031V12.8C14.4 13.7002 13.7002 14.4 12.8 14.4H3.2C2.34043 14.4 1.6 13.6096 1.6 12.7141L4.70625 9.76875C4.86194 9.62111 5.08702 9.60812 5.25938 9.73594L6.69375 10.7984C7.48454 11.3847 8.60078 11.3023 9.29687 10.6062L11.8344 8.06875C11.9387 7.96444 12.1063 8.00946 12.1656 8.06875Z" fill="#4C0B84"/>
<path d="M5.59668 4.38428C5.59668 4.70673 5.46858 5.01598 5.24057 5.24399C5.01256 5.472 4.70332 5.6001 4.38086 5.6001C4.2212 5.6001 4.0631 5.56864 3.91559 5.50754C3.76808 5.44644 3.63405 5.35689 3.52115 5.24399C3.40825 5.1311 3.31869 4.99707 3.25759 4.84956C3.19649 4.70205 3.16504 4.54394 3.16504 4.38428C3.16504 4.22461 3.19649 4.0665 3.25759 3.91899C3.31869 3.77148 3.40824 3.63746 3.52114 3.52456C3.63404 3.41166 3.76808 3.32211 3.91559 3.26101C4.0631 3.19991 4.2212 3.16846 4.38086 3.16846C4.54053 3.16846 4.69863 3.19991 4.84614 3.26101C4.99365 3.32211 5.12768 3.41166 5.24058 3.52456C5.35348 3.63746 5.44303 3.77148 5.50413 3.91899C5.56523 4.0665 5.59668 4.22461 5.59668 4.38428Z" fill="#4C0B84"/>
</svg>
